<svg width="125" height="119" viewBox="0 0 125 119" fill="none" xmlns="http://www.w3.org/2000/svg">
<path d="M96.2094 89.2783L52.3818 99.8883C52.3818 99.8883 63.4267 104.385 75.175 101.856C88.3303 99.8883 96.2094 89.2783 96.2094 89.2783Z" fill="white"/>
<path d="M48.6527 97.8507L46.1201 96.0941L104.018 73.6797L102.118 80.144L48.6527 97.8507Z" fill="#8895B3"/>
<path d="M43.099 93.846L40.5664 91.6678L104.021 57.8706L104.725 63.6323L43.099 93.846Z" fill="#8895B3"/>
<path d="M37.9606 88.7163L36.6943 86.5381L98.3906 44.0281L101.275 48.8763L37.9606 88.7163Z" fill="#8895B3"/>
<path d="M45.77 74.4524L34.5844 84.1489C34.5844 84.1489 25.9324 70.7284 31.7705 52.3894C36.4839 59.9077 45.77 74.4524 45.77 74.4524Z" fill="#8895B3"/>
<path d="M48.1618 72.7666C47.8335 72.9774 47.1347 73.4552 46.9659 73.68L33.8105 47.9632L35.3582 45.5742L48.1618 72.7666Z" fill="#8895B3"/>
<path d="M50.6977 71.0102L49.2907 71.8534L38.668 40.656L41.0598 38.1265L50.6977 71.0102Z" fill="#8895B3"/>
<path d="M53.6475 68.2688L51.8184 69.7443L46.1201 33.8392L49.6376 31.8015L53.6475 68.2688Z" fill="#8895B3"/>
<path d="M91.7087 36.7909L54.916 67.1451C54.916 67.1451 55.3381 41.4283 55.3381 29.4834C78.9755 22.738 91.7087 36.7909 91.7087 36.7909Z" fill="#8895B3"/>
<path d="M53.4349 86.9957C53.4349 86.9957 47.3854 87.2607 45.4697 88.5002C44.0477 89.4202 39.4001 89.8928 39.7996 92.0933C40.8187 93.0561 41.7304 93.8585 42.5349 94.5539C47.4692 98.4053 51.599 99.7056 53.1007 100.224C54.6025 100.743 66.1336 104.075 68.4935 99.6891C70.8533 95.3028 70.6723 101.036 71.6578 101.026L71.6747 101.022C73.6649 100.54 77.6532 99.572 83.0281 95.9982C84.3153 95.1423 86.7288 93.1096 87.426 92.4142C88.1232 91.7188 80.6166 91.9548 80.6166 91.9548C80.6166 91.9548 77.8873 89.9488 77.3303 89.3359C76.7733 88.7231 75.4643 88.5002 75.4643 88.5002C75.4643 88.5002 75.0466 87.1629 74.5174 86.9957C73.9883 86.8286 70.9804 86.7172 70.9804 86.7172C70.9804 86.7172 68.1676 73.1773 69.5601 71.6728C70.9526 70.1684 73.5705 69.8063 73.5705 69.8063H77.3303L77.8873 68.3854L82.9839 67.1317V65.9059L77.3303 67.5496C77.3303 67.5496 65.4383 55.8206 65.5497 54.5391C65.6611 53.2576 66.8865 53.6755 66.8865 53.6755V50.9731L71.7045 53.6755C71.7045 53.6755 69.1423 45.2618 67.4435 44.2031C65.7446 43.1445 56.0528 44.7603 56.0528 44.7603C56.0528 44.7603 62.0406 47.2677 61.7064 48.0478C61.3722 48.8279 57.4174 55.1241 57.3339 56.7957C57.2503 58.4673 60.0632 64.7358 60.0632 64.7358L57.9744 73.0937L49.5915 75.5454V76.7434L57.6959 74.3753L53.4349 86.9957Z" fill="white"/>
<path d="M34.6812 26.0535C33.9787 25.1387 32.6646 24.9634 31.779 25.7024C24.2217 32.009 18.6186 40.3613 15.656 49.7786C12.4841 59.861 12.4925 70.6753 15.68 80.7528C18.8675 90.8302 25.0796 99.6823 33.4725 106.107C41.8655 112.531 52.0325 116.217 62.5927 116.662C73.1528 117.108 83.5942 114.292 92.4987 108.598C101.403 102.904 108.339 94.6066 112.364 84.8336C116.39 75.0606 117.309 64.2854 114.998 53.9716C112.84 44.3382 107.96 35.5434 100.961 28.6224C100.141 27.8114 98.817 27.8753 98.0399 28.7277L96.9745 29.8963C96.1975 30.7486 96.2623 32.0663 97.0783 32.8815C103.206 39.0029 107.479 46.7509 109.379 55.2306C111.432 64.3908 110.615 73.9607 107.04 82.6406C103.465 91.3205 97.3049 98.6896 89.3964 103.747C81.488 108.804 72.2144 111.305 62.8355 110.909C53.4565 110.513 44.4267 107.24 36.9725 101.534C29.5183 95.8285 24.001 87.9665 21.1701 79.0163C18.3391 70.066 18.3317 60.4613 21.1488 51.5066C23.7566 43.2172 28.6678 35.8569 35.2894 30.2735C36.1712 29.53 36.3468 28.2225 35.6443 27.3077L34.6812 26.0535Z" fill="white"/>
<path d="M105.751 109.581L96.5083 101.628C96.3664 101.506 96.3625 101.288 96.4999 101.161L99.8219 98.0889C99.949 97.9713 100.148 97.9793 100.265 98.1066L104.188 102.364C105.684 103.948 110.777 108.377 111.14 108.7C111.872 109.351 117.718 113.886 121.03 116.167C121.276 116.336 121.17 116.686 120.871 116.684C119.889 116.677 118.472 116.655 118.253 116.678C117.854 116.719 114.069 115.661 113.155 115.306C112.424 115.022 110.422 113.583 109.512 112.899L105.751 109.581Z" fill="white" stroke="white" stroke-width="0.104421"/>
<path d="M8.47591 1.27961C8.60129 1.26102 8.72607 1.33289 8.77278 1.37115L12.1935 4.93079L18.4522 12.3584L25.8298 20.6059L26.3694 21.0065L27.1884 20.7125C27.3639 20.6495 28.0912 20.6525 28.4256 20.6646C28.76 20.6766 28.7037 20.7959 29.0656 21.1612C29.4275 21.5265 29.0037 21.9098 29.0312 22.2632C29.0587 22.6165 28.9064 22.8363 28.7165 23.1356C28.5646 23.375 28.2455 23.7559 28.1049 23.9164L30.0569 25.9562L32.2928 27.6516L29.1248 30.2036L25.2526 26.4592C25.1106 26.5542 24.7952 26.7489 24.6698 26.7675C24.5131 26.7908 23.416 26.9535 23.1777 26.8409C22.9393 26.7284 22.6127 26.1853 22.5123 26.0893C22.4119 25.9932 22.6427 24.8868 22.6803 24.8073C22.7103 24.7437 23.0711 24.1167 23.2477 23.8111L17.6501 16.9387C15.8401 14.8039 12.2122 10.5306 12.1804 10.5156C12.1406 10.4969 6.83203 4.24708 6.77135 4.16982C6.71066 4.09255 6.48449 3.64545 6.44257 3.52842C6.40065 3.4114 6.33339 3.03932 6.40847 2.8803C6.48355 2.72127 6.60054 2.67927 6.67781 2.61851C6.75508 2.55775 7.08291 2.27497 7.21649 2.09494C7.35006 1.91492 7.83462 1.60889 7.93066 1.50837C8.0267 1.40786 8.31919 1.30286 8.47591 1.27961Z" fill="white"/>
<path d="M93.347 91.7465C88.1422 97.3205 81.4167 101.245 74.0035 103.035C66.5903 104.825 58.8149 104.402 51.6401 101.817C44.4653 99.2319 38.2062 94.5994 33.6378 88.4928C29.0695 82.3863 26.3925 75.0739 25.9385 67.4612C25.4844 59.8485 27.2732 52.2698 31.0833 45.6635C34.8934 39.0572 40.5575 33.7136 47.3742 30.2942C54.1909 26.8748 61.8608 25.5298 69.4342 26.4259C77.0076 27.322 87.5611 32.3153 91.6971 36.8034L86.9451 40.7634C82.027 36.6169 75.1057 33.2401 68.7174 32.4842C62.3291 31.7284 55.8595 32.8628 50.1095 35.7471C44.3595 38.6314 39.5818 43.1389 36.3679 48.7114C33.1541 54.2838 31.6452 60.6766 32.0282 67.098C32.4112 73.5194 34.6693 79.6875 38.5227 84.8384C42.3762 89.9894 47.6558 93.897 53.7078 96.0774C59.7599 98.2577 66.3185 98.6151 72.5717 97.1053C78.8248 95.5955 88.3628 95.2735 92.7531 90.5718L93.347 91.7465Z" fill="white"/>
</svg>
