<svg width="80" height="80" viewBox="0 0 80 80" fill="none" xmlns="http://www.w3.org/2000/svg">
<circle cx="25.5232" cy="29.4772" r="20.3606" transform="rotate(-0.329326 25.5232 29.4772)" fill="#326CF6"/>
<path d="M37.212 21.144L37.904 24.716C34.9809 25.2844 32.2216 26.498 29.8272 28.2682C27.4327 30.0385 25.4635 32.3208 24.0631 34.9487C22.6627 37.5767 21.8665 40.484 21.7324 43.4587C21.5983 46.4335 22.1297 49.4007 23.288 52.144L19.94 53.56C18.5704 50.318 17.9418 46.8112 18.0998 43.2954C18.2579 39.7796 19.1987 36.3434 20.8537 33.2374C22.5086 30.1314 24.836 27.4339 27.666 25.3418C30.4959 23.2496 33.7572 21.8155 37.212 21.144ZM26.612 62.544L28.94 59.744C32.5274 62.7359 37.0526 64.3712 41.724 64.364C46.524 64.364 51.056 62.668 54.644 59.632L56.996 62.408C52.7297 66.0272 47.3145 68.0095 41.72 68C36.2002 68.0079 30.853 66.0768 26.612 62.544ZM49.932 26.104C49.2799 27.7846 48.0383 29.1704 46.4391 30.0024C44.8399 30.8344 42.9925 31.0558 41.242 30.6252C39.4915 30.1946 37.9576 29.1414 36.9269 27.6625C35.8962 26.1835 35.4391 24.3799 35.6411 22.5885C35.8431 20.7972 36.6904 19.1407 38.0246 17.9284C39.3587 16.7161 41.0886 16.031 42.8911 16.001C44.6935 15.9711 46.4452 16.5983 47.819 17.7656C49.1927 18.9329 50.0945 20.5603 50.356 22.344C54.1741 23.8431 57.5369 26.3089 60.1147 29.4995C62.6925 32.6902 64.3966 36.4961 65.06 40.544C65.14 41.04 65.208 41.696 65.268 42.512C65.285 42.7481 65.2532 42.9851 65.1744 43.2083C65.0957 43.4315 64.9717 43.6361 64.8102 43.8092C64.6488 43.9823 64.4533 44.1202 64.2361 44.2143C64.0189 44.3083 63.7847 44.3566 63.548 44.356C63.066 44.3563 62.6017 44.1741 62.2485 43.8461C61.8953 43.5182 61.6793 43.0687 61.644 42.588C61.3294 39.049 60.0788 35.6574 58.0206 32.7613C55.9624 29.8652 53.1707 27.5689 49.932 26.108V26.104ZM43.016 27.712C43.5909 27.7295 44.1635 27.6314 44.6998 27.4235C45.2361 27.2156 45.7252 26.9022 46.1381 26.5017C46.5509 26.1012 46.8792 25.6219 47.1034 25.0922C47.3275 24.5625 47.443 23.9932 47.443 23.418C47.443 22.8428 47.3275 22.2734 47.1034 21.7437C46.8792 21.214 46.5509 20.7347 46.1381 20.3342C45.7252 19.9338 45.2361 19.6203 44.6998 19.4124C44.1635 19.2045 43.5909 19.1064 43.016 19.124C41.8998 19.158 40.8408 19.6254 40.0633 20.4269C39.2858 21.2285 38.851 22.3013 38.851 23.418C38.851 24.5346 39.2858 25.6074 40.0633 26.409C40.8408 27.2106 41.8998 27.6779 43.016 27.712ZM25.48 64.512C24.4913 64.5349 23.5081 64.36 22.588 63.9976C21.6679 63.6351 20.8296 63.0924 20.1222 62.4013C19.4149 61.7102 18.8528 60.8847 18.4691 59.9732C18.0854 59.0618 17.8877 58.0829 17.8877 57.094C17.8877 56.1051 18.0854 55.1261 18.4691 54.2147C18.8528 53.3033 19.4149 52.4778 20.1222 51.7867C20.8296 51.0956 21.6679 50.5529 22.588 50.1904C23.5081 49.8279 24.4913 49.653 25.48 49.676C27.4479 49.676 29.3352 50.4577 30.7267 51.8492C32.1182 53.2408 32.9 55.1281 32.9 57.096C32.9 59.0639 32.1182 60.9512 30.7267 62.3427C29.3352 63.7342 27.4479 64.516 25.48 64.516V64.512ZM25.48 61.392C26.0442 61.392 26.6028 61.281 27.1241 61.0651C27.6454 60.8492 28.119 60.5328 28.518 60.1339C28.917 59.735 29.2335 59.2613 29.4494 58.7401C29.6653 58.2189 29.7764 57.6602 29.7764 57.096C29.7764 56.5318 29.6653 55.9731 29.4494 55.4519C29.2335 54.9306 28.917 54.457 28.518 54.0581C28.119 53.6591 27.6454 53.3427 27.1241 53.1269C26.6028 52.911 26.0442 52.7999 25.48 52.8C24.3407 52.8001 23.2481 53.2528 22.4425 54.0584C21.637 54.8641 21.1844 55.9567 21.1844 57.096C21.1844 58.2353 21.637 59.3279 22.4425 60.1335C23.2481 60.9392 24.3407 61.3918 25.48 61.392ZM60.52 64.512C59.5313 64.5349 58.5481 64.36 57.628 63.9976C56.7079 63.6351 55.8696 63.0924 55.1622 62.4013C54.4549 61.7102 53.8928 60.8847 53.5091 59.9732C53.1254 59.0618 52.9277 58.0829 52.9277 57.094C52.9277 56.1051 53.1254 55.1261 53.5091 54.2147C53.8928 53.3033 54.4549 52.4778 55.1622 51.7867C55.8696 51.0956 56.7079 50.5529 57.628 50.1904C58.5481 49.8279 59.5313 49.653 60.52 49.676C62.4879 49.676 64.3752 50.4577 65.7667 51.8492C67.1582 53.2408 67.94 55.1281 67.94 57.096C67.94 59.0639 67.1582 60.9512 65.7667 62.3427C64.3752 63.7342 62.4879 64.516 60.52 64.516V64.512ZM60.52 61.392C61.0842 61.392 61.6429 61.281 62.1641 61.0651C62.6854 60.8492 63.159 60.5328 63.558 60.1339C63.957 59.735 64.2735 59.2613 64.4894 58.7401C64.7053 58.2189 64.8164 57.6602 64.8164 57.096C64.8164 56.5318 64.7053 55.9731 64.4894 55.4519C64.2735 54.9306 63.957 54.457 63.558 54.0581C63.159 53.6591 62.6854 53.3427 62.1641 53.1269C61.6429 52.911 61.0842 52.7999 60.52 52.8C59.3807 52.8001 58.2881 53.2528 57.4825 54.0584C56.677 54.8641 56.2244 55.9567 56.2244 57.096C56.2244 58.2353 56.677 59.3279 57.4825 60.1335C58.2881 60.9392 59.3807 61.3918 60.52 61.392Z" fill="white"/>
</svg>
