<svg width="80" height="80" viewBox="0 0 80 80" fill="none" xmlns="http://www.w3.org/2000/svg">
<circle cx="51.4773" cy="28.4772" r="20.3606" transform="rotate(-0.329326 51.4773 28.4772)" fill="#326CF6"/>
<path d="M18.5409 47.7593C16.9391 46.4491 15.6267 44.8105 14.689 42.9504C13.7513 41.0902 13.2094 39.0502 13.0985 36.9629C12.9876 34.8757 13.3102 32.7881 14.0454 30.8361C14.7805 28.884 15.9117 27.1113 17.3653 25.6333C18.8189 24.1552 20.5623 23.005 22.4821 22.2575C24.4018 21.51 26.4549 21.1819 28.5076 21.2947C30.5603 21.4074 32.5666 21.9585 34.396 22.9119C36.2254 23.8654 37.8368 25.1999 39.1253 26.8286L40.2515 26.6377C41.6048 26.6514 42.9546 26.7791 44.2871 27.0194C42.8979 24.4027 40.9266 22.1523 38.5305 20.4476C36.1343 18.7429 33.3795 17.6311 30.4859 17.2008C27.5922 16.7706 24.6397 17.0338 21.8638 17.9695C19.088 18.9052 16.5655 20.4874 14.4976 22.5901C12.4297 24.6927 10.8736 27.2576 9.95344 30.0802C9.03324 32.9028 8.77438 35.9049 9.19752 38.8473C9.62065 41.7896 10.7141 44.5907 12.3906 47.0271C14.0671 49.4636 16.2803 51.468 18.8537 52.8806C18.5821 51.571 18.4147 50.2413 18.3532 48.9044C18.3532 48.5227 18.5096 48.141 18.5409 47.7593ZM45.6949 30.6457C44.1737 30.1594 42.5957 29.8813 41.0024 29.8187H40.2515C35.2734 29.8187 30.4992 31.8295 26.9791 35.4088C23.4591 38.988 21.4815 43.8426 21.4815 48.9044C21.4815 49.1589 21.4815 49.4134 21.4815 49.6678C21.5329 51.2865 21.7959 52.8911 22.2636 54.4393C23.2027 57.5967 24.9306 60.4527 27.2787 62.7288C29.6268 65.0049 32.515 66.6232 35.6616 67.4261C38.8081 68.2289 42.1056 68.1888 45.2324 67.3097C48.3592 66.4306 51.2085 64.7424 53.5024 62.4099C55.7963 60.0774 57.4565 57.1802 58.3211 54.0008C59.1857 50.8215 59.2251 47.4685 58.4356 44.2691C57.646 41.0696 56.0544 38.1328 53.816 35.7452C51.5776 33.3576 48.7688 31.6006 45.6636 30.6457H45.6949ZM40.2515 63.8549C37.4678 63.8469 34.7435 63.0356 32.3954 61.5152C30.0473 59.9948 28.1719 57.8278 26.9874 55.2663H27.7382C32.7163 55.2663 37.4905 53.2555 41.0106 49.6762C44.5307 46.097 46.5082 41.2424 46.5082 36.1806C46.5082 35.9261 46.5082 35.6716 46.5082 35.4172C49.5382 36.8549 51.9943 39.3018 53.4699 42.3527C54.9454 45.4036 55.3519 48.8755 54.6219 52.1933C53.8919 55.5112 52.0693 58.476 49.4559 60.5968C46.8426 62.7175 43.5952 63.867 40.2515 63.8549Z" fill="white"/>
</svg>
