<svg width="80" height="80" viewBox="0 0 80 80" fill="none" xmlns="http://www.w3.org/2000/svg">
<circle cx="21.5232" cy="52.4772" r="20.3606" transform="rotate(-0.329326 21.5232 52.4772)" fill="#326CF6"/>
<path d="M53.2158 37.4026C52.7582 37.2028 52.3006 37.0223 51.8365 36.8547C55.0463 34.2573 57.0959 30.2934 57.0959 25.859C57.0959 18.0602 50.7537 11.718 42.9549 11.718C35.1561 11.718 28.8139 18.0602 28.8139 25.859C28.8139 30.2999 30.8699 34.2702 34.0797 36.8612C24.141 40.4899 17.0254 50.0418 17.0254 61.2245H21.7369C21.7369 49.5262 31.2566 40.0129 42.9484 40.0129C45.8682 40.0129 48.6912 40.593 51.3402 41.7338L53.2158 37.4026ZM42.9549 16.4295C48.1562 16.4295 52.3844 20.6577 52.3844 25.859C52.3844 31.0604 48.1562 35.2885 42.9549 35.2885C37.7535 35.2885 33.5254 31.054 33.5254 25.859C33.5254 20.6641 37.7535 16.4295 42.9549 16.4295ZM49.4775 48.0245C49.4775 48.6819 49.8385 49.2813 50.4186 49.5842L58.6686 53.9413C58.9264 54.0766 59.21 54.1475 59.4936 54.1475C59.7772 54.1475 60.0607 54.0766 60.3186 53.9413L68.5686 49.5842C69.1486 49.2749 69.5096 48.6754 69.5096 48.0245C69.5096 47.3735 69.1486 46.7676 68.5686 46.4647L60.3186 42.1012C59.8029 41.8305 59.1842 41.8305 58.6686 42.1012L50.4186 46.4647C49.8385 46.7676 49.4775 47.367 49.4775 48.0245ZM59.4936 45.6655L63.9602 48.0245L59.4936 50.3834L55.027 48.0245L59.4936 45.6655Z" fill="white"/>
<path d="M59.4938 56.2036L50.0191 51.1956L48.3691 54.3215L59.4938 60.1997L70.5732 54.3473L68.9232 51.2213L59.4938 56.2036Z" fill="white"/>
<path d="M59.4938 61.8753L50.0191 56.8738L48.3691 59.9933L59.4938 65.8779L70.5346 60.0384L68.8846 56.9125L59.4938 61.8753Z" fill="white"/>
</svg>
