<svg width="80" height="80" viewBox="0 0 80 80" fill="none" xmlns="http://www.w3.org/2000/svg">
<circle cx="19.5" cy="35.5" r="19.5" fill="#326CF6"/>
<path d="M75.9702 61.9808C75.9262 61.2392 75.8442 60.5056 75.7902 59.768C75.6762 58.1174 75.7402 56.4748 75.8262 54.8241C75.8722 53.931 75.0422 53.1855 74.1822 53.1855C73.7322 53.1855 73.3442 53.3669 73.0542 53.652C72.8802 53.5882 72.7002 53.5443 72.5062 53.5583C72.3322 53.5722 72.1602 53.5902 71.9882 53.6101C71.9442 53.0918 71.9242 52.5715 71.9042 52.0572C71.8762 51.3774 71.8502 50.7036 71.8302 50.0278C71.7802 48.4988 71.6962 46.9638 71.6302 45.4348C71.5642 43.9097 71.6142 42.3747 71.6302 40.8457C71.6382 40.1121 71.6342 39.3825 71.6702 38.6489C71.7062 37.8993 71.7602 37.1498 71.7842 36.3962C71.8302 35.0506 71.8302 33.697 71.8622 32.3494C71.8982 31.0118 71.9162 29.6741 71.9202 28.3325C72.1422 28.3604 72.3622 28.3903 72.5862 28.4103C72.9502 28.4462 73.3222 28.4541 73.6902 28.4641C73.8542 28.4681 74.0062 28.4202 74.1562 28.3744C74.1722 28.3744 74.1862 28.3844 74.2042 28.3844C75.0422 28.3844 75.7542 27.6826 75.7502 26.8434C75.7422 25.3762 75.7662 23.905 75.7962 22.4338C75.8322 20.8031 75.9842 19.1784 75.9962 17.5477C75.9982 17.0912 75.7962 16.6765 75.4842 16.3775C75.3022 15.8632 74.9142 15.4226 74.3582 15.2831C73.9162 15.1734 73.4422 15.1934 72.9882 15.1615C72.5922 15.1376 72.1942 15.1156 71.7982 15.0957C71.1762 15.0678 70.5602 15.014 69.9382 15.01C69.1862 15.004 68.4362 15 67.6842 15C66.4062 15 65.1302 15.012 63.8522 15.0498C62.8662 15.0777 62.0402 15.8492 62.0402 16.852C62.0402 17.3483 62.2702 17.8188 62.6222 18.1597C62.6482 18.5484 62.6722 18.9392 62.6962 19.3279C62.0802 19.3658 61.4622 19.3598 60.8482 19.3698C60.1202 19.3777 59.3962 19.4236 58.6722 19.4276C57.3142 19.4315 55.9582 19.4435 54.6041 19.4355C53.0281 19.4256 51.4541 19.4296 49.8801 19.4096C48.3681 19.3897 46.8581 19.3199 45.3461 19.292C43.9761 19.2681 42.6061 19.284 41.2361 19.2481C40.0641 19.2202 38.8921 19.1844 37.7201 19.1505C37.7201 18.7617 37.7161 18.373 37.7181 17.9823C37.7201 17.6115 37.5701 17.2786 37.3561 16.9975C37.3561 16.9795 37.3661 16.9656 37.3661 16.9476C37.3661 16.5071 37.1901 16.0765 36.8761 15.7655C36.5401 15.4326 36.1481 15.315 35.6901 15.2771C34.214 15.1475 32.734 15.2891 31.254 15.2891C29.396 15.293 27.54 15.2372 25.684 15.2133C25.678 15.2133 25.67 15.2133 25.664 15.2133C24.752 15.2133 24 15.9928 24 16.8918C24 17.3822 24.23 17.8188 24.576 18.1278C24.606 18.8475 24.644 19.5671 24.66 20.2868C24.674 21.0563 24.67 21.8218 24.662 22.5893C24.654 23.3548 24.658 24.1262 24.662 24.8917C24.666 25.6214 24.65 26.351 24.732 27.0766C24.78 27.5152 24.874 27.878 25.2 28.201C25.498 28.498 25.908 28.6654 26.332 28.6654C26.472 28.6654 26.606 28.6216 26.74 28.5837C27.39 28.5797 28.04 28.5618 28.688 28.5458C28.67 30.0828 28.68 31.6198 28.63 33.1568C28.578 34.634 28.53 36.1151 28.4 37.5863C28.338 38.304 28.244 39.0197 28.248 39.7413C28.252 40.4949 28.264 41.2444 28.264 41.996C28.268 43.5031 28.248 45.0081 28.26 46.5152C28.272 47.7791 28.334 49.043 28.4 50.3049C28.454 51.2737 28.484 52.2406 28.552 53.2034C28.114 53.1974 27.674 53.1875 27.236 53.1855C26.628 53.1835 26.11 53.5304 25.804 54.0188C25.348 54.3098 25.02 54.7962 25.028 55.3624C25.04 56.2475 25.086 57.1346 25.082 58.0157C25.078 58.7254 25.07 59.4351 25.058 60.1468C25.042 60.8305 25.042 61.5123 25.034 62.1961C25.034 62.4931 25.046 62.7902 25.07 63.0852C25.106 63.5537 25.148 63.9902 25.388 64.4049C25.398 64.4248 25.418 64.4368 25.43 64.4547C25.68 65.0528 26.274 65.4874 26.958 65.4814C28.794 65.4614 30.626 65.4455 32.462 65.4654C33.01 65.4734 33.55 65.5153 34.098 65.5113C34.6041 65.5073 35.1281 65.4993 35.6281 65.5512C35.5881 65.5452 35.5481 65.5412 35.5101 65.5352C35.8481 65.5631 36.1621 65.5213 36.4821 65.3359C36.8421 65.1245 37.1081 64.7777 37.2221 64.377C37.2401 64.3112 37.2261 64.2414 37.2361 64.1736C37.7221 63.9125 38.0681 63.4161 38.0681 62.836C38.0681 62.7244 38.0701 62.6147 38.0701 62.5031C41.2061 62.3456 44.3321 62.2439 47.4721 62.3057C49.0341 62.3336 50.5921 62.3536 52.1501 62.4234C53.5801 62.4891 55.0041 62.5709 56.4382 62.5788C57.6602 62.5868 58.8842 62.6207 60.1102 62.6247C60.9102 62.6247 61.7102 62.6187 62.5102 62.5948C62.5442 63.1211 62.5802 63.6454 62.6542 64.1697C62.7282 64.4308 62.8622 64.6621 63.0542 64.8534C63.2262 65.0229 63.4362 65.1345 63.6622 65.2103C63.9702 65.6748 64.4702 66.0117 65.0562 65.9997C66.5202 65.9678 67.9842 65.8781 69.4482 65.8641C69.7762 65.8641 70.1062 65.8681 70.4382 65.8761C71.3582 65.892 72.2822 65.912 73.1822 65.7246C73.5862 65.6409 73.8942 65.3717 74.1062 65.0388C74.8602 65.1724 75.7422 64.7318 75.9022 63.9424C76.0362 63.2845 76.0042 62.6406 75.9702 61.9808ZM69.7302 18.4328C70.0662 18.4288 70.4082 18.4826 70.7442 18.5026C71.0342 18.5185 71.3242 18.5225 71.6102 18.5484C71.9782 18.5803 72.3382 18.6062 72.7082 18.6102C72.7002 19.8621 72.6802 21.1121 72.6682 22.366C72.6582 23.293 72.6622 24.2199 72.6642 25.1469C72.3402 25.125 72.0142 25.109 71.6902 25.0911C70.9542 25.0492 70.2102 25.0831 69.4742 25.0871C68.5742 25.0951 67.6762 25.0831 66.7762 25.0751C66.5302 25.0712 66.2822 25.0732 66.0362 25.0692C66.0282 24.0585 66.0422 23.0497 66.0202 22.039C66.0002 20.8868 65.9642 19.7326 65.9242 18.5783C66.3562 18.5624 66.7862 18.5444 67.2162 18.5285C68.0542 18.5006 68.8922 18.4408 69.7302 18.4328ZM32.05 18.5225C32.578 18.5225 33.114 18.5225 33.648 18.5345C33.882 18.5424 34.118 18.5524 34.354 18.5644C34.374 19.3319 34.404 20.0974 34.432 20.8649C34.464 21.6722 34.4601 22.4836 34.4681 23.2969C34.4761 23.9608 34.5341 24.6246 34.5581 25.2865C34.5581 25.3223 34.5601 25.3602 34.5621 25.3981C33.602 25.3881 32.642 25.3742 31.686 25.3901C30.392 25.412 29.1 25.3702 27.806 25.3423C27.804 25.127 27.786 24.9097 27.786 24.6924C27.79 23.9388 27.79 23.1853 27.782 22.4338C27.768 21.14 27.758 19.8462 27.74 18.5524C28.91 18.5385 30.08 18.5225 31.254 18.5225C31.516 18.5265 31.784 18.5225 32.05 18.5225ZM34.162 62.3396C33.622 62.3277 33.078 62.3237 32.534 62.3117C31.778 62.2918 31.026 62.2459 30.272 62.222C29.62 62.2041 28.97 62.2021 28.32 62.1961C28.298 61.4465 28.304 60.693 28.298 59.9514C28.28 58.8331 28.292 57.7127 28.296 56.5944C29.246 56.5904 30.196 56.5864 31.148 56.5804C31.646 56.5764 32.138 56.5684 32.632 56.5645C33.012 56.5605 33.4 56.5485 33.776 56.5964C33.636 56.5764 33.49 56.5565 33.35 56.5385C33.87 56.6123 34.392 56.6442 34.9161 56.6562C34.9141 58.55 34.9161 60.4438 34.9761 62.3376C34.9041 62.3396 34.8301 62.3336 34.7581 62.3356C34.552 62.3396 34.3561 62.3476 34.162 62.3396ZM59.2462 59.6265C57.8142 59.6105 56.3802 59.5766 54.9521 59.5408C53.4521 59.5009 51.9581 59.3952 50.4581 59.3534C49.7321 59.3334 49.0101 59.3255 48.2861 59.3255C47.4781 59.3255 46.6721 59.3354 45.8621 59.3494C43.2761 59.3972 40.6881 59.3773 38.1021 59.477C38.1281 58.2689 38.2121 57.0608 38.2301 55.8488C38.2341 55.5179 38.1061 55.2248 37.9301 54.9637C37.9021 54.0965 37.1741 53.3629 36.2921 53.3709C35.7081 53.3749 35.1301 53.3669 34.546 53.3589C34.398 53.3589 34.248 53.3589 34.104 53.3589C33.782 53.3629 33.462 53.3629 33.136 53.343C32.638 53.3151 32.14 53.3031 31.642 53.2832C31.512 52.0452 31.508 50.7993 31.472 49.5553C31.452 48.8496 31.406 48.1419 31.406 47.4362C31.402 46.7146 31.422 45.9969 31.41 45.2773C31.384 43.7682 31.4 42.2551 31.388 40.7401C31.384 39.9985 31.368 39.2609 31.364 38.5193C31.356 37.8216 31.462 37.1219 31.482 36.4241C31.502 35.7922 31.486 35.1603 31.51 34.5283C31.534 33.8485 31.576 33.1747 31.624 32.4989C31.712 31.1733 31.766 29.8476 31.808 28.5219C32.47 28.5359 33.132 28.5678 33.794 28.5797C34.154 28.5877 34.5141 28.5877 34.8701 28.5877C35.1721 28.5877 35.4721 28.5877 35.7741 28.5877C35.9261 28.5877 36.0641 28.5398 36.2041 28.5C36.2121 28.5 36.2201 28.504 36.2301 28.504C37.0361 28.504 37.9021 27.7783 37.8241 26.9151C37.7721 26.3729 37.7761 25.8267 37.7601 25.2845C37.7401 24.6246 37.7201 23.9588 37.7241 23.295C37.7261 22.9262 37.7221 22.5574 37.7221 22.1866C38.9021 22.1985 40.0841 22.2025 41.2661 22.1985C43.0041 22.1906 44.7461 22.1826 46.4841 22.2304C47.9881 22.2723 49.4861 22.3361 50.9901 22.36C51.8121 22.3759 52.6381 22.372 53.4641 22.368C54.1681 22.364 54.8781 22.364 55.5861 22.368C56.7762 22.3799 57.9542 22.368 59.1442 22.3141C59.7822 22.2823 60.4242 22.2603 61.0662 22.2364C61.6542 22.2105 62.2482 22.1766 62.8362 22.2065C62.8662 23.3428 62.8762 24.4791 62.8782 25.6154C62.6142 25.9064 62.4402 26.2812 62.4402 26.6979C62.4402 27.581 63.1842 28.3485 64.0802 28.3325C65.6162 28.3066 67.1562 28.2548 68.6962 28.2508C68.7042 29.9393 68.7302 31.6238 68.7382 33.3083C68.7462 34.1197 68.7502 34.931 68.7462 35.7384C68.7422 36.5278 68.6842 37.3112 68.6562 38.0947C68.6022 39.5161 68.5862 40.9354 68.5902 42.3568C68.5942 43.1442 68.5942 43.9336 68.6142 44.7171C68.6382 45.4826 68.7042 46.2461 68.7362 47.0076C68.8322 49.2344 68.9722 51.4571 69.0002 53.6839C67.5442 53.636 66.0922 53.5483 64.6362 53.4686C64.6122 53.4686 64.5882 53.4666 64.5642 53.4666C63.6582 53.4666 62.9142 54.3118 62.9142 55.185C62.9142 55.2009 62.9222 55.2109 62.9222 55.2268C62.5862 55.5318 62.3662 55.9584 62.3702 56.4389C62.3742 57.4914 62.3962 58.542 62.4182 59.5946C61.3602 59.6364 60.3042 59.6364 59.2462 59.6265ZM72.2902 62.5031C72.2362 62.5131 72.1842 62.521 72.1302 62.529C71.7302 62.5649 71.3262 62.5609 70.9242 62.5609C70.3322 62.5649 69.7382 62.5729 69.1462 62.5769C67.9782 62.5908 66.8082 62.5908 65.6402 62.5968C65.6102 61.8552 65.6082 61.1136 65.6262 60.374C65.6542 59.2278 65.6702 58.0815 65.6802 56.9333C66.8342 56.9751 67.9862 57.017 69.1402 57.021C69.8022 57.021 70.4682 57.0289 71.1322 57.001C71.5902 56.9811 72.0462 56.8994 72.5002 56.8117C72.5022 57.7606 72.5282 58.7075 72.6062 59.6544C72.6642 60.376 72.7442 61.0937 72.8022 61.8153C72.8182 62.0306 72.8322 62.2499 72.8442 62.4672C72.8182 62.4672 72.7922 62.4572 72.7642 62.4572C72.6142 62.4592 72.4562 62.4772 72.2902 62.5031Z" fill="white"/>
</svg>
