<svg width="80" height="80" viewBox="0 0 80 80" fill="none" xmlns="http://www.w3.org/2000/svg">
<circle cx="55" cy="55" r="19" fill="#326CF6"/>
<path d="M43.0256 13.31L18.1198 15.7369C18.071 15.3573 17.8823 15.0096 17.5907 14.7617C17.2992 14.5137 16.9256 14.3835 16.5431 14.3963C16.1134 14.4022 15.703 14.5755 15.3992 14.8794C15.0953 15.1833 14.922 15.5937 14.916 16.0234C14.916 16.61 15.2369 17.0661 15.6631 17.3525L5.24292 39.9575L5.13521 40.0584C4.99771 40.1959 5 40.1959 5 40.3334C5 40.3334 5 40.4663 5.13521 40.4663L19.6598 61.0317C19.4112 61.318 19.2695 61.6816 19.2588 62.0607C19.2588 63.0117 20.0723 63.6877 20.8858 63.6877C21.0926 63.6954 21.2988 63.6618 21.4924 63.5889C21.686 63.516 21.8632 63.4053 22.0136 63.2633C22.164 63.1212 22.2845 62.9506 22.3683 62.7614C22.4521 62.5723 22.4973 62.3683 22.5015 62.1615L46.9306 59.7782L47.2331 59.8882C47.2817 59.8463 47.3221 59.7958 47.3523 59.7392C47.4371 59.73 47.5081 59.7071 47.5081 59.6155L57.9352 36.9829C58.0773 37.0242 58.2217 37.0723 58.3706 37.0723C59.1865 37.0723 60 36.2588 60 35.4452C59.9959 35.0144 59.8233 34.6022 59.5193 34.2969C59.2152 33.9915 58.8038 33.8172 58.3729 33.8113C58.1659 33.8128 57.9611 33.8549 57.7702 33.935L43.2938 13.4452C43.1563 13.3077 43.1563 13.3077 43.0233 13.3077L43.0256 13.31ZM41.8294 13.9517L30.481 20.1644L18.0281 16.5023C18.0718 16.3907 18.1063 16.2758 18.1313 16.1586L41.8294 13.9517ZM42.7552 13.9884L45.8719 27.5252L38.7333 23.0954C38.9073 22.8481 39.0276 22.5671 39.0863 22.2704C39.0803 21.8408 38.907 21.4303 38.6031 21.1265C38.2993 20.8226 37.8889 20.6493 37.4592 20.6434C37.119 20.6472 36.7885 20.7576 36.5144 20.9591C36.2402 21.1605 36.036 21.4428 35.9306 21.7663L31.1869 20.3729L42.7552 13.9884ZM43.3785 14.5475L57.2706 34.2719C57.2019 34.3361 57.1515 34.4094 57.0965 34.485L46.3806 27.8392L43.3785 14.5475ZM17.9548 16.7109L30.19 20.3248L21.8392 24.8967L17.54 17.2448C17.7093 17.0938 17.8514 16.9128 17.9548 16.7109ZM17.084 17.5427L21.3121 25.0709L21.3396 25.2061L16.5431 29.5992V17.6527C16.7288 17.6515 16.9125 17.6141 17.084 17.5427ZM16.0985 17.5657C16.1994 17.5977 16.3048 17.6184 16.4079 17.6275V29.7275L6.28563 39.0042L16.0985 17.5657ZM30.8935 20.5334L35.8802 22.0069C35.8619 22.0963 35.8252 22.1811 35.8252 22.2704C35.8252 22.6509 35.9788 22.9671 36.1873 23.2329L30.3894 28.2471L22.2219 25.3184L30.8935 20.5334ZM36.2537 23.3292C36.4034 23.5031 36.5877 23.6439 36.7949 23.7425C37.0021 23.8412 37.2275 23.8955 37.4569 23.9021C37.5073 23.9021 37.5554 23.8907 37.6058 23.8838L39.0381 31.3477L30.5063 28.2907L36.2537 23.3292ZM38.5431 23.3704L45.9796 27.9927L47.4463 34.3613L39.2008 31.405L37.78 23.854C38.0749 23.7681 38.3395 23.6004 38.5431 23.3704ZM21.9744 25.6667L30.0571 28.5336L23.6335 34.0886L21.9744 25.6667ZM21.4702 25.8684L23.1844 34.4759L17.7302 39.1875C17.5758 39.0302 17.3908 38.9062 17.1867 38.823C16.9825 38.7398 16.7635 38.6993 16.5431 38.704V30.3807L21.4702 25.8684ZM46.486 28.309L56.9017 34.7852C56.8673 34.8609 56.8513 34.9365 56.8283 35.0144L47.8519 34.3613L46.486 28.309ZM30.174 28.5771L39.116 31.7488L40.7362 40.205L33.6848 46.255L25.4715 43.4179L23.6542 34.1986L30.174 28.5771ZM16.4079 30.5021V38.7177C16.0037 38.756 15.6278 38.942 15.3522 39.2401C15.0765 39.5382 14.9204 39.9274 14.9138 40.3334C14.9191 40.7638 15.0925 41.1752 15.3969 41.4796C15.7013 41.784 16.1127 41.9574 16.5431 41.9627C16.6119 41.9627 16.6715 41.9329 16.7379 41.9238L17.6706 46.844L5.81354 40.1982L16.4079 30.5021ZM39.2788 31.8038L47.2331 34.6294L40.8394 40.1157L39.2788 31.8038ZM23.205 34.5859L24.9283 43.23L18.019 40.8444C18.0908 40.681 18.1424 40.5093 18.1725 40.3334C18.1757 39.9421 18.0373 39.5628 17.7829 39.2654L23.205 34.5859ZM47.9092 34.9067L56.7504 35.5552C56.7747 35.8195 56.8671 36.0729 57.0185 36.2909L47.696 44.6417L47.9092 34.9067ZM47.4944 35.2229L47.2767 45.0152L43.6879 48.2304C43.3934 47.9639 43.0126 47.8125 42.6154 47.8042C42.5008 47.8042 42.4023 47.8432 42.2946 47.8615L40.9746 40.8307L47.4944 35.2229ZM57.2867 36.6392C57.3463 36.6942 57.4219 36.724 57.4883 36.7698L47.389 58.7148L47.6869 45.1023L57.2867 36.6392ZM40.8738 40.9154L42.2075 47.8775C41.958 47.928 41.7255 48.0411 41.5318 48.2063C41.3382 48.3715 41.1898 48.5833 41.1006 48.8217L34.3815 46.4979L40.8738 40.9154ZM17.9388 41.0415L24.9742 43.4752L26.6471 51.8719L17.8517 46.9448L16.8731 41.894C17.1017 41.8371 17.3153 41.7315 17.4992 41.5843C17.6831 41.4372 17.8331 41.252 17.9388 41.0415ZM6.19854 41.069L17.8173 47.6002L20.2808 60.555C20.2121 60.5848 20.1571 60.633 20.0952 60.6696L6.19854 41.069ZM25.5173 43.6632L33.4969 46.4177L27.1375 51.8765L25.5173 43.6632ZM47.2675 45.469L46.9627 59.2121L33.9713 54.5829L41.3 50.3319C41.4453 50.5498 41.6404 50.7299 41.8692 50.8574C42.0979 50.9849 42.3537 51.0562 42.6154 51.0652C43.0467 51.0593 43.4586 50.8852 43.7634 50.58C44.0682 50.2748 44.2418 49.8626 44.2471 49.4313C44.2401 49.0727 44.1089 48.7277 43.8758 48.455L47.2675 45.469ZM34.1958 46.6584L41.0617 49.0302C41.0319 49.1632 40.9883 49.2869 40.9883 49.4313C40.9883 49.6834 41.0525 49.9125 41.151 50.1211L33.6458 54.4661L27.6119 52.3188L34.1958 46.6584ZM17.996 47.7034L26.6723 52.5846L21.6008 60.5894C21.2502 60.4179 20.8484 60.3828 20.4733 60.4909L17.996 47.7034ZM27.126 52.784L32.9767 54.8534L22.1921 61.0936C22.1348 61.0134 22.0844 60.9263 22.0088 60.8575L27.126 52.784ZM33.3067 54.9702L45.9865 59.4505L22.4419 61.6436C22.4167 61.5359 22.3915 61.4282 22.3456 61.3296L33.3067 54.9702Z" fill="white"/>
</svg>
