<svg width="80" height="80" viewBox="0 0 80 80" fill="none" xmlns="http://www.w3.org/2000/svg">
<circle cx="54" cy="25" r="19" fill="#326CF6"/>
<g clip-path="url(#clip0_938_20)">
<path d="M65.9416 38.9022H54.7989L57.5503 25.3147H43.2635V14H39.7377V25.3147H25.451L28.2024 38.9022H17.0596L20.5248 56.0155H34.8541V71H38.3799V56.0155H44.6211V71H48.1469V56.0155H62.4762L65.9416 38.9022ZM43.2635 42.428H50.6929L49.6741 52.4897H43.2635V42.428ZM39.7377 52.4897H33.327L32.3083 42.428H39.7377V52.4897ZM29.7622 28.8404H53.2389L51.2016 38.9022H31.7995L29.7622 28.8404ZM21.3709 42.428H28.7645L29.7833 52.4897H23.4083L21.3709 42.428ZM59.5929 52.4897H53.218L54.2367 42.428H61.6304L59.5929 52.4897Z" fill="white"/>
</g>
<defs>
<clipPath id="clip0_938_20">
<rect width="57" height="57" fill="white" transform="translate(13 14)"/>
</clipPath>
</defs>
</svg>
