<svg width="80" height="80" viewBox="0 0 80 80" fill="none" xmlns="http://www.w3.org/2000/svg">
<circle cx="55" cy="24" r="19" fill="#0085FF" fill-opacity="0.46"/>
<path d="M36.8514 16C33.6523 16 28.3115 20.1607 21.661 25.6008C20.3402 26.6809 19.115 27.6831 18.0732 28.4894C11.0124 33.9542 8 37.358 8 39.8706C8 42.3726 17.6032 67.0759 21.4176 68.7633C23.4265 69.6515 29.7141 70 36.3003 70C42.3552 70 48.6624 69.7055 52.1195 69.265C52.7208 69.1887 53.6291 69.0725 59.96 55.4901C62.8198 49.3537 66.1879 41.6299 65.9918 39.6806C65.6126 35.9183 41.1019 16 36.8514 16ZM63.1102 38.9337L54.8801 40.3843C50.814 36.5246 42.9213 29.9766 38.0054 26.6701V18.6708C43.0904 21.0522 59.727 34.4912 63.1102 38.9337ZM38.0054 29.4713C42.3285 32.5406 48.2287 37.4121 52.041 40.8848L38.0054 43.3587V29.4713ZM35.6973 43.3381L21.4247 40.6068C22.4643 39.6983 23.7131 38.6789 25.1547 37.5629C26.2676 36.7027 27.576 35.6337 28.9859 34.4807C30.5851 33.1724 33.393 30.8764 35.6972 29.1838L35.6973 43.3381ZM34.9512 45.5359L27.2657 57.3396C25.3008 53.4805 22.6518 47.2934 20.9495 42.8564L34.9512 45.5359ZM36.848 46.8471L44.2724 58.3341C41.7727 58.4435 39.0436 58.5055 36.4039 58.5055C33.3081 58.5055 31.0053 58.4289 29.3619 58.3441L36.848 46.8471ZM38.7605 45.5602L52.8665 43.0738C51.1448 47.1839 48.4719 52.9733 46.3222 57.2597L38.7605 45.5602ZM19.4899 30.3042C20.5458 29.4867 21.7873 28.4716 23.1262 27.3768C26.9971 24.2104 32.6008 19.6271 35.6974 18.5377V26.4484C35.5724 26.5054 35.4435 26.55 35.3272 26.6304C32.8044 28.3828 29.4972 31.088 27.5209 32.7045C26.129 33.8436 24.8375 34.8979 23.7388 35.748C21.7518 37.286 20.1109 38.6546 18.8622 39.8139C18.7781 39.8919 18.7223 39.9884 18.6522 40.076L10.783 38.57C11.6338 37.1418 13.8886 34.6394 19.4899 30.3042ZM10.4806 40.8527L18.3005 42.3494C20.0921 47.217 23.4776 55.1652 25.699 59.3253C25.7385 59.3991 25.7953 59.4582 25.8418 59.5262L21.6554 65.9557C18.7563 62.2119 11.6608 45.6499 10.4806 40.8527ZM23.7122 67.0208L27.9234 60.5533C29.5956 60.6733 32.3361 60.804 36.4038 60.804C39.5543 60.804 42.847 60.7196 45.7159 60.5677L49.9917 67.183C42.3098 67.8925 28.5464 67.8858 23.7122 67.0208ZM52.0467 66.1164L47.7529 59.4732C47.7868 59.4186 47.8314 59.3739 47.8612 59.3159C50.2887 54.5806 53.6151 47.3747 55.4346 42.9098C55.4747 42.8115 55.4817 42.7091 55.5075 42.6084L63.4286 41.2122C61.9557 46.162 54.7018 61.6698 52.0467 66.1164Z" fill="black"/>
</svg>
