<svg width="80" height="80" viewBox="0 0 80 80" fill="none" xmlns="http://www.w3.org/2000/svg">
<g clip-path="url(#clip0_901_9851)">
<circle cx="59.5232" cy="26.4772" r="20.3606" transform="rotate(-0.329326 59.5232 26.4772)" fill="#0085FF" fill-opacity="0.46"/>
<path d="M44.7599 21.6112C44.5768 21.6099 44.3937 21.6109 44.2107 21.6149C40.6925 21.6895 37.1606 22.7247 34.0396 24.7878C32.5276 25.7553 34.037 27.9861 35.5189 26.9741C42.6998 22.2272 52.3395 23.7806 57.6221 30.5357C62.9048 37.2911 61.9978 46.9046 55.5421 52.5787C49.0863 58.2528 39.3217 58.0196 33.1526 52.0432C31.8854 50.7884 29.9951 52.6948 31.2898 53.9221C37.5234 59.961 46.9777 60.9404 54.2573 56.7343L68.6616 72.7527C69.1721 73.3203 70.0615 73.3439 70.6021 72.8036L77.6574 65.7487C78.1908 65.2154 78.1659 64.3501 77.6028 63.8475L61.4159 49.411C64.8971 43.0248 64.4529 34.9695 59.7276 28.927C56.0204 24.1864 50.4364 21.652 44.7599 21.6112ZM43.8896 29.2634C43.1552 29.2784 42.5719 29.8786 42.5864 30.6045L42.6583 43.0987L40.6626 43.1102L40.6525 41.3568C40.6589 40.6155 40.0444 40.0156 39.2947 40.031C38.5603 40.046 37.977 40.6462 37.9916 41.3721L38.0016 43.1255L36.0059 43.137L35.9518 33.7119C35.9581 32.9706 35.3437 32.3707 34.5939 32.386C33.8596 32.4011 33.2763 33.0013 33.2908 33.7272L33.345 43.1523L31.3493 43.1637L31.3216 38.3418C31.328 37.6005 30.7136 37.0006 29.9638 37.0159C29.2294 37.0309 28.6461 37.6311 28.6607 38.3571L28.6884 43.179L26.6927 43.1905L26.6914 42.9716C26.6978 42.2304 26.0834 41.6305 25.3336 41.6458C24.5992 41.6608 24.0159 42.261 24.0305 42.9869L24.0317 43.2058L17.3794 43.244L17.3429 36.8875C17.3493 36.1462 16.7348 35.5463 15.985 35.5617C15.2507 35.5767 14.6674 36.1769 14.6819 36.9028L14.7185 43.2593L8.06614 43.2976L8.00315 32.3379C8.00953 31.5966 7.39511 30.9967 6.64533 31.0121C5.91097 31.0271 5.32767 31.6273 5.34222 32.3532L5.40521 43.3129L3.40951 43.3243L3.36416 35.4333C3.37054 34.692 2.75612 34.0921 2.00633 34.1074C1.27198 34.1224 0.688672 34.7226 0.703223 35.4486L0.756139 44.6548C0.760314 45.381 1.35948 45.9665 2.09416 45.9623L10.077 45.9164L10.0959 49.2044C10.0805 50.9832 12.7926 50.9676 12.7568 49.1891L12.7379 45.9011L19.3902 45.8629L19.4091 49.1509C19.3938 50.9296 22.1058 50.9141 22.0701 49.1356L22.0512 45.8476L48.6605 45.6947C49.3952 45.6904 49.9876 45.0981 49.9834 44.3718L49.9569 39.7687C49.9723 37.9899 47.2602 38.0055 47.296 39.784L47.3149 43.072L45.3192 43.0834L45.2474 30.5892C45.2538 29.8479 44.6393 29.2481 43.8896 29.2634ZM57.999 39.7133C57.6321 39.7209 57.3408 40.0212 57.348 40.3838C57.3879 47.3298 51.7378 52.9796 44.7111 53.02C43.8113 53.0125 43.819 54.353 44.7186 54.3352C52.4643 54.2907 58.7225 48.0332 58.6785 40.3762C58.6816 40.0056 58.3742 39.7053 57.999 39.7133ZM59.969 51.6639L71.6747 62.1034L66.7557 66.6744L56.4711 55.2367C56.7554 55.0141 57.0361 54.7852 57.3102 54.5445C58.3139 53.662 59.1982 52.6937 59.969 51.6639ZM72.666 62.9876L74.786 64.8783L69.7073 69.9566L67.6401 67.6576L72.666 62.9876Z" fill="black"/>
</g>
<defs>
<clipPath id="clip0_901_9851">
<rect width="80" height="80" fill="white"/>
</clipPath>
</defs>
</svg>
