<svg width="80" height="80" viewBox="0 0 80 80" fill="none" xmlns="http://www.w3.org/2000/svg">
<circle cx="19.5" cy="35.5" r="19.5" fill="#0085FF" fill-opacity="0.46"/>
<path d="M79.9657 65.3503C79.9149 64.4924 79.8203 63.6437 79.758 62.7904C79.6264 60.8809 79.7003 58.9806 79.7995 57.0711C79.8526 56.0379 78.8949 55.1754 77.9026 55.1754C77.3833 55.1754 76.9357 55.3852 76.601 55.715C76.4003 55.6412 76.1926 55.5905 75.9687 55.6066C75.768 55.6228 75.5695 55.6435 75.371 55.6666C75.3203 55.067 75.2972 54.465 75.2741 53.87C75.2418 53.0836 75.2118 52.3041 75.1887 51.5223C75.131 49.7535 75.0341 47.9777 74.958 46.2088C74.8818 44.4446 74.9395 42.6688 74.958 40.8999C74.9672 40.0513 74.9626 39.2072 75.0041 38.3585C75.0456 37.4914 75.108 36.6242 75.1356 35.7525C75.1887 34.1958 75.1887 32.6299 75.2256 31.0709C75.2672 29.5234 75.288 27.976 75.2926 26.4239C75.5487 26.4562 75.8026 26.4908 76.061 26.5138C76.481 26.5554 76.9103 26.5646 77.3349 26.5761C77.5241 26.5807 77.6995 26.5254 77.8726 26.4723C77.891 26.4723 77.9072 26.4839 77.928 26.4839C78.8949 26.4839 79.7164 25.6721 79.7118 24.7012C79.7026 23.0038 79.7303 21.3018 79.7649 19.5998C79.8064 17.7134 79.9818 15.8338 79.9957 13.9473C79.998 13.4192 79.7649 12.9395 79.4049 12.5936C79.1949 11.9986 78.7472 11.4889 78.1057 11.3275C77.5957 11.2006 77.0487 11.2237 76.5249 11.1868C76.068 11.1591 75.6087 11.1338 75.1518 11.1107C74.4341 11.0784 73.7233 11.0161 73.0056 11.0115C72.1379 11.0046 71.2725 11 70.4049 11C68.9302 11 67.4579 11.0138 65.9833 11.0577C64.8456 11.0899 63.8925 11.9824 63.8925 13.1425C63.8925 13.7167 64.1579 14.261 64.5641 14.6553C64.5941 15.105 64.6217 15.5571 64.6494 16.0068C63.9387 16.0506 63.2256 16.0437 62.5171 16.0552C61.6771 16.0644 60.8417 16.1175 60.0063 16.1221C58.4394 16.1267 56.8748 16.1405 55.3125 16.1313C53.494 16.1198 51.6778 16.1244 49.8617 16.1013C48.1171 16.0783 46.3747 15.9975 44.6301 15.9653C43.0493 15.9376 41.4686 15.956 39.8878 15.9145C38.5355 15.8822 37.1832 15.8407 35.8308 15.8015C35.8308 15.3518 35.8262 14.9021 35.8285 14.4501C35.8308 14.0211 35.6578 13.636 35.4108 13.3108C35.4108 13.2901 35.4224 13.2739 35.4224 13.2532C35.4224 12.7435 35.2193 12.2454 34.857 11.8856C34.4693 11.5004 34.017 11.3644 33.4885 11.3206C31.7854 11.1707 30.0777 11.3344 28.37 11.3344C26.2262 11.339 24.0846 11.2744 21.9431 11.2468C21.9362 11.2468 21.9269 11.2468 21.92 11.2468C20.8677 11.2468 20 12.1485 20 13.1886C20 13.7559 20.2654 14.261 20.6646 14.6184C20.6992 15.451 20.7431 16.2835 20.7615 17.1161C20.7777 18.0063 20.7731 18.8918 20.7638 19.7797C20.7546 20.6653 20.7592 21.5578 20.7638 22.4434C20.7685 23.2875 20.75 24.1315 20.8446 24.971C20.9 25.4784 21.0085 25.8981 21.3846 26.2717C21.7285 26.6153 22.2015 26.809 22.6908 26.809C22.8523 26.809 23.0069 26.7583 23.1616 26.7145C23.9116 26.7099 24.6616 26.6891 25.4093 26.6707C25.3885 28.4487 25.4 30.2268 25.3423 32.0049C25.2823 33.7138 25.2269 35.4273 25.0769 37.1293C25.0054 37.9595 24.8969 38.7875 24.9016 39.6223C24.9062 40.4941 24.92 41.3612 24.92 42.2306C24.9246 43.9741 24.9016 45.7153 24.9154 47.4588C24.9293 48.9209 25.0008 50.3831 25.0769 51.8429C25.1393 52.9637 25.1739 54.0822 25.2523 55.1961C24.7469 55.1892 24.2393 55.1777 23.7339 55.1754C23.0323 55.1731 22.4346 55.5743 22.0815 56.1394C21.5554 56.4761 21.1769 57.0388 21.1862 57.6937C21.2 58.7177 21.2531 59.7439 21.2485 60.7633C21.2439 61.5843 21.2346 62.4053 21.2208 63.2286C21.2023 64.0197 21.2023 64.8084 21.1931 65.5994C21.1931 65.943 21.2069 66.2867 21.2346 66.628C21.2762 67.1699 21.3246 67.675 21.6015 68.1547C21.6131 68.1777 21.6362 68.1916 21.65 68.2123C21.9385 68.9042 22.6239 69.4069 23.4131 69.4C25.5316 69.377 27.6454 69.3585 29.7639 69.3816C30.3962 69.3908 31.0193 69.4392 31.6516 69.4346C32.2354 69.43 32.8401 69.4208 33.417 69.4807C33.3708 69.4738 33.3247 69.4692 33.2808 69.4623C33.6708 69.4946 34.0331 69.4462 34.4024 69.2317C34.8178 68.9872 35.1247 68.5859 35.2562 68.1224C35.277 68.0463 35.2608 67.9656 35.2724 67.8872C35.8332 67.585 36.2324 67.0108 36.2324 66.3397C36.2324 66.2105 36.2347 66.0837 36.2347 65.9546C39.8532 65.7724 43.4601 65.6548 47.0832 65.7262C48.8855 65.7585 50.6832 65.7816 52.4809 65.8623C54.1309 65.9384 55.774 66.033 57.4286 66.0422C58.8386 66.0514 60.251 66.0906 61.6656 66.0952C62.5887 66.0952 63.5117 66.0883 64.4348 66.0606C64.4741 66.6695 64.5156 67.276 64.601 67.8825C64.6864 68.1847 64.841 68.4522 65.0625 68.6736C65.261 68.8696 65.5033 68.9988 65.7641 69.0864C66.1194 69.6237 66.6964 70.0135 67.3725 69.9996C69.0618 69.9627 70.751 69.859 72.4403 69.8428C72.8187 69.8428 73.1995 69.8474 73.5826 69.8567C74.6441 69.8751 75.7103 69.8982 76.7487 69.6814C77.2149 69.5845 77.5703 69.2732 77.8149 68.8881C78.6849 69.0426 79.7026 68.5329 79.8872 67.6196C80.0418 66.8586 80.0049 66.1137 79.9657 65.3503ZM72.7656 14.9713C73.1533 14.9667 73.5479 15.0289 73.9356 15.052C74.2703 15.0705 74.6049 15.0751 74.9349 15.105C75.3595 15.1419 75.7749 15.1719 76.2018 15.1765C76.1926 16.6248 76.1695 18.0708 76.1557 19.5214C76.1441 20.5938 76.1487 21.6662 76.151 22.7386C75.7772 22.7132 75.401 22.6948 75.0272 22.674C74.1779 22.6256 73.3195 22.6648 72.4702 22.6694C71.4318 22.6786 70.3956 22.6648 69.3572 22.6556C69.0733 22.6509 68.7872 22.6533 68.5033 22.6486C68.4941 21.4794 68.5102 20.3125 68.4848 19.1432C68.4618 17.8102 68.4202 16.4749 68.3741 15.1396C68.8725 15.1212 69.3687 15.1004 69.8649 15.082C70.8318 15.0497 71.7987 14.9805 72.7656 14.9713ZM29.2885 15.0751C29.8977 15.0751 30.5162 15.0751 31.1324 15.0889C31.4024 15.0981 31.6747 15.1097 31.947 15.1235C31.9701 16.0114 32.0047 16.897 32.037 17.7849C32.0739 18.7189 32.0693 19.6575 32.0785 20.5984C32.0878 21.3664 32.1547 22.1344 32.1824 22.9C32.1824 22.9415 32.1847 22.9853 32.187 23.0292C31.0793 23.0176 29.9716 23.0015 28.8685 23.0199C27.3754 23.0453 25.8846 22.9969 24.3916 22.9646C24.3893 22.7155 24.3685 22.4641 24.3685 22.2128C24.3731 21.341 24.3731 20.4693 24.3639 19.5998C24.3477 18.1031 24.3362 16.6064 24.3154 15.1097C25.6654 15.0935 27.0154 15.0751 28.37 15.0751C28.6723 15.0797 28.9816 15.0751 29.2885 15.0751ZM31.7254 65.7655C31.1024 65.7516 30.4747 65.747 29.847 65.7332C28.9747 65.7101 28.107 65.6571 27.237 65.6294C26.4846 65.6086 25.7346 65.6063 24.9846 65.5994C24.9593 64.7323 24.9662 63.8605 24.9593 63.0026C24.9385 61.7088 24.9523 60.4127 24.9569 59.119C26.0531 59.1144 27.1493 59.1097 28.2477 59.1028C28.8223 59.0982 29.39 59.089 29.96 59.0844C30.3985 59.0798 30.8462 59.0659 31.2801 59.1213C31.1185 59.0982 30.9501 59.0751 30.7885 59.0544C31.3885 59.1397 31.9908 59.1766 32.5954 59.1905C32.5931 61.3814 32.5954 63.5723 32.6647 65.7631C32.5816 65.7655 32.4962 65.7585 32.4131 65.7608C32.1754 65.7654 31.9493 65.7747 31.7254 65.7655ZM60.6687 62.6267C59.0163 62.6083 57.3617 62.5691 55.714 62.5275C53.9832 62.4814 52.2594 62.3592 50.5286 62.3108C49.6909 62.2877 48.8578 62.2785 48.0224 62.2785C47.0901 62.2785 46.1601 62.29 45.2255 62.3061C42.2416 62.3615 39.2555 62.3384 36.2716 62.4537C36.3016 61.0562 36.3985 59.6586 36.4193 58.2564C36.4239 57.8736 36.2762 57.5346 36.0732 57.2325C36.0408 56.2293 35.2008 55.3806 34.1831 55.3898C33.5093 55.3944 32.8424 55.3852 32.1685 55.376C31.9977 55.376 31.8247 55.376 31.6585 55.376C31.287 55.3806 30.9177 55.3806 30.5416 55.3575C29.967 55.3253 29.3924 55.3114 28.8177 55.2884C28.6677 53.8562 28.6631 52.4148 28.6216 50.9758C28.5985 50.1594 28.5454 49.3407 28.5454 48.5243C28.5408 47.6894 28.5639 46.8592 28.55 46.0266C28.52 44.2808 28.5385 42.5304 28.5247 40.7777C28.52 39.9198 28.5016 39.0665 28.497 38.2086C28.4877 37.4014 28.61 36.592 28.6331 35.7848C28.6562 35.0537 28.6377 34.3227 28.6654 33.5916C28.6931 32.8052 28.7416 32.0257 28.797 31.2439C28.8985 29.7102 28.9608 28.1766 29.0093 26.643C29.7731 26.6591 30.537 26.696 31.3008 26.7099C31.7162 26.7191 32.1316 26.7191 32.5424 26.7191C32.8908 26.7191 33.237 26.7191 33.5854 26.7191C33.7608 26.7191 33.9201 26.6637 34.0816 26.6176C34.0908 26.6176 34.1001 26.6222 34.1116 26.6222C35.0416 26.6222 36.0408 25.7828 35.9508 24.7842C35.8908 24.1569 35.8955 23.525 35.877 22.8977C35.8539 22.1344 35.8308 21.3641 35.8355 20.5961C35.8378 20.1695 35.8332 19.7428 35.8332 19.3139C37.1947 19.3277 38.5586 19.3323 39.9224 19.3277C41.9278 19.3185 43.9378 19.3093 45.9432 19.3646C47.6786 19.413 49.4071 19.4868 51.1425 19.5145C52.0909 19.533 53.044 19.5283 53.9971 19.5237C54.8094 19.5191 55.6286 19.5191 56.4456 19.5237C57.8186 19.5376 59.1779 19.5237 60.551 19.4615C61.2871 19.4246 62.0279 19.3992 62.7687 19.3715C63.4471 19.3415 64.1325 19.3023 64.811 19.3369C64.8456 20.6515 64.8571 21.966 64.8594 23.2805C64.5548 23.6172 64.3541 24.0508 64.3541 24.5328C64.3541 25.5545 65.2125 26.4423 66.2464 26.4239C68.0187 26.3939 69.7956 26.334 71.5726 26.3293C71.5818 28.2827 71.6118 30.2314 71.621 32.1802C71.6302 33.1188 71.6349 34.0574 71.6302 34.9915C71.6256 35.9047 71.5587 36.811 71.5264 37.7174C71.4641 39.3617 71.4456 41.0037 71.4502 42.6481C71.4549 43.559 71.4549 44.4723 71.4779 45.3786C71.5056 46.2642 71.5818 47.1475 71.6187 48.0284C71.7295 50.6045 71.891 53.1759 71.9233 55.7519C70.2433 55.6966 68.5679 55.5951 66.8879 55.5028C66.8602 55.5028 66.8325 55.5005 66.8048 55.5005C65.7594 55.5005 64.901 56.4784 64.901 57.4885C64.901 57.5069 64.9102 57.5185 64.9102 57.5369C64.5225 57.8898 64.2687 58.3833 64.2733 58.9391C64.2779 60.1568 64.3033 61.3721 64.3287 62.5898C63.1079 62.6382 61.8894 62.6382 60.6687 62.6267ZM75.7195 65.9546C75.6572 65.9661 75.5972 65.9753 75.5349 65.9845C75.0733 66.026 74.6072 66.0214 74.1433 66.0214C73.4603 66.0261 72.7749 66.0353 72.0918 66.0399C70.7441 66.056 69.3941 66.056 68.0464 66.063C68.0118 65.205 68.0095 64.3471 68.0302 63.4915C68.0625 62.1655 68.081 60.8394 68.0925 59.511C69.4241 59.5595 70.7533 59.6079 72.0849 59.6125C72.8487 59.6125 73.6172 59.6217 74.3833 59.5894C74.9118 59.5664 75.438 59.4718 75.9618 59.3703C75.9641 60.4681 75.9941 61.5635 76.0841 62.659C76.151 63.4938 76.2433 64.3241 76.3103 65.1589C76.3287 65.408 76.3449 65.6617 76.3587 65.913C76.3287 65.913 76.2987 65.9015 76.2664 65.9015C76.0933 65.9038 75.911 65.9246 75.7195 65.9546Z" fill="#111918"/>
</svg>
