<svg width="154" height="76" viewBox="0 0 154 76" fill="none" xmlns="http://www.w3.org/2000/svg">
<g clip-path="url(#clip0_809_111)">
<path d="M42.334 13.6187C40.7388 6.61932 36.7324 0.931582 36.1986 -3.05176e-05C33.7495 3.6832 31.8309 7.69197 30.4987 11.9087C28.8711 17.4748 28.387 23.3122 29.0753 29.07C29.5966 32.8509 30.5731 36.5552 31.9835 40.1022C33.1012 42.7766 34.5151 45.3175 36.1986 47.6777C37.941 45.41 41.9598 38.6558 43.2053 29.8238C43.9108 24.9145 43.9415 20.618 42.334 13.6187ZM36.1986 45.9677C34.8205 43.2917 34.0932 40.3289 34.0757 37.3196C34.0734 34.3265 34.8111 31.379 36.2231 28.739C37.5016 31.285 38.2053 34.0801 38.2846 36.9274C38.3702 40.069 37.6522 43.1805 36.1986 45.9677ZM41.8739 25.4967C41.8506 27.9062 41.5937 30.3077 41.1069 32.6677C41.2101 29.248 40.9177 25.8278 40.2357 22.4751C39.5669 19.2819 37.6772 13.9374 36.1679 11.4429C34.769 13.7903 33.0572 18.4116 32.1553 22.42C31.5001 25.8165 31.1877 29.2701 31.2227 32.729C30.6721 29.4289 30.448 26.0826 30.5539 22.7387C30.7222 19.6748 31.2095 16.6368 32.008 13.6738C33.0166 10.2213 34.4055 6.89127 36.1495 3.74481C37.9407 6.83415 39.3558 10.1264 40.3645 13.5513C41.4221 17.4434 41.9301 21.4641 41.8739 25.4967Z" fill="#464646"/>
<path d="M38.8923 49.3084H26.7257V57.4662V57.4294C27.3858 56.6595 28.198 56.0342 29.1114 55.5927C30.0249 55.1512 31.0198 54.9032 32.0338 54.864C33.0477 54.8249 34.0588 54.9956 35.0036 55.3654C35.9484 55.7352 36.8065 56.296 37.524 57.0127C38.2416 57.7295 38.803 58.5867 39.1732 59.5306C39.5433 60.4744 39.7141 61.4846 39.675 62.4971C39.6358 63.5103 39.3875 64.5038 38.9455 65.4164C38.5036 66.329 37.8777 67.1405 37.1069 67.8L37.0701 67.8367L37.0272 67.8796C35.3166 69.5762 33.2137 70.8253 30.9046 71.5166C28.5955 72.208 26.1515 72.3195 23.7888 71.8421C21.426 71.3652 19.2176 70.3129 17.3588 68.78C15.5001 67.2465 14.0483 65.2791 13.1321 63.0518C12.2159 60.8248 11.8635 58.4062 12.1061 56.0104C12.3487 53.6146 13.1788 51.3155 14.5229 49.3166C15.867 47.3177 17.6837 45.6806 19.8122 44.5503C21.9406 43.42 24.3152 42.8312 26.7257 42.8362V23.2233C22.3945 23.2217 18.1308 24.2963 14.3188 26.3505C10.5068 28.4047 7.26615 31.3738 4.88873 34.9906C2.51133 38.6073 1.07186 42.7579 0.699961 47.0686C0.328056 51.3794 1.03541 55.7149 2.7583 59.6846C4.4812 63.6543 7.16553 67.1337 10.5695 69.8091C13.9735 72.4844 17.9902 74.2722 22.2579 75.0108C26.5256 75.7493 30.9102 75.4159 35.0168 74.0406C39.1234 72.6652 42.823 70.2908 45.7825 67.1319V49.3084H38.8923Z" fill="#464646"/>
<path d="M48.875 23.2293H58.8328V26.4654H54.0963V49.3022H48.875V23.2293Z" fill="#464646"/>
<path d="M64.4657 39.508L65.3615 26.4654H65.6499L66.5456 39.508H64.4657ZM58.6924 49.3144H63.8092L64.2939 42.3825H66.7481L67.2328 49.3144H72.3437L69.6134 23.2293H61.4103L58.6924 49.3144Z" fill="#464646"/>
<path d="M79.1969 40.176V45.0792C79.1895 45.1902 79.2048 45.3016 79.2429 45.4063C79.2803 45.511 79.3392 45.6068 79.4159 45.6874C79.4932 45.7682 79.5858 45.832 79.6883 45.875C79.7914 45.918 79.9018 45.9392 80.0129 45.9373C80.1239 45.9357 80.2331 45.9121 80.3344 45.868C80.4356 45.8238 80.5276 45.76 80.6037 45.6801C80.6804 45.6003 80.7405 45.506 80.7798 45.4029C80.8197 45.2997 80.8387 45.1896 80.835 45.0792V39.0237C80.835 38.2024 80.6878 37.3076 78.749 37.3076H76.6261V34.4392H78.8226C80.3135 34.4392 80.835 34.1082 80.835 32.5024V27.3234C80.8387 27.2129 80.8197 27.1029 80.7798 26.9996C80.7405 26.8965 80.6804 26.8022 80.6037 26.7224C80.5276 26.6426 80.4356 26.5787 80.3344 26.5346C80.2331 26.4904 80.1239 26.4669 80.0129 26.4653C79.9018 26.4634 79.7914 26.4845 79.6883 26.5275C79.5858 26.5705 79.4932 26.6344 79.4159 26.7151C79.3392 26.7957 79.2803 26.8915 79.2429 26.9962C79.2048 27.1009 79.1895 27.2123 79.1969 27.3234V31.5708H73.9756V27.8934C73.9756 26.0547 74.2026 23.2353 77.8532 23.2353H82.148C85.8293 23.2353 86.0256 26.0669 86.0256 27.8934V32.0673C86.0256 34.8927 84.05 35.6773 82.4855 35.6037V35.8611C85.9888 35.7876 86.0256 38.4721 86.0256 39.3976V44.6502C86.0256 46.4889 85.8048 49.3082 82.148 49.3082H77.8532C74.1719 49.3082 73.9756 46.4766 73.9756 44.6502V40.176H79.1969Z" fill="#464646"/>
<path d="M88.7988 23.2293H100.886V49.3022H95.6644V26.4654H94.0201V49.3022H88.7988V23.2293Z" fill="#464646"/>
<path d="M109.15 37.5712V26.4654H109.825C110.383 26.4654 110.794 26.9496 110.794 27.7648V36.2657C110.794 37.087 110.383 37.5712 109.825 37.5712H109.15ZM103.935 49.3022H109.15V40.4519H112.132C115.813 40.4519 116.009 37.6202 116.009 35.7938V27.8873C116.009 26.0486 115.788 23.2293 112.132 23.2293H103.935V49.3022Z" fill="#464646"/>
<path d="M125.409 45.0854C125.412 45.1957 125.392 45.3054 125.352 45.4082C125.312 45.5109 125.252 45.6049 125.176 45.6846C125.099 45.7643 125.008 45.8281 124.907 45.8726C124.806 45.917 124.698 45.9411 124.587 45.9435C124.475 45.9454 124.365 45.9242 124.262 45.8813C124.159 45.8382 124.067 45.7744 123.99 45.6937C123.913 45.613 123.854 45.5173 123.816 45.4126C123.778 45.3078 123.763 45.1964 123.771 45.0854V27.3112C123.763 27.2002 123.778 27.0888 123.816 26.984C123.854 26.8794 123.913 26.7836 123.99 26.7029C124.067 26.6223 124.159 26.5584 124.262 26.5154C124.365 26.4724 124.475 26.4512 124.587 26.4532C124.698 26.4555 124.806 26.4796 124.907 26.5241C125.008 26.5684 125.099 26.6324 125.176 26.712C125.252 26.7917 125.312 26.8856 125.352 26.9885C125.392 27.0912 125.412 27.201 125.409 27.3112V45.0854ZM118.55 44.6441C118.55 46.4828 118.771 49.3022 122.427 49.3022H126.753C130.404 49.3022 130.631 46.4706 130.631 44.6441V27.8873C130.631 26.0486 130.404 23.2293 126.753 23.2293H122.427C118.746 23.2293 118.55 26.0609 118.55 27.8873V44.6441Z" fill="#464646"/>
<path d="M146.888 23.2293H153.674V49.3022H148.477V32.9499H148.293L145.606 49.3022H141.427L138.722 32.9499H138.532V49.3022H133.316V23.2293H140.102L143.495 41.5551L146.888 23.2293Z" fill="#464646"/>
<path fill-rule="evenodd" clip-rule="evenodd" d="M48.875 57.3926H153.662V75.3693H48.875V57.3926ZM67.2009 69.6749H65.5014L65.5075 60.9348H62.9061V71.7097H67.8144V73.9652H70.3606V69.6749H69.8023V60.9348H67.2009V69.6749ZM104.781 60.9348V71.7097H102.179V62.9758H100.48V71.7097H97.8782V60.9348H104.781ZM139.594 68.4613V67.4561L136.993 67.4378V68.8597C136.993 69.6748 136.588 69.9752 136.048 69.9752C135.508 69.9752 135.158 69.6442 135.158 68.829V63.4539C135.16 63.3417 135.184 63.2308 135.23 63.1284C135.277 63.0261 135.344 62.9348 135.428 62.86C135.511 62.7846 135.609 62.7282 135.716 62.6933C135.823 62.6583 135.936 62.6461 136.048 62.6571C136.166 62.6504 136.284 62.6669 136.395 62.7061C136.506 62.7448 136.608 62.8054 136.696 62.8839C136.784 62.9629 136.856 63.0579 136.906 63.164C136.957 63.27 136.987 63.3852 136.993 63.5029V64.4774H139.594V63.7419C139.594 62.0565 138.545 60.6774 136.079 60.6774C133.612 60.6774 132.557 62.0442 132.557 63.7419V68.4429C132.557 70.9252 133.674 71.9732 136.079 71.9732C138.484 71.9732 139.594 70.9129 139.594 68.4613Z" fill="#464646"/>
</g>
<defs>
<clipPath id="clip0_809_111">
<rect width="154" height="76" fill="white"/>
</clipPath>
</defs>
</svg>
