<svg width="167" height="166" viewBox="0 0 167 166" fill="none" xmlns="http://www.w3.org/2000/svg">
<path d="M167 5C167 2.23858 164.761 0 162 0H5C2.23858 0 0 2.23858 0 5V160.725C0 163.487 2.23858 165.725 5 165.725H162C164.761 165.725 167 163.487 167 160.725V5Z" fill="white"/>
<g clip-path="url(#clip0_979_81757)">
<path d="M50.2357 52.2603C48.6819 45.4452 44.7795 39.9071 44.2596 39C41.8741 42.5863 40.0053 46.4896 38.7078 50.5953C37.1224 56.0149 36.6509 61.6987 37.3213 67.305C37.8291 70.9864 38.7802 74.5932 40.154 78.0469C41.2426 80.6509 42.6198 83.125 44.2596 85.4231C45.9568 83.215 49.8711 76.6385 51.0843 68.039C51.7715 63.2589 51.8014 59.0755 50.2357 52.2603ZM44.2596 83.7581C42.9173 81.1525 42.2089 78.2677 42.1918 75.3376C42.1896 72.4232 42.9081 69.5533 44.2835 66.9827C45.5287 69.4617 46.2142 72.1833 46.2914 74.9556C46.3747 78.0146 45.6754 81.0442 44.2596 83.7581ZM49.7875 63.8258C49.7647 66.1718 49.5146 68.5102 49.0404 70.8081C49.1409 67.4784 48.8561 64.1482 48.1918 60.8837C47.5404 57.7745 45.6998 52.5706 44.2297 50.1418C42.8671 52.4274 41.1998 56.9271 40.3213 60.83C39.6831 64.1371 39.3788 67.4999 39.4129 70.8677C38.8766 67.6545 38.6584 64.3963 38.7616 61.1403C38.9254 58.1571 39.4001 55.199 40.1779 52.314C41.1602 48.9523 42.5131 45.71 44.2118 42.6463C45.9564 45.6543 47.3347 48.8599 48.3173 52.1947C49.3474 55.9844 49.8423 59.8993 49.7875 63.8258Z" fill="#0070BA"/>
<path d="M46.8822 87.0109H35.0316V94.954V94.9182C35.6745 94.1685 36.4656 93.5597 37.3554 93.1298C38.2451 92.6999 39.2141 92.4584 40.2018 92.4203C41.1894 92.3822 42.1742 92.5484 43.0945 92.9085C44.0148 93.2685 44.8506 93.8146 45.5494 94.5125C46.2483 95.2104 46.7952 96.045 47.1557 96.964C47.5163 97.883 47.6826 98.8666 47.6445 99.8525C47.6064 100.839 47.3645 101.806 46.934 102.695C46.5036 103.584 45.8939 104.374 45.1432 105.016L45.1073 105.052L45.0655 105.093C43.3993 106.745 41.351 107.961 39.1019 108.635C36.8528 109.308 34.4722 109.416 32.1709 108.952C29.8696 108.487 27.7185 107.463 25.908 105.97C24.0975 104.477 22.6834 102.561 21.7911 100.393C20.8987 98.2242 20.5554 95.8692 20.7917 93.5365C21.028 91.2038 21.8365 88.9651 23.1458 87.0188C24.4549 85.0725 26.2245 83.4785 28.2976 82.378C30.3708 81.2774 32.6837 80.7041 35.0316 80.709V61.6122C30.8128 61.6106 26.6599 62.657 22.9469 64.6572C19.2339 66.6573 16.0775 69.5483 13.7618 73.0698C11.4462 76.5913 10.0441 80.6328 9.68183 84.83C9.31959 89.0274 10.0086 93.2488 11.6867 97.114C13.3649 100.979 15.9795 104.367 19.295 106.972C22.6106 109.577 26.523 111.318 30.6798 112.037C34.8367 112.756 39.1074 112.431 43.1073 111.092C47.1073 109.753 50.7108 107.441 53.5934 104.365V87.0109H46.8822Z" fill="#0070BA"/>
<path d="M56.6055 61.6179H66.3047V64.7689H61.6911V87.0047H56.6055V61.6179Z" fill="#0070BA"/>
<path d="M71.7914 77.4682L72.6639 64.7689H72.9447L73.8172 77.4682H71.7914ZM66.168 87.0166H71.1519L71.624 80.2671H74.0145L74.4866 87.0166H79.4647L76.8053 61.6179H68.8153L66.168 87.0166Z" fill="#0070BA"/>
<path d="M86.1403 78.1186V82.8928C86.1332 83.0009 86.1481 83.1094 86.1852 83.2113C86.2216 83.3133 86.279 83.4065 86.3537 83.4851C86.429 83.5636 86.5192 83.6258 86.619 83.6677C86.7194 83.7096 86.827 83.7302 86.9352 83.7283C87.0433 83.7267 87.1497 83.7038 87.2483 83.6609C87.3469 83.6178 87.4366 83.5557 87.5107 83.4779C87.5854 83.4002 87.6439 83.3084 87.6822 83.208C87.721 83.1075 87.7395 83.0004 87.736 82.8928V76.9967C87.736 76.197 87.5925 75.3257 85.7041 75.3257H83.6364V72.5328H85.7758C87.228 72.5328 87.736 72.2106 87.736 70.647V65.6043C87.7395 65.4967 87.721 65.3895 87.6822 65.289C87.6439 65.1886 87.5854 65.0968 87.5107 65.0191C87.4366 64.9414 87.3469 64.8792 87.2483 64.8362C87.1497 64.7932 87.0433 64.7703 86.9352 64.7688C86.827 64.7669 86.7194 64.7875 86.619 64.8294C86.5192 64.8712 86.429 64.9334 86.3537 65.012C86.279 65.0905 86.2216 65.1837 86.1852 65.2857C86.1481 65.3876 86.1332 65.4961 86.1403 65.6043V69.7399H81.0547V66.1593C81.0547 64.3689 81.2758 61.6238 84.8316 61.6238H89.0148C92.6005 61.6238 92.7917 64.3809 92.7917 66.1593V70.2233C92.7917 72.9744 90.8674 73.7383 89.3435 73.6667V73.9173C92.7559 73.8457 92.7917 76.4596 92.7917 77.3607V82.4751C92.7917 84.2654 92.5766 87.0106 89.0148 87.0106H84.8316C81.2459 87.0106 81.0547 84.2535 81.0547 82.4751V78.1186H86.1403Z" fill="#0070BA"/>
<path d="M95.4922 61.6179H107.265V87.0047H102.179V64.7689H100.578V87.0047H95.4922V61.6179Z" fill="#0070BA"/>
<path d="M115.314 75.5824V64.7689H115.971C116.515 64.7689 116.916 65.2403 116.916 66.034V74.3113C116.916 75.111 116.515 75.5824 115.971 75.5824H115.314ZM110.234 87.0047H115.314V78.3873H118.218C121.804 78.3873 121.995 75.6302 121.995 73.8518V66.1534C121.995 64.3631 121.78 61.6179 118.218 61.6179H110.234V87.0047Z" fill="#0070BA"/>
<path d="M131.152 82.8989C131.154 83.0062 131.135 83.1131 131.096 83.2131C131.058 83.3132 130.999 83.4047 130.925 83.4823C130.85 83.5599 130.761 83.6221 130.663 83.6653C130.565 83.7086 130.459 83.732 130.351 83.7344C130.242 83.7363 130.135 83.7156 130.034 83.6738C129.935 83.6319 129.844 83.5697 129.77 83.4912C129.695 83.4126 129.637 83.3194 129.601 83.2174C129.564 83.1155 129.549 83.007 129.556 82.8989V65.5924C129.549 65.4843 129.564 65.3759 129.601 65.2739C129.637 65.1719 129.695 65.0787 129.77 65.0001C129.844 64.9216 129.935 64.8594 130.034 64.8175C130.135 64.7757 130.242 64.755 130.351 64.757C130.459 64.7593 130.565 64.7827 130.663 64.826C130.761 64.8692 130.85 64.9315 130.925 65.009C130.999 65.0866 131.058 65.178 131.096 65.2782C131.135 65.3783 131.154 65.4851 131.152 65.5924V82.8989ZM124.471 82.4692C124.471 84.2595 124.686 87.0047 128.248 87.0047H132.461C136.017 87.0047 136.238 84.2476 136.238 82.4692V66.1534C136.238 64.3631 136.017 61.6179 132.461 61.6179H128.248C124.662 61.6179 124.471 64.375 124.471 66.1534V82.4692Z" fill="#0070BA"/>
<path d="M152.073 61.6179H158.682V87.0047H153.62V71.0828H153.441L150.824 87.0047H146.754L144.118 71.0828H143.933V87.0047H138.854V61.6179H145.463L148.768 79.4615L152.073 61.6179Z" fill="#0070BA"/>
<path fill-rule="evenodd" clip-rule="evenodd" d="M56.6055 94.8823H158.671V112.386H56.6055V94.8823ZM74.4553 106.841H72.8L72.8059 98.3313H70.2721V108.823H75.053V111.019H77.533V106.841H76.9892V98.3313H74.4553V106.841ZM111.059 98.3313V108.823H108.525V100.319H106.87V108.823H104.336V98.3313H111.059ZM144.968 105.66V104.681L142.435 104.663V106.048C142.435 106.841 142.04 107.134 141.514 107.134C140.988 107.134 140.648 106.811 140.648 106.018V100.784C140.649 100.675 140.673 100.567 140.718 100.467C140.763 100.368 140.828 100.279 140.91 100.206C140.991 100.132 141.087 100.077 141.191 100.043C141.295 100.009 141.406 99.9975 141.514 100.008C141.629 100.002 141.744 100.018 141.852 100.056C141.96 100.094 142.06 100.153 142.145 100.229C142.231 100.306 142.301 100.399 142.35 100.502C142.4 100.605 142.429 100.717 142.435 100.832V101.781H144.968V101.065C144.968 99.4234 143.947 98.0807 141.544 98.0807C139.142 98.0807 138.114 99.4115 138.114 101.065V105.642C138.114 108.059 139.202 109.079 141.544 109.079C143.887 109.079 144.968 108.047 144.968 105.66Z" fill="#0070BA"/>
</g>
<defs>
<clipPath id="clip0_979_81757">
<rect width="150" height="74" fill="white" transform="translate(9 39)"/>
</clipPath>
</defs>
</svg>
