<svg width="2127" height="673" viewBox="0 0 2127 673" fill="none" xmlns="http://www.w3.org/2000/svg">
<path d="M546.632 503.149L297.613 563.433C297.613 563.433 360.368 588.983 427.119 574.611C501.864 563.433 546.632 503.149 546.632 503.149Z" fill="white"/>
<path d="M276.432 551.855L262.043 541.874L591.003 414.521L580.211 451.25L276.432 551.855Z" fill="#8895B2"/>
<path d="M244.854 529.099L230.465 516.723L591.002 324.695L594.999 357.431L244.854 529.099Z" fill="#8895B2"/>
<path d="M215.675 499.955L208.48 487.579L559.025 246.047L575.413 273.594L215.675 499.955Z" fill="#8895B2"/>
<path d="M260.039 418.912L196.485 474.006C196.485 474.006 147.326 397.753 180.497 293.555C207.277 336.272 260.039 418.912 260.039 418.912Z" fill="#8895B2"/>
<path d="M273.634 409.331C271.769 410.529 267.799 413.243 266.839 414.521L192.094 268.404L200.887 254.83L273.634 409.331Z" fill="#8895B2"/>
<path d="M288.026 399.35L280.032 404.141L219.676 226.884L233.266 212.512L288.026 399.35Z" fill="#8895B2"/>
<path d="M304.812 383.781L294.419 392.165L262.043 188.16L282.028 176.582L304.812 383.781Z" fill="#8895B2"/>
<path d="M521.052 204.927L312.004 377.393C312.004 377.393 314.402 231.276 314.402 163.407C448.704 125.081 521.052 204.927 521.052 204.927Z" fill="#8895B2"/>
<path d="M303.61 490.181C303.61 490.181 269.239 491.687 258.354 498.729C250.274 503.957 223.868 506.642 226.138 519.145C231.928 524.615 237.108 529.174 241.679 533.125C269.715 555.008 293.179 562.396 301.712 565.342C310.244 568.288 375.762 587.225 389.17 562.302C402.578 537.38 401.549 569.953 407.149 569.901L407.245 569.877C418.553 567.134 441.213 561.637 471.752 541.331C479.066 536.468 492.779 524.919 496.74 520.968C500.702 517.017 458.051 518.358 458.051 518.358C458.051 518.358 442.543 506.96 439.379 503.478C436.214 499.996 428.777 498.729 428.777 498.729C428.777 498.729 426.403 491.131 423.396 490.181C420.39 489.232 403.3 488.599 403.3 488.599C403.3 488.599 387.318 411.668 395.23 403.12C403.142 394.572 418.016 392.515 418.016 392.515H439.379L442.543 384.442L471.501 377.318V370.354L439.379 379.693C439.379 379.693 371.811 313.051 372.444 305.77C373.077 298.489 380.039 300.863 380.039 300.863V285.508L407.414 300.863C407.414 300.863 392.857 253.058 383.204 247.043C373.551 241.028 318.484 250.209 318.484 250.209C318.484 250.209 352.506 264.455 350.607 268.888C348.708 273.32 326.238 309.094 325.763 318.592C325.289 328.089 341.271 363.705 341.271 363.705L329.403 411.193L281.773 425.123V431.93L327.821 418.475L303.61 490.181Z" fill="white"/>
<path d="M199.791 147.484C194.289 140.319 183.986 138.936 177.139 144.831C135.931 180.306 105.34 226.648 88.9582 278.722C70.9363 336.008 70.9839 397.452 89.0945 454.71C107.205 511.968 142.501 562.264 190.188 598.766C237.875 635.268 295.642 656.207 355.642 658.74C415.642 661.272 474.968 645.275 525.561 612.921C576.154 580.567 615.563 533.424 638.434 477.896C661.305 422.368 666.53 361.146 653.399 302.545C641.463 249.277 614.886 200.521 576.814 161.7C570.489 155.25 560.105 155.759 554.019 162.435V162.435C547.932 169.111 548.452 179.424 554.732 185.918C587.863 220.181 611.007 262.986 621.474 309.699C633.136 361.745 628.495 416.119 608.183 465.436C587.87 514.754 552.869 556.623 507.935 585.358C463.001 614.094 410.311 628.301 357.022 626.052C303.732 623.803 252.427 605.206 210.074 572.786C167.721 540.367 136.373 495.697 120.288 444.844C104.203 393.99 104.161 339.418 120.167 288.54C134.533 242.875 161.202 202.173 197.102 170.824C203.907 164.881 205.294 154.65 199.791 147.484V147.484Z" fill="white"/>
<path d="M600.855 618.503L549.379 574.211C548.021 573.042 547.984 570.951 549.299 569.734L566.272 554.04C567.49 552.914 569.391 552.99 570.515 554.21L591.979 577.5C600.479 586.5 629.413 611.664 631.479 613.5C635.429 617.011 665.584 640.43 684.73 653.877C687.071 655.521 686.057 658.858 683.197 658.831L682.295 658.822C677.608 658.778 672.827 658.733 671.891 658.828C669.626 659.06 648.116 653.052 642.924 651.036C638.77 649.423 627.397 641.245 622.229 637.358L600.855 618.503Z" fill="white" stroke="white"/>
<path d="M48.1564 3.16033C48.8687 3.05467 49.5777 3.46303 49.8431 3.68042L69.2789 23.9055L104.839 66.1073L146.757 112.968L149.823 115.244L154.476 113.574C155.473 113.216 159.606 113.233 161.506 113.301C163.406 113.37 163.086 114.047 165.142 116.123C167.199 118.199 164.791 120.377 164.947 122.384C165.103 124.392 164.238 125.64 163.159 127.341C162.296 128.701 160.483 130.866 159.684 131.778L170.775 143.367L183.479 153L165.479 167.5L143.478 146.225C142.671 146.765 140.879 147.871 140.167 147.977C139.276 148.109 133.043 149.033 131.689 148.394C130.334 147.755 128.479 144.669 127.908 144.123C127.337 143.578 128.649 137.291 128.862 136.839C129.033 136.478 131.083 132.915 132.087 131.179L100.282 92.1317C89.998 80.0024 69.3849 55.7225 69.2043 55.6373C68.9786 55.5307 38.8162 20.0209 38.4714 19.5818C38.1266 19.1428 36.8415 16.6025 36.6034 15.9376C36.3652 15.2727 35.9831 13.1586 36.4096 12.2551C36.8362 11.3515 37.5009 11.1129 37.94 10.7677C38.379 10.4225 40.2417 8.81574 41.0006 7.79287C41.7596 6.77 44.5127 5.03121 45.0584 4.46012C45.604 3.88902 47.2659 3.2924 48.1564 3.16033Z" fill="white"/>
<path d="M530.374 517.175C500.802 548.845 462.589 571.146 420.469 581.316C378.349 591.486 334.171 589.078 293.405 574.392C252.639 559.705 217.076 533.384 191.12 498.688C165.164 463.992 149.954 422.445 147.374 379.191C144.794 335.937 154.958 292.876 176.606 255.341C198.254 217.806 230.436 187.444 269.167 168.016C307.898 148.588 351.477 140.946 394.507 146.037C437.538 151.129 497.5 179.5 521 205L494 227.5C466.056 203.94 426.731 184.754 390.434 180.459C354.138 176.165 317.378 182.61 284.708 198.998C252.038 215.386 224.892 240.997 206.632 272.658C188.371 304.32 179.799 340.642 181.975 377.127C184.151 413.612 196.98 448.658 218.875 477.924C240.769 507.191 270.767 529.393 305.153 541.781C339.54 554.17 376.805 556.2 412.334 547.622C447.863 539.043 502.055 537.214 527 510.5L530.374 517.175Z" fill="white"/>
<path d="M840.875 340.1H828.275V365H824.45V312.5H828.275V336.65H840.95L859.775 312.5H864.05L843.95 338.075L865.4 365H860.9L840.875 340.1ZM899.098 365.375C895.198 365.375 891.573 364.725 888.223 363.425C884.923 362.075 882.023 360.2 879.523 357.8C877.073 355.35 875.173 352.525 873.823 349.325C872.473 346.075 871.798 342.55 871.798 338.75C871.798 334.95 872.473 331.45 873.823 328.25C875.173 325 877.073 322.175 879.523 319.775C882.023 317.325 884.923 315.45 888.223 314.15C891.573 312.8 895.198 312.125 899.098 312.125C902.998 312.125 906.598 312.8 909.898 314.15C913.248 315.45 916.148 317.3 918.598 319.7C921.048 322.1 922.948 324.925 924.298 328.175C925.698 331.375 926.398 334.9 926.398 338.75C926.398 342.6 925.698 346.15 924.298 349.4C922.948 352.6 921.048 355.4 918.598 357.8C916.148 360.2 913.248 362.075 909.898 363.425C906.598 364.725 902.998 365.375 899.098 365.375ZM899.098 361.85C902.448 361.85 905.548 361.275 908.398 360.125C911.248 358.975 913.723 357.35 915.823 355.25C917.923 353.15 919.548 350.7 920.698 347.9C921.898 345.1 922.498 342.05 922.498 338.75C922.498 335.4 921.898 332.35 920.698 329.6C919.548 326.8 917.923 324.35 915.823 322.25C913.723 320.15 911.248 318.525 908.398 317.375C905.548 316.225 902.448 315.65 899.098 315.65C895.748 315.65 892.648 316.225 889.798 317.375C886.948 318.525 884.448 320.15 882.298 322.25C880.198 324.35 878.548 326.8 877.348 329.6C876.198 332.35 875.623 335.4 875.623 338.75C875.623 342.05 876.198 345.1 877.348 347.9C878.548 350.7 880.198 353.15 882.298 355.25C884.448 357.35 886.948 358.975 889.798 360.125C892.648 361.275 895.748 361.85 899.098 361.85ZM940.539 365V312.5H943.764L968.139 354.575H966.414L990.714 312.5H993.864L993.939 365H990.189L990.114 318.275H991.164L968.139 358.025H966.264L943.164 318.275H944.289V365H940.539ZM1004.8 365L1028.95 312.5H1032.78L1056.93 365H1052.8L1030 314.9H1031.65L1008.93 365H1004.8ZM1013.65 350.225L1014.93 347H1046.35L1047.63 350.225H1013.65ZM1106.76 312.5H1110.58V365H1106.76V312.5ZM1071.66 365H1067.83V312.5H1071.66V365ZM1107.21 340.025H1071.21V336.65H1107.21V340.025ZM1163.35 363.125V315.95H1136.5L1136.05 330.05C1135.9 334.2 1135.65 338.175 1135.3 341.975C1134.95 345.775 1134.43 349.2 1133.73 352.25C1133.03 355.25 1132.05 357.675 1130.8 359.525C1129.6 361.375 1128.08 362.375 1126.23 362.525L1121.8 361.55C1123.9 361.7 1125.6 360.975 1126.9 359.375C1128.25 357.775 1129.3 355.5 1130.05 352.55C1130.85 349.6 1131.43 346.175 1131.78 342.275C1132.13 338.375 1132.38 334.2 1132.53 329.75L1133.05 312.5H1167.18V363.125H1163.35ZM1119.85 377L1119.93 361.55H1175.28V377H1171.6V365H1123.6L1123.53 377H1119.85ZM1179.49 365L1203.64 312.5H1207.46L1231.61 365H1227.49L1204.69 314.9H1206.34L1183.61 365H1179.49ZM1188.34 350.225L1189.61 347H1221.04L1222.31 350.225H1188.34ZM822.425 456V403.5H832.025V447.75H858.5V403.5H868.175V456H822.425ZM866.975 467.55V453.6L869.15 456H858.5V447.75H875.975V467.55H866.975ZM884.974 456V403.5H894.574V440.775L922.774 403.5H931.849V456H922.249V418.8L894.049 456H884.974ZM973.269 452.625C966.669 452.625 961.044 451.725 956.394 449.925C951.794 448.125 948.269 445.525 945.819 442.125C943.369 438.675 942.144 434.525 942.144 429.675C942.144 424.725 943.369 420.55 945.819 417.15C948.269 413.75 951.794 411.15 956.394 409.35C961.044 407.55 966.669 406.65 973.269 406.65C973.369 406.65 973.594 406.65 973.944 406.65C974.344 406.65 974.719 406.65 975.069 406.65C975.469 406.65 975.694 406.65 975.744 406.65C982.294 406.65 987.869 407.55 992.469 409.35C997.069 411.15 1000.57 413.775 1002.97 417.225C1005.37 420.625 1006.57 424.775 1006.57 429.675C1006.57 434.475 1005.37 438.6 1002.97 442.05C1000.62 445.5 997.169 448.125 992.619 449.925C988.119 451.725 982.619 452.625 976.119 452.625C976.019 452.625 975.744 452.625 975.294 452.625C974.894 452.625 974.469 452.625 974.019 452.625C973.619 452.625 973.369 452.625 973.269 452.625ZM974.244 445.05C974.344 445.05 974.494 445.05 974.694 445.05C974.894 445.05 975.019 445.05 975.069 445.05C979.919 445 983.969 444.4 987.219 443.25C990.519 442.1 992.994 440.4 994.644 438.15C996.344 435.85 997.194 433 997.194 429.6C997.194 426.2 996.344 423.375 994.644 421.125C992.944 418.875 990.469 417.175 987.219 416.025C983.969 414.875 979.969 414.3 975.219 414.3C975.169 414.3 975.019 414.3 974.769 414.3C974.519 414.3 974.344 414.3 974.244 414.3C969.294 414.3 965.119 414.875 961.719 416.025C958.369 417.125 955.844 418.825 954.144 421.125C952.494 423.375 951.669 426.225 951.669 429.675C951.669 433.125 952.544 436 954.294 438.3C956.094 440.55 958.669 442.25 962.019 443.4C965.369 444.5 969.444 445.05 974.244 445.05ZM969.894 458.1V401.4H978.894V458.1H969.894ZM1016.81 456V403.5H1038.41C1043.06 403.5 1047.03 404.25 1050.33 405.75C1053.68 407.25 1056.26 409.4 1058.06 412.2C1059.86 415 1060.76 418.325 1060.76 422.175C1060.76 426.025 1059.86 429.35 1058.06 432.15C1056.26 434.95 1053.68 437.1 1050.33 438.6C1047.03 440.1 1043.06 440.85 1038.41 440.85H1022.21L1026.56 436.275V456H1016.81ZM1026.56 437.325L1022.21 432.6H1037.96C1042.26 432.6 1045.48 431.7 1047.63 429.9C1049.83 428.05 1050.93 425.475 1050.93 422.175C1050.93 418.825 1049.83 416.25 1047.63 414.45C1045.48 412.65 1042.26 411.75 1037.96 411.75H1022.21L1026.56 406.95V437.325ZM1095.09 456.75C1090.99 456.75 1087.21 456.075 1083.76 454.725C1080.31 453.375 1077.31 451.5 1074.76 449.1C1072.21 446.65 1070.24 443.8 1068.84 440.55C1067.44 437.25 1066.74 433.65 1066.74 429.75C1066.74 425.85 1067.44 422.275 1068.84 419.025C1070.24 415.725 1072.21 412.875 1074.76 410.475C1077.31 408.025 1080.31 406.125 1083.76 404.775C1087.21 403.425 1090.96 402.75 1095.01 402.75C1099.11 402.75 1102.86 403.425 1106.26 404.775C1109.71 406.125 1112.71 408.025 1115.26 410.475C1117.81 412.875 1119.79 415.725 1121.19 419.025C1122.59 422.275 1123.29 425.85 1123.29 429.75C1123.29 433.65 1122.59 437.25 1121.19 440.55C1119.79 443.85 1117.81 446.7 1115.26 449.1C1112.71 451.5 1109.71 453.375 1106.26 454.725C1102.86 456.075 1099.14 456.75 1095.09 456.75ZM1095.01 448.2C1097.66 448.2 1100.11 447.75 1102.36 446.85C1104.61 445.95 1106.56 444.675 1108.21 443.025C1109.86 441.325 1111.14 439.375 1112.04 437.175C1112.99 434.925 1113.46 432.45 1113.46 429.75C1113.46 427.05 1112.99 424.6 1112.04 422.4C1111.14 420.15 1109.86 418.2 1108.21 416.55C1106.56 414.85 1104.61 413.55 1102.36 412.65C1100.11 411.75 1097.66 411.3 1095.01 411.3C1092.36 411.3 1089.91 411.75 1087.66 412.65C1085.46 413.55 1083.51 414.85 1081.81 416.55C1080.16 418.2 1078.86 420.15 1077.91 422.4C1077.01 424.6 1076.56 427.05 1076.56 429.75C1076.56 432.4 1077.01 434.85 1077.91 437.1C1078.86 439.35 1080.16 441.325 1081.81 443.025C1083.46 444.675 1085.41 445.95 1087.66 446.85C1089.91 447.75 1092.36 448.2 1095.01 448.2ZM1134.14 456V403.5H1157.62C1163.52 403.5 1168.12 404.675 1171.42 407.025C1174.72 409.325 1176.37 412.65 1176.37 417C1176.37 421.3 1174.79 424.625 1171.64 426.975C1168.49 429.275 1164.34 430.425 1159.19 430.425L1160.54 427.725C1166.39 427.725 1170.92 428.9 1174.12 431.25C1177.32 433.6 1178.92 437 1178.92 441.45C1178.92 446 1177.24 449.575 1173.89 452.175C1170.54 454.725 1165.59 456 1159.04 456H1134.14ZM1143.74 448.5H1158.74C1162.14 448.5 1164.72 447.875 1166.47 446.625C1168.22 445.325 1169.09 443.35 1169.09 440.7C1169.09 438.05 1168.22 436.125 1166.47 434.925C1164.72 433.675 1162.14 433.05 1158.74 433.05H1143.74V448.5ZM1143.74 425.925H1156.79C1159.94 425.925 1162.34 425.3 1163.99 424.05C1165.64 422.75 1166.47 420.9 1166.47 418.5C1166.47 416 1165.64 414.125 1163.99 412.875C1162.34 411.625 1159.94 411 1156.79 411H1143.74V425.925ZM1214.4 456.75C1210.3 456.75 1206.53 456.075 1203.08 454.725C1199.63 453.375 1196.63 451.5 1194.08 449.1C1191.53 446.65 1189.55 443.8 1188.15 440.55C1186.75 437.25 1186.05 433.65 1186.05 429.75C1186.05 425.85 1186.75 422.275 1188.15 419.025C1189.55 415.725 1191.53 412.875 1194.08 410.475C1196.63 408.025 1199.63 406.125 1203.08 404.775C1206.53 403.425 1210.28 402.75 1214.33 402.75C1218.43 402.75 1222.18 403.425 1225.58 404.775C1229.03 406.125 1232.03 408.025 1234.58 410.475C1237.13 412.875 1239.1 415.725 1240.5 419.025C1241.9 422.275 1242.6 425.85 1242.6 429.75C1242.6 433.65 1241.9 437.25 1240.5 440.55C1239.1 443.85 1237.13 446.7 1234.58 449.1C1232.03 451.5 1229.03 453.375 1225.58 454.725C1222.18 456.075 1218.45 456.75 1214.4 456.75ZM1214.33 448.2C1216.98 448.2 1219.43 447.75 1221.68 446.85C1223.93 445.95 1225.88 444.675 1227.53 443.025C1229.18 441.325 1230.45 439.375 1231.35 437.175C1232.3 434.925 1232.78 432.45 1232.78 429.75C1232.78 427.05 1232.3 424.6 1231.35 422.4C1230.45 420.15 1229.18 418.2 1227.53 416.55C1225.88 414.85 1223.93 413.55 1221.68 412.65C1219.43 411.75 1216.98 411.3 1214.33 411.3C1211.68 411.3 1209.23 411.75 1206.98 412.65C1204.78 413.55 1202.83 414.85 1201.13 416.55C1199.48 418.2 1198.18 420.15 1197.23 422.4C1196.33 424.6 1195.88 427.05 1195.88 429.75C1195.88 432.4 1196.33 434.85 1197.23 437.1C1198.18 439.35 1199.48 441.325 1201.13 443.025C1202.78 444.675 1204.73 445.95 1206.98 446.85C1209.23 447.75 1211.68 448.2 1214.33 448.2ZM1253.46 456V403.5H1263.06V440.775L1291.26 403.5H1300.33V456H1290.73V418.8L1262.53 456H1253.46ZM1276.78 399.975C1272.28 399.975 1268.88 399.025 1266.58 397.125C1264.33 395.225 1263.18 392.55 1263.13 389.1H1269.96C1270.01 390.95 1270.61 392.375 1271.76 393.375C1272.96 394.375 1274.63 394.875 1276.78 394.875C1278.93 394.875 1280.61 394.375 1281.81 393.375C1283.06 392.375 1283.71 390.95 1283.76 389.1H1290.51C1290.46 392.55 1289.28 395.225 1286.98 397.125C1284.68 399.025 1281.28 399.975 1276.78 399.975ZM1346.8 456V409.35L1349.13 411.75H1329.48V403.5H1373.88V411.75H1354.23L1356.48 409.35V456H1346.8ZM1382.29 456V403.5H1403.89C1408.54 403.5 1412.51 404.25 1415.81 405.75C1419.16 407.25 1421.74 409.4 1423.54 412.2C1425.34 415 1426.24 418.325 1426.24 422.175C1426.24 426.025 1425.34 429.35 1423.54 432.15C1421.74 434.95 1419.16 437.1 1415.81 438.6C1412.51 440.1 1408.54 440.85 1403.89 440.85H1387.69L1392.04 436.275V456H1382.29ZM1392.04 437.325L1387.69 432.6H1403.44C1407.74 432.6 1410.96 431.7 1413.11 429.9C1415.31 428.05 1416.41 425.475 1416.41 422.175C1416.41 418.825 1415.31 416.25 1413.11 414.45C1410.96 412.65 1407.74 411.75 1403.44 411.75H1387.69L1392.04 406.95V437.325ZM1426.15 456L1449.77 403.5H1459.37L1483.07 456H1472.87L1452.55 408.675H1456.45L1436.2 456H1426.15ZM1437.02 443.85L1439.65 436.2H1468L1470.62 443.85H1437.02ZM1528.02 403.5H1537.77V456H1528.02V403.5ZM1500.87 456H1491.12V403.5H1500.87V456ZM1528.77 433.5H1500.05V425.175H1528.77V433.5ZM1576.65 456.75C1572.65 456.75 1568.93 456.1 1565.48 454.8C1562.08 453.45 1559.1 451.575 1556.55 449.175C1554.05 446.725 1552.1 443.85 1550.7 440.55C1549.3 437.25 1548.6 433.65 1548.6 429.75C1548.6 425.85 1549.3 422.25 1550.7 418.95C1552.1 415.65 1554.08 412.8 1556.63 410.4C1559.18 407.95 1562.15 406.075 1565.55 404.775C1568.95 403.425 1572.68 402.75 1576.73 402.75C1581.03 402.75 1584.95 403.5 1588.5 405C1592.05 406.45 1595.05 408.625 1597.5 411.525L1591.2 417.45C1589.3 415.4 1587.18 413.875 1584.83 412.875C1582.48 411.825 1579.93 411.3 1577.18 411.3C1574.43 411.3 1571.9 411.75 1569.6 412.65C1567.35 413.55 1565.38 414.825 1563.68 416.475C1562.03 418.125 1560.73 420.075 1559.78 422.325C1558.88 424.575 1558.43 427.05 1558.43 429.75C1558.43 432.45 1558.88 434.925 1559.78 437.175C1560.73 439.425 1562.03 441.375 1563.68 443.025C1565.38 444.675 1567.35 445.95 1569.6 446.85C1571.9 447.75 1574.43 448.2 1577.18 448.2C1579.93 448.2 1582.48 447.7 1584.83 446.7C1587.18 445.65 1589.3 444.075 1591.2 441.975L1597.5 447.975C1595.05 450.825 1592.05 453 1588.5 454.5C1584.95 456 1581 456.75 1576.65 456.75ZM1632.16 452.625C1625.56 452.625 1619.93 451.725 1615.28 449.925C1610.68 448.125 1607.16 445.525 1604.71 442.125C1602.26 438.675 1601.03 434.525 1601.03 429.675C1601.03 424.725 1602.26 420.55 1604.71 417.15C1607.16 413.75 1610.68 411.15 1615.28 409.35C1619.93 407.55 1625.56 406.65 1632.16 406.65C1632.26 406.65 1632.48 406.65 1632.83 406.65C1633.23 406.65 1633.61 406.65 1633.96 406.65C1634.36 406.65 1634.58 406.65 1634.63 406.65C1641.18 406.65 1646.76 407.55 1651.36 409.35C1655.96 411.15 1659.46 413.775 1661.86 417.225C1664.26 420.625 1665.46 424.775 1665.46 429.675C1665.46 434.475 1664.26 438.6 1661.86 442.05C1659.51 445.5 1656.06 448.125 1651.51 449.925C1647.01 451.725 1641.51 452.625 1635.01 452.625C1634.91 452.625 1634.63 452.625 1634.18 452.625C1633.78 452.625 1633.36 452.625 1632.91 452.625C1632.51 452.625 1632.26 452.625 1632.16 452.625ZM1633.13 445.05C1633.23 445.05 1633.38 445.05 1633.58 445.05C1633.78 445.05 1633.91 445.05 1633.96 445.05C1638.81 445 1642.86 444.4 1646.11 443.25C1649.41 442.1 1651.88 440.4 1653.53 438.15C1655.23 435.85 1656.08 433 1656.08 429.6C1656.08 426.2 1655.23 423.375 1653.53 421.125C1651.83 418.875 1649.36 417.175 1646.11 416.025C1642.86 414.875 1638.86 414.3 1634.11 414.3C1634.06 414.3 1633.91 414.3 1633.66 414.3C1633.41 414.3 1633.23 414.3 1633.13 414.3C1628.18 414.3 1624.01 414.875 1620.61 416.025C1617.26 417.125 1614.73 418.825 1613.03 421.125C1611.38 423.375 1610.56 426.225 1610.56 429.675C1610.56 433.125 1611.43 436 1613.18 438.3C1614.98 440.55 1617.56 442.25 1620.91 443.4C1624.26 444.5 1628.33 445.05 1633.13 445.05ZM1628.78 458.1V401.4H1637.78V458.1H1628.78ZM1700.07 456.75C1695.97 456.75 1692.19 456.075 1688.74 454.725C1685.29 453.375 1682.29 451.5 1679.74 449.1C1677.19 446.65 1675.22 443.8 1673.82 440.55C1672.42 437.25 1671.72 433.65 1671.72 429.75C1671.72 425.85 1672.42 422.275 1673.82 419.025C1675.22 415.725 1677.19 412.875 1679.74 410.475C1682.29 408.025 1685.29 406.125 1688.74 404.775C1692.19 403.425 1695.94 402.75 1699.99 402.75C1704.09 402.75 1707.84 403.425 1711.24 404.775C1714.69 406.125 1717.69 408.025 1720.24 410.475C1722.79 412.875 1724.77 415.725 1726.17 419.025C1727.57 422.275 1728.27 425.85 1728.27 429.75C1728.27 433.65 1727.57 437.25 1726.17 440.55C1724.77 443.85 1722.79 446.7 1720.24 449.1C1717.69 451.5 1714.69 453.375 1711.24 454.725C1707.84 456.075 1704.12 456.75 1700.07 456.75ZM1699.99 448.2C1702.64 448.2 1705.09 447.75 1707.34 446.85C1709.59 445.95 1711.54 444.675 1713.19 443.025C1714.84 441.325 1716.12 439.375 1717.02 437.175C1717.97 434.925 1718.44 432.45 1718.44 429.75C1718.44 427.05 1717.97 424.6 1717.02 422.4C1716.12 420.15 1714.84 418.2 1713.19 416.55C1711.54 414.85 1709.59 413.55 1707.34 412.65C1705.09 411.75 1702.64 411.3 1699.99 411.3C1697.34 411.3 1694.89 411.75 1692.64 412.65C1690.44 413.55 1688.49 414.85 1686.79 416.55C1685.14 418.2 1683.84 420.15 1682.89 422.4C1681.99 424.6 1681.54 427.05 1681.54 429.75C1681.54 432.4 1681.99 434.85 1682.89 437.1C1683.84 439.35 1685.14 441.325 1686.79 443.025C1688.44 444.675 1690.39 445.95 1692.64 446.85C1694.89 447.75 1697.34 448.2 1699.99 448.2ZM1739.05 456V403.5H1760.65C1765.3 403.5 1769.27 404.25 1772.57 405.75C1775.92 407.25 1778.5 409.4 1780.3 412.2C1782.1 415 1783 418.325 1783 422.175C1783 426.025 1782.1 429.35 1780.3 432.15C1778.5 434.95 1775.92 437.1 1772.57 438.6C1769.27 440.1 1765.3 440.85 1760.65 440.85H1744.45L1748.8 436.275V456H1739.05ZM1748.8 437.325L1744.45 432.6H1760.2C1764.5 432.6 1767.72 431.7 1769.87 429.9C1772.07 428.05 1773.17 425.475 1773.17 422.175C1773.17 418.825 1772.07 416.25 1769.87 414.45C1767.72 412.65 1764.5 411.75 1760.2 411.75H1744.45L1748.8 406.95V437.325ZM1792.3 456V403.5H1800.25L1823.27 441.825H1819L1841.65 403.5H1849.6L1849.75 456H1840.45L1840.37 417.975H1842.32L1823.12 450H1818.77L1799.27 417.975H1801.52V456H1792.3ZM1857.76 456L1881.39 403.5H1890.99L1914.69 456H1904.49L1884.16 408.675H1888.06L1867.81 456H1857.76ZM1868.64 443.85L1871.26 436.2H1899.61L1902.24 443.85H1868.64ZM1922.82 456V403.5H1932.42V447.75H1958.89V403.5H1968.57V456H1922.82ZM1967.37 467.55V453.6L1969.54 456H1958.89V447.75H1976.37V467.55H1967.37ZM1985.36 456V403.5H1994.96V440.775L2023.16 403.5H2032.24V456H2022.64V418.8L1994.44 456H1985.36ZM2047.03 456V403.5H2056.63V440.775L2084.83 403.5H2093.91V456H2084.31V418.8L2056.11 456H2047.03ZM822.425 547V494.5H832.025V531.775L860.225 494.5H869.3V547H859.7V509.8L831.5 547H822.425ZM913.522 524.2V516.475H940.597V524.2H913.522ZM920.347 493.75C924.197 493.75 927.747 494.425 930.997 495.775C934.247 497.075 937.072 498.95 939.472 501.4C941.922 503.8 943.797 506.65 945.097 509.95C946.447 513.25 947.122 516.85 947.122 520.75C947.122 524.65 946.447 528.25 945.097 531.55C943.797 534.85 941.922 537.725 939.472 540.175C937.072 542.575 934.247 544.45 930.997 545.8C927.747 547.1 924.197 547.75 920.347 547.75C915.897 547.75 911.847 547 908.197 545.5C904.597 544 901.597 541.825 899.197 538.975L905.347 532.975C907.297 535.075 909.472 536.65 911.872 537.7C914.322 538.7 916.972 539.2 919.822 539.2C922.322 539.2 924.647 538.75 926.797 537.85C928.947 536.9 930.797 535.625 932.347 534.025C933.897 532.375 935.097 530.425 935.947 528.175C936.797 525.925 937.222 523.45 937.222 520.75C937.222 518.05 936.797 515.575 935.947 513.325C935.097 511.075 933.897 509.15 932.347 507.55C930.797 505.9 928.947 504.625 926.797 503.725C924.647 502.775 922.322 502.3 919.822 502.3C916.972 502.3 914.322 502.825 911.872 503.875C909.472 504.875 907.297 506.425 905.347 508.525L899.197 502.525C901.597 499.675 904.597 497.5 908.197 496C911.847 494.5 915.897 493.75 920.347 493.75ZM992.72 547L974.945 521.425L982.82 516.55L1003.74 547H992.72ZM957.995 547V494.5H967.595V547H957.995ZM964.67 524.875V516.475H982.37V524.875H964.67ZM983.72 521.875L974.795 520.675L992.72 494.5H1003.07L983.72 521.875ZM1034.59 547.75C1030.49 547.75 1026.72 547.075 1023.27 545.725C1019.82 544.375 1016.82 542.5 1014.27 540.1C1011.72 537.65 1009.74 534.8 1008.34 531.55C1006.94 528.25 1006.24 524.65 1006.24 520.75C1006.24 516.85 1006.94 513.275 1008.34 510.025C1009.74 506.725 1011.72 503.875 1014.27 501.475C1016.82 499.025 1019.82 497.125 1023.27 495.775C1026.72 494.425 1030.47 493.75 1034.52 493.75C1038.62 493.75 1042.37 494.425 1045.77 495.775C1049.22 497.125 1052.22 499.025 1054.77 501.475C1057.32 503.875 1059.29 506.725 1060.69 510.025C1062.09 513.275 1062.79 516.85 1062.79 520.75C1062.79 524.65 1062.09 528.25 1060.69 531.55C1059.29 534.85 1057.32 537.7 1054.77 540.1C1052.22 542.5 1049.22 544.375 1045.77 545.725C1042.37 547.075 1038.64 547.75 1034.59 547.75ZM1034.52 539.2C1037.17 539.2 1039.62 538.75 1041.87 537.85C1044.12 536.95 1046.07 535.675 1047.72 534.025C1049.37 532.325 1050.64 530.375 1051.54 528.175C1052.49 525.925 1052.97 523.45 1052.97 520.75C1052.97 518.05 1052.49 515.6 1051.54 513.4C1050.64 511.15 1049.37 509.2 1047.72 507.55C1046.07 505.85 1044.12 504.55 1041.87 503.65C1039.62 502.75 1037.17 502.3 1034.52 502.3C1031.87 502.3 1029.42 502.75 1027.17 503.65C1024.97 504.55 1023.02 505.85 1021.32 507.55C1019.67 509.2 1018.37 511.15 1017.42 513.4C1016.52 515.6 1016.07 518.05 1016.07 520.75C1016.07 523.4 1016.52 525.85 1017.42 528.1C1018.37 530.35 1019.67 532.325 1021.32 534.025C1022.97 535.675 1024.92 536.95 1027.17 537.85C1029.42 538.75 1031.87 539.2 1034.52 539.2ZM1097.72 547.75C1093.72 547.75 1090 547.1 1086.55 545.8C1083.15 544.45 1080.17 542.575 1077.62 540.175C1075.12 537.725 1073.17 534.85 1071.77 531.55C1070.37 528.25 1069.67 524.65 1069.67 520.75C1069.67 516.85 1070.37 513.25 1071.77 509.95C1073.17 506.65 1075.15 503.8 1077.7 501.4C1080.25 498.95 1083.22 497.075 1086.62 495.775C1090.02 494.425 1093.75 493.75 1097.8 493.75C1102.1 493.75 1106.02 494.5 1109.57 496C1113.12 497.45 1116.12 499.625 1118.57 502.525L1112.27 508.45C1110.37 506.4 1108.25 504.875 1105.9 503.875C1103.55 502.825 1101 502.3 1098.25 502.3C1095.5 502.3 1092.97 502.75 1090.67 503.65C1088.42 504.55 1086.45 505.825 1084.75 507.475C1083.1 509.125 1081.8 511.075 1080.85 513.325C1079.95 515.575 1079.5 518.05 1079.5 520.75C1079.5 523.45 1079.95 525.925 1080.85 528.175C1081.8 530.425 1083.1 532.375 1084.75 534.025C1086.45 535.675 1088.42 536.95 1090.67 537.85C1092.97 538.75 1095.5 539.2 1098.25 539.2C1101 539.2 1103.55 538.7 1105.9 537.7C1108.25 536.65 1110.37 535.075 1112.27 532.975L1118.57 538.975C1116.12 541.825 1113.12 544 1109.57 545.5C1106.02 547 1102.07 547.75 1097.72 547.75ZM1127.7 547V494.5H1137.3V531.775L1165.5 494.5H1174.57V547H1164.97V509.8L1136.77 547H1127.7ZM1213.44 547.75C1209.44 547.75 1205.72 547.1 1202.27 545.8C1198.87 544.45 1195.89 542.575 1193.34 540.175C1190.84 537.725 1188.89 534.85 1187.49 531.55C1186.09 528.25 1185.39 524.65 1185.39 520.75C1185.39 516.85 1186.09 513.25 1187.49 509.95C1188.89 506.65 1190.87 503.8 1193.42 501.4C1195.97 498.95 1198.94 497.075 1202.34 495.775C1205.74 494.425 1209.47 493.75 1213.52 493.75C1217.82 493.75 1221.74 494.5 1225.29 496C1228.84 497.45 1231.84 499.625 1234.29 502.525L1227.99 508.45C1226.09 506.4 1223.97 504.875 1221.62 503.875C1219.27 502.825 1216.72 502.3 1213.97 502.3C1211.22 502.3 1208.69 502.75 1206.39 503.65C1204.14 504.55 1202.17 505.825 1200.47 507.475C1198.82 509.125 1197.52 511.075 1196.57 513.325C1195.67 515.575 1195.22 518.05 1195.22 520.75C1195.22 523.45 1195.67 525.925 1196.57 528.175C1197.52 530.425 1198.82 532.375 1200.47 534.025C1202.17 535.675 1204.14 536.95 1206.39 537.85C1208.69 538.75 1211.22 539.2 1213.97 539.2C1216.72 539.2 1219.27 538.7 1221.62 537.7C1223.97 536.65 1226.09 535.075 1227.99 532.975L1234.29 538.975C1231.84 541.825 1228.84 544 1225.29 545.5C1221.74 547 1217.79 547.75 1213.44 547.75ZM1253.79 547V500.35L1256.11 502.75H1236.46V494.5H1280.86V502.75H1261.21L1263.46 500.35V547H1253.79ZM1298.27 516.325H1324.37V524.35H1298.27V516.325ZM1299.02 538.825H1328.64V547H1289.27V494.5H1327.59V502.675H1299.02V538.825ZM1339.59 547V494.5H1347.54L1370.56 532.825H1366.29L1388.94 494.5H1396.89L1397.04 547H1387.74L1387.66 508.975H1389.61L1370.41 541H1366.06L1346.56 508.975H1348.81V547H1339.59Z" fill="white"/>
</svg>
