<svg width="167" height="166" viewBox="0 0 167 166" fill="none" xmlns="http://www.w3.org/2000/svg">
<path d="M167 5C167 2.23858 164.761 0 162 0H5C2.23858 0 0 2.23858 0 5V160.725C0 163.487 2.23858 165.725 5 165.725H162C164.761 165.725 167 163.487 167 160.725V5Z" fill="white"/>
<path d="M140.041 16.539C136.202 16.539 133.282 19.0395 131.83 22.07L110.803 56.4395C109.351 59.6156 108.292 63.1826 108.292 65.5514C108.292 67.6688 108.568 69.522 109.354 71.2423L129.159 118.204C130.549 121.5 128.129 125.146 124.552 125.146H43.764C40.5919 125.146 37.968 121.996 37.968 119.072V26.1624C37.3016 13.4713 18.9194 13.4712 18.5195 26.5461L18.9059 125.146C18.9059 135.866 27.2523 144.457 37.968 144.457H151.053C154.578 144.457 156.997 140.907 155.705 137.626L129.06 69.9315C128.261 67.1524 127.861 64.6396 129.833 61.3311L149.077 30.3296C149.213 30.1095 149.334 29.8798 149.398 29.6288C149.653 28.6286 149.926 26.4549 149.926 25.7787C149.539 20.0883 145.065 16.2743 140.041 16.539ZM92.353 16.5709C87.6283 16.604 82.9186 19.8169 82.9186 26.1624V92.6633C82.9186 102.311 69.8134 101.53 69.8134 92.6633V26.1624C69.8134 13.4713 50.9123 13.4713 50.9123 26.1624V93.1748C50.9123 108.499 62.4022 118.688 76.1567 118.688C90.2977 118.688 101.82 108.499 101.82 93.1748V26.1624C101.82 19.6845 97.0778 16.5378 92.353 16.5709Z" fill="#D2233C"/>
</svg>
