<svg width="131" height="130" viewBox="0 0 131 130" fill="none" xmlns="http://www.w3.org/2000/svg">
<path d="M131 0H0V130H131V0Z" fill="#464646"/>
<path d="M109.852 12.9736C106.841 12.9736 104.551 14.9352 103.411 17.3124L86.9177 44.2729C85.7781 46.7643 84.9475 49.5623 84.9475 51.4205C84.9475 53.0815 85.1642 54.5352 85.781 55.8847L103.613 98.1687H34.3299C31.8416 98.1687 29.7834 95.6978 29.7834 93.4036V20.5226C29.2606 10.5673 14.841 10.5672 14.5273 20.8235L14.8304 98.1687C14.8304 106.577 21.3776 113.317 29.7834 113.317H124.249L101.239 54.8564C100.612 52.6764 100.298 50.7053 101.845 48.11L117.101 23.5321C117.321 23.0131 117.607 20.8341 117.607 20.2216C117.303 15.7578 113.794 12.766 109.852 12.9736ZM72.4446 12.9987C68.7384 13.0247 65.044 15.5449 65.044 20.5226V72.6879C65.044 80.2556 54.7638 79.6432 54.7638 72.6879V20.5226C54.7638 10.5673 39.9372 10.5673 39.9372 20.5226V73.0892C39.9372 85.1103 48.9502 93.1027 59.7397 93.1027C70.8324 93.1027 79.8706 85.1103 79.8706 73.0892V20.5226C79.8706 15.4411 76.1509 12.9728 72.4446 12.9987Z" fill="white"/>
</svg>
