<svg width="125" height="119" viewBox="0 0 125 119" fill="none" xmlns="http://www.w3.org/2000/svg">
<path d="M96.2094 88.5552L52.3818 99.1651C52.3818 99.1651 63.4267 103.662 75.175 101.133C88.3303 99.1651 96.2094 88.5552 96.2094 88.5552Z" fill="black"/>
<path d="M48.6527 97.1273L46.1201 95.3707L104.018 72.9563L102.118 79.4206L48.6527 97.1273Z" fill="#0048F4"/>
<path d="M43.099 93.1227L40.5664 90.9445L104.021 57.1473L104.725 62.909L43.099 93.1227Z" fill="#0048F4"/>
<path d="M37.9606 87.993L36.6943 85.8148L98.3906 43.3048L101.275 48.1531L37.9606 87.993Z" fill="#0048F4"/>
<path d="M45.77 73.7292L34.5844 83.4257C34.5844 83.4257 25.9324 70.0051 31.7705 51.6661C36.4839 59.1844 45.77 73.7292 45.77 73.7292Z" fill="#0048F4"/>
<path d="M48.1618 72.0432C47.8335 72.254 47.1347 72.7318 46.9659 72.9566L33.8105 47.2398L35.3582 44.8508L48.1618 72.0432Z" fill="#0048F4"/>
<path d="M50.6977 70.287L49.2907 71.1301L38.668 39.9327L41.0598 37.4032L50.6977 70.287Z" fill="#0048F4"/>
<path d="M53.6475 67.5456L51.8184 69.0212L46.1201 33.116L49.6376 31.0784L53.6475 67.5456Z" fill="#0048F4"/>
<path d="M91.7087 36.0677L54.916 66.422C54.916 66.422 55.3381 40.7052 55.3381 28.7602C78.9755 22.0148 91.7087 36.0677 91.7087 36.0677Z" fill="#0048F4"/>
<path d="M53.4349 86.2722C53.4349 86.2722 47.3854 86.5372 45.4697 87.7767C44.0477 88.6967 39.4001 89.1693 39.7996 91.3698C40.8187 92.3326 41.7304 93.135 42.5349 93.8304C47.4692 97.6818 51.599 98.9821 53.1007 99.5006C54.6025 100.019 66.1336 103.352 68.4935 98.9656C70.8533 94.5793 70.6723 100.312 71.6578 100.303L71.6747 100.299C73.6649 99.816 77.6532 98.8485 83.0281 95.2747C84.3153 94.4188 86.7288 92.3861 87.426 91.6907C88.1232 90.9953 80.6166 91.2313 80.6166 91.2313C80.6166 91.2313 77.8873 89.2253 77.3303 88.6124C76.7733 87.9995 75.4643 87.7767 75.4643 87.7767C75.4643 87.7767 75.0466 86.4394 74.5174 86.2722C73.9883 86.1051 70.9804 85.9937 70.9804 85.9937C70.9804 85.9937 68.1676 72.4538 69.5601 70.9493C70.9526 69.4449 73.5705 69.0828 73.5705 69.0828H77.3303L77.8873 67.6619L82.9839 66.4082V65.1824L77.3303 66.8261C77.3303 66.8261 65.4383 55.0971 65.5497 53.8156C65.6611 52.534 66.8865 52.9519 66.8865 52.9519V50.2495L71.7045 52.9519C71.7045 52.9519 69.1423 44.5383 67.4435 43.4796C65.7446 42.4209 56.0528 44.0368 56.0528 44.0368C56.0528 44.0368 62.0406 46.5442 61.7064 47.3243C61.3722 48.1044 57.4174 54.4006 57.3339 56.0722C57.2503 57.7438 60.0632 64.0123 60.0632 64.0123L57.9744 72.3702L49.5915 74.8219V76.0198L57.6959 73.6518L53.4349 86.2722Z" fill="black"/>
<path d="M34.6812 25.3301C33.9787 24.4153 32.6646 24.24 31.779 24.979C24.2217 31.2856 18.6186 39.638 15.656 49.0552C12.4841 59.1376 12.4925 69.952 15.68 80.0294C18.8675 90.1068 25.0796 98.959 33.4725 105.383C41.8655 111.808 52.0325 115.493 62.5927 115.939C73.1528 116.385 83.5942 113.569 92.4987 107.875C101.403 102.18 108.339 93.8832 112.364 84.1102C116.39 74.3372 117.309 63.562 114.998 53.2482C112.84 43.6148 107.96 34.82 100.961 27.899C100.141 27.088 98.817 27.152 98.0399 28.0043L96.9745 29.1729C96.1975 30.0252 96.2623 31.3429 97.0783 32.1581C103.206 38.2795 107.479 46.0275 109.379 54.5072C111.432 63.6674 110.615 73.2373 107.04 81.9172C103.465 90.5971 97.3049 97.9662 89.3964 103.024C81.488 108.081 72.2144 110.582 62.8355 110.186C53.4565 109.79 44.4267 106.517 36.9725 100.811C29.5183 95.1051 24.001 87.2432 21.1701 78.2929C18.3391 69.3426 18.3317 59.7379 21.1488 50.7832C23.7566 42.4938 28.6678 35.1335 35.2894 29.5501C36.1712 28.8066 36.3468 27.4991 35.6443 26.5843L34.6812 25.3301Z" fill="black"/>
<path d="M105.751 108.857L96.5083 100.905C96.3664 100.783 96.3625 100.564 96.4999 100.437L99.8219 97.3655C99.949 97.2479 100.148 97.2559 100.265 97.3833L104.188 101.641C105.684 103.225 110.777 107.653 111.14 107.977C111.872 108.627 117.718 113.162 121.03 115.443C121.276 115.613 121.17 115.962 120.871 115.96C119.889 115.954 118.472 115.932 118.253 115.954C117.854 115.995 114.069 114.938 113.155 114.583C112.424 114.299 110.422 112.86 109.512 112.176L105.751 108.857Z" fill="black" stroke="black" stroke-width="0.104421"/>
<path d="M8.47591 0.556222C8.60129 0.537627 8.72607 0.609498 8.77278 0.647758L12.1935 4.20741L18.4522 11.635L25.8298 19.8825L26.3694 20.2831L27.1884 19.9891C27.3639 19.9261 28.0912 19.9292 28.4256 19.9412C28.76 19.9532 28.7037 20.0725 29.0656 20.4378C29.4275 20.8032 29.0037 21.1865 29.0312 21.5398C29.0587 21.8931 28.9064 22.1129 28.7165 22.4122C28.5646 22.6516 28.2455 23.0325 28.1049 23.193L30.0569 25.2328L32.2928 26.9282L29.1248 29.4802L25.2526 25.7358C25.1106 25.8309 24.7952 26.0255 24.6698 26.0441C24.5131 26.0674 23.416 26.2301 23.1777 26.1175C22.9393 26.005 22.6127 25.4619 22.5123 25.3659C22.4119 25.2698 22.6427 24.1634 22.6803 24.0839C22.7103 24.0203 23.0711 23.3933 23.2477 23.0877L17.6501 16.2153C15.8401 14.0805 12.2122 9.80724 12.1804 9.79223C12.1406 9.77347 6.83203 3.5237 6.77135 3.44643C6.71066 3.36916 6.48449 2.92206 6.44257 2.80503C6.40065 2.68801 6.33339 2.31593 6.40847 2.15691C6.48355 1.99788 6.60054 1.95588 6.67781 1.89512C6.75508 1.83437 7.08291 1.55158 7.21649 1.37156C7.35006 1.19153 7.83462 0.885499 7.93066 0.784986C8.0267 0.684472 8.31919 0.579467 8.47591 0.556222Z" fill="black"/>
<path d="M93.347 91.0232C88.1422 96.5971 81.4167 100.522 74.0035 102.312C66.5903 104.102 58.8149 103.678 51.6401 101.093C44.4653 98.5085 38.2062 93.876 33.6378 87.7695C29.0695 81.6629 26.3925 74.3506 25.9385 66.7378C25.4844 59.1251 27.2732 51.5464 31.0833 44.9401C34.8934 38.3339 40.5575 32.9902 47.3742 29.5708C54.1909 26.1514 61.8608 24.8065 69.4342 25.7025C77.0076 26.5986 87.5611 31.5919 91.6971 36.08L86.9451 40.04C82.027 35.8935 75.1057 32.5167 68.7174 31.7608C62.3291 31.005 55.8595 32.1394 50.1095 35.0237C44.3595 37.908 39.5818 42.4155 36.3679 47.988C33.1541 53.5605 31.6452 59.9532 32.0282 66.3746C32.4112 72.796 34.6693 78.9641 38.5227 84.1151C42.3762 89.266 47.6558 93.1736 53.7078 95.354C59.7599 97.5343 66.3185 97.8917 72.5717 96.3819C78.8248 94.8721 88.3628 94.5501 92.7531 89.8484L93.347 91.0232Z" fill="black"/>
</svg>
