<svg width="1200" height="309" viewBox="0 0 1200 309" fill="none" xmlns="http://www.w3.org/2000/svg">
<g clip-path="url(#clip0_886_21)">
<rect y="51.6567" width="1200" height="257.343" fill="#233143"/>
<rect width="1200" height="309" rx="10" fill="#233143"/>
<path d="M888.096 95.792V89.008H889.104V95.792H888.096ZM885.12 92.88V91.936H892.08V92.88H885.12ZM895.847 98L900.679 87.312L901.031 87.824H894.103L894.695 87.264V89.92H893.559V86.8H901.783V87.616L897.095 98H895.847ZM910.176 101.104C909.59 100.133 909.131 99.0133 908.8 97.744C908.48 96.464 908.32 95.088 908.32 93.616C908.32 92.144 908.48 90.768 908.8 89.488C909.131 88.1973 909.59 87.0773 910.176 86.128H911.264C910.635 87.2267 910.171 88.3947 909.872 89.632C909.584 90.8587 909.44 92.1867 909.44 93.616C909.44 95.0453 909.584 96.3787 909.872 97.616C910.171 98.8427 910.635 100.005 911.264 101.104H910.176ZM912.249 95.056V94.224L918.185 86.8H919.465L913.577 94.224L912.953 94.032H921.961V95.056H912.249ZM918.569 98V95.056L918.601 94.032V91.44H919.721V98H918.569ZM926.383 86.704C927.375 86.704 928.212 86.928 928.895 87.376C929.577 87.8133 930.095 88.448 930.447 89.28C930.799 90.112 930.975 91.12 930.975 92.304C930.975 93.5627 930.756 94.624 930.319 95.488C929.892 96.352 929.295 97.0027 928.527 97.44C927.759 97.8773 926.868 98.096 925.855 98.096C925.353 98.096 924.873 98.048 924.414 97.952C923.967 97.856 923.561 97.7013 923.199 97.488L923.663 96.56C923.951 96.752 924.281 96.8907 924.655 96.976C925.039 97.0507 925.433 97.088 925.839 97.088C927.044 97.088 928.004 96.704 928.719 95.936C929.444 95.168 929.807 94.0213 929.807 92.496C929.807 92.2507 929.791 91.9573 929.759 91.616C929.737 91.2747 929.679 90.9333 929.583 90.592L929.983 90.896C929.876 91.4507 929.647 91.9253 929.295 92.32C928.953 92.704 928.527 92.9973 928.015 93.2C927.513 93.4027 926.953 93.504 926.335 93.504C925.599 93.504 924.943 93.3653 924.367 93.088C923.801 92.8107 923.359 92.4213 923.039 91.92C922.719 91.4187 922.559 90.8267 922.559 90.144C922.559 89.44 922.724 88.832 923.055 88.32C923.385 87.808 923.839 87.4133 924.414 87.136C925.001 86.848 925.657 86.704 926.383 86.704ZM926.431 87.68C925.897 87.68 925.423 87.7813 925.007 87.984C924.601 88.176 924.281 88.4533 924.047 88.816C923.812 89.1787 923.695 89.6107 923.695 90.112C923.695 90.848 923.945 91.4347 924.447 91.872C924.959 92.3093 925.647 92.528 926.511 92.528C927.087 92.528 927.588 92.4213 928.015 92.208C928.452 91.9947 928.788 91.7013 929.023 91.328C929.268 90.9547 929.391 90.5387 929.391 90.08C929.391 89.664 929.279 89.2747 929.055 88.912C928.831 88.5493 928.5 88.256 928.063 88.032C927.625 87.7973 927.081 87.68 926.431 87.68ZM936.181 98.096C935.381 98.096 934.618 97.968 933.893 97.712C933.167 97.4453 932.591 97.0933 932.165 96.656L932.725 95.744C933.077 96.1173 933.557 96.4267 934.164 96.672C934.783 96.9173 935.45 97.04 936.165 97.04C937.114 97.04 937.834 96.832 938.325 96.416C938.826 95.9893 939.077 95.4347 939.077 94.752C939.077 94.272 938.959 93.8613 938.725 93.52C938.501 93.168 938.117 92.896 937.573 92.704C937.029 92.512 936.282 92.416 935.333 92.416H932.949L933.525 86.8H939.653V87.824H933.989L934.581 87.264L934.085 91.968L933.493 91.392H935.589C936.719 91.392 937.626 91.5307 938.309 91.808C938.991 92.0853 939.482 92.4747 939.781 92.976C940.09 93.4667 940.245 94.0427 940.245 94.704C940.245 95.3333 940.095 95.9093 939.797 96.432C939.498 96.944 939.05 97.3493 938.453 97.648C937.855 97.9467 937.098 98.096 936.181 98.096ZM942.603 101.104H941.515C942.155 100.005 942.619 98.8427 942.907 97.616C943.206 96.3787 943.355 95.0453 943.355 93.616C943.355 92.1867 943.206 90.8587 942.907 89.632C942.619 88.3947 942.155 87.2267 941.515 86.128H942.603C943.211 87.0773 943.675 88.1973 943.995 89.488C944.315 90.768 944.475 92.144 944.475 93.616C944.475 95.088 944.315 96.464 943.995 97.744C943.675 99.0133 943.211 100.133 942.603 101.104ZM954.648 86.704C955.64 86.704 956.477 86.928 957.16 87.376C957.843 87.8133 958.36 88.448 958.712 89.28C959.064 90.112 959.24 91.12 959.24 92.304C959.24 93.5627 959.021 94.624 958.584 95.488C958.157 96.352 957.56 97.0027 956.792 97.44C956.024 97.8773 955.133 98.096 954.12 98.096C953.619 98.096 953.139 98.048 952.68 97.952C952.232 97.856 951.827 97.7013 951.464 97.488L951.928 96.56C952.216 96.752 952.547 96.8907 952.92 96.976C953.304 97.0507 953.699 97.088 954.104 97.088C955.309 97.088 956.269 96.704 956.984 95.936C957.709 95.168 958.072 94.0213 958.072 92.496C958.072 92.2507 958.056 91.9573 958.024 91.616C958.003 91.2747 957.944 90.9333 957.848 90.592L958.248 90.896C958.141 91.4507 957.912 91.9253 957.56 92.32C957.219 92.704 956.792 92.9973 956.28 93.2C955.779 93.4027 955.219 93.504 954.6 93.504C953.864 93.504 953.208 93.3653 952.632 93.088C952.067 92.8107 951.624 92.4213 951.304 91.92C950.984 91.4187 950.824 90.8267 950.824 90.144C950.824 89.44 950.989 88.832 951.32 88.32C951.651 87.808 952.104 87.4133 952.68 87.136C953.267 86.848 953.923 86.704 954.648 86.704ZM954.696 87.68C954.163 87.68 953.688 87.7813 953.272 87.984C952.867 88.176 952.547 88.4533 952.312 88.816C952.077 89.1787 951.96 89.6107 951.96 90.112C951.96 90.848 952.211 91.4347 952.712 91.872C953.224 92.3093 953.912 92.528 954.776 92.528C955.352 92.528 955.853 92.4213 956.28 92.208C956.717 91.9947 957.053 91.7013 957.288 91.328C957.533 90.9547 957.656 90.5387 957.656 90.08C957.656 89.664 957.544 89.2747 957.32 88.912C957.096 88.5493 956.765 88.256 956.328 88.032C955.891 87.7973 955.347 87.68 954.696 87.68ZM965.502 98.096C964.51 98.096 963.673 97.8773 962.99 97.44C962.307 96.992 961.79 96.352 961.438 95.52C961.086 94.6773 960.91 93.6693 960.91 92.496C960.91 91.2267 961.123 90.1653 961.55 89.312C961.987 88.448 962.59 87.7973 963.358 87.36C964.126 86.9227 965.017 86.704 966.03 86.704C966.531 86.704 967.011 86.752 967.47 86.848C967.929 86.944 968.334 87.0987 968.686 87.312L968.222 88.24C967.934 88.048 967.603 87.9147 967.23 87.84C966.857 87.7547 966.462 87.712 966.046 87.712C964.841 87.712 963.875 88.096 963.15 88.864C962.435 89.632 962.078 90.7787 962.078 92.304C962.078 92.5387 962.089 92.832 962.11 93.184C962.142 93.5253 962.206 93.8667 962.302 94.208L961.902 93.904C962.019 93.3493 962.249 92.88 962.59 92.496C962.931 92.1013 963.358 91.8027 963.87 91.6C964.382 91.3973 964.942 91.296 965.55 91.296C966.297 91.296 966.953 91.4347 967.518 91.712C968.083 91.9893 968.526 92.3787 968.846 92.88C969.166 93.3813 969.326 93.9733 969.326 94.656C969.326 95.3493 969.161 95.9573 968.83 96.48C968.499 96.992 968.041 97.392 967.454 97.68C966.878 97.9573 966.227 98.096 965.502 98.096ZM965.454 97.12C965.987 97.12 966.457 97.024 966.862 96.832C967.278 96.6293 967.603 96.3467 967.838 95.984C968.073 95.6107 968.19 95.1787 968.19 94.688C968.19 93.952 967.934 93.3653 967.422 92.928C966.921 92.4907 966.238 92.272 965.374 92.272C964.798 92.272 964.297 92.3787 963.87 92.592C963.443 92.8053 963.107 93.0987 962.862 93.472C962.617 93.8347 962.494 94.2507 962.494 94.72C962.494 95.1253 962.606 95.5147 962.83 95.888C963.054 96.2507 963.385 96.5493 963.822 96.784C964.27 97.008 964.814 97.12 965.454 97.12ZM972.503 98L977.335 87.312L977.687 87.824H970.759L971.351 87.264V89.92H970.215V86.8H978.439V87.616L973.751 98H972.503ZM979.288 94.16V93.168H983.48V94.16H979.288ZM989.987 98.096C988.995 98.096 988.157 97.8773 987.475 97.44C986.792 96.992 986.275 96.352 985.923 95.52C985.571 94.6773 985.395 93.6693 985.395 92.496C985.395 91.2267 985.608 90.1653 986.035 89.312C986.472 88.448 987.075 87.7973 987.843 87.36C988.611 86.9227 989.501 86.704 990.515 86.704C991.016 86.704 991.496 86.752 991.955 86.848C992.413 86.944 992.819 87.0987 993.171 87.312L992.707 88.24C992.419 88.048 992.088 87.9147 991.715 87.84C991.341 87.7547 990.947 87.712 990.531 87.712C989.325 87.712 988.36 88.096 987.635 88.864C986.92 89.632 986.562 90.7787 986.562 92.304C986.562 92.5387 986.573 92.832 986.595 93.184C986.627 93.5253 986.691 93.8667 986.787 94.208L986.387 93.904C986.504 93.3493 986.733 92.88 987.075 92.496C987.416 92.1013 987.843 91.8027 988.355 91.6C988.867 91.3973 989.427 91.296 990.035 91.296C990.781 91.296 991.437 91.4347 992.003 91.712C992.568 91.9893 993.011 92.3787 993.331 92.88C993.651 93.3813 993.811 93.9733 993.811 94.656C993.811 95.3493 993.645 95.9573 993.315 96.48C992.984 96.992 992.525 97.392 991.939 97.68C991.363 97.9573 990.712 98.096 989.987 98.096ZM989.939 97.12C990.472 97.12 990.941 97.024 991.347 96.832C991.763 96.6293 992.088 96.3467 992.323 95.984C992.557 95.6107 992.675 95.1787 992.675 94.688C992.675 93.952 992.419 93.3653 991.907 92.928C991.405 92.4907 990.723 92.272 989.859 92.272C989.283 92.272 988.781 92.3787 988.355 92.592C987.928 92.8053 987.592 93.0987 987.347 93.472C987.101 93.8347 986.979 94.2507 986.979 94.72C986.979 95.1253 987.091 95.5147 987.315 95.888C987.539 96.2507 987.869 96.5493 988.307 96.784C988.755 97.008 989.299 97.12 989.939 97.12ZM999.609 98.096C998.745 98.096 997.977 97.872 997.305 97.424C996.633 96.9653 996.105 96.3147 995.721 95.472C995.337 94.6187 995.145 93.5947 995.145 92.4C995.145 91.2053 995.337 90.1867 995.721 89.344C996.105 88.4907 996.633 87.84 997.305 87.392C997.977 86.9333 998.745 86.704 999.609 86.704C1000.47 86.704 1001.24 86.9333 1001.91 87.392C1002.58 87.84 1003.11 88.4907 1003.5 89.344C1003.89 90.1867 1004.09 91.2053 1004.09 92.4C1004.09 93.5947 1003.89 94.6187 1003.5 95.472C1003.11 96.3147 1002.58 96.9653 1001.91 97.424C1001.24 97.872 1000.47 98.096 999.609 98.096ZM999.609 97.04C1000.27 97.04 1000.85 96.864 1001.34 96.512C1001.83 96.1493 1002.21 95.6267 1002.49 94.944C1002.77 94.2507 1002.9 93.4027 1002.9 92.4C1002.9 91.3973 1002.77 90.5547 1002.49 89.872C1002.21 89.1787 1001.83 88.656 1001.34 88.304C1000.85 87.9413 1000.27 87.76 999.609 87.76C998.969 87.76 998.398 87.9413 997.897 88.304C997.395 88.656 997.006 89.1787 996.729 89.872C996.451 90.5547 996.312 91.3973 996.312 92.4C996.312 93.4027 996.451 94.2507 996.729 94.944C997.006 95.6267 997.395 96.1493 997.897 96.512C998.398 96.864 998.969 97.04 999.609 97.04ZM1005.99 94.16V93.168H1010.18V94.16H1005.99ZM1016.56 98.096C1015.7 98.096 1014.93 97.872 1014.26 97.424C1013.59 96.9653 1013.06 96.3147 1012.67 95.472C1012.29 94.6187 1012.1 93.5947 1012.1 92.4C1012.1 91.2053 1012.29 90.1867 1012.67 89.344C1013.06 88.4907 1013.59 87.84 1014.26 87.392C1014.93 86.9333 1015.7 86.704 1016.56 86.704C1017.43 86.704 1018.19 86.9333 1018.87 87.392C1019.54 87.84 1020.07 88.4907 1020.45 89.344C1020.84 90.1867 1021.04 91.2053 1021.04 92.4C1021.04 93.5947 1020.84 94.6187 1020.45 95.472C1020.07 96.3147 1019.54 96.9653 1018.87 97.424C1018.19 97.872 1017.43 98.096 1016.56 98.096ZM1016.56 97.04C1017.22 97.04 1017.8 96.864 1018.29 96.512C1018.78 96.1493 1019.16 95.6267 1019.44 94.944C1019.72 94.2507 1019.86 93.4027 1019.86 92.4C1019.86 91.3973 1019.72 90.5547 1019.44 89.872C1019.16 89.1787 1018.78 88.656 1018.29 88.304C1017.8 87.9413 1017.22 87.76 1016.56 87.76C1015.92 87.76 1015.35 87.9413 1014.85 88.304C1014.35 88.656 1013.96 89.1787 1013.68 89.872C1013.4 90.5547 1013.27 91.3973 1013.27 92.4C1013.27 93.4027 1013.4 94.2507 1013.68 94.944C1013.96 95.6267 1014.35 96.1493 1014.85 96.512C1015.35 96.864 1015.92 97.04 1016.56 97.04ZM1027.16 98.096C1026.29 98.096 1025.52 97.872 1024.85 97.424C1024.18 96.9653 1023.65 96.3147 1023.27 95.472C1022.88 94.6187 1022.69 93.5947 1022.69 92.4C1022.69 91.2053 1022.88 90.1867 1023.27 89.344C1023.65 88.4907 1024.18 87.84 1024.85 87.392C1025.52 86.9333 1026.29 86.704 1027.16 86.704C1028.02 86.704 1028.79 86.9333 1029.46 87.392C1030.13 87.84 1030.66 88.4907 1031.04 89.344C1031.44 90.1867 1031.64 91.2053 1031.64 92.4C1031.64 93.5947 1031.44 94.6187 1031.04 95.472C1030.66 96.3147 1030.13 96.9653 1029.46 97.424C1028.79 97.872 1028.02 98.096 1027.16 98.096ZM1027.16 97.04C1027.82 97.04 1028.39 96.864 1028.88 96.512C1029.37 96.1493 1029.76 95.6267 1030.04 94.944C1030.31 94.2507 1030.45 93.4027 1030.45 92.4C1030.45 91.3973 1030.31 90.5547 1030.04 89.872C1029.76 89.1787 1029.37 88.656 1028.88 88.304C1028.39 87.9413 1027.82 87.76 1027.16 87.76C1026.52 87.76 1025.94 87.9413 1025.44 88.304C1024.94 88.656 1024.55 89.1787 1024.28 89.872C1024 90.5547 1023.86 91.3973 1023.86 92.4C1023.86 93.4027 1024 94.2507 1024.28 94.944C1024.55 95.6267 1024.94 96.1493 1025.44 96.512C1025.94 96.864 1026.52 97.04 1027.16 97.04Z" fill="white"/>
<path d="M888.24 126.08C887.451 126.08 886.843 125.867 886.416 125.44C885.989 125.013 885.776 124.411 885.776 123.632V115.744H886.912V123.568C886.912 124.059 887.035 124.437 887.28 124.704C887.536 124.971 887.899 125.104 888.368 125.104C888.869 125.104 889.285 124.96 889.616 124.672L890.016 125.488C889.792 125.691 889.52 125.84 889.2 125.936C888.891 126.032 888.571 126.08 888.24 126.08ZM884.272 118.544V117.6H889.472V118.544H884.272ZM895.355 126.08C894.48 126.08 893.712 125.899 893.051 125.536C892.39 125.163 891.872 124.656 891.499 124.016C891.126 123.365 890.939 122.624 890.939 121.792C890.939 120.96 891.115 120.224 891.467 119.584C891.83 118.944 892.32 118.443 892.939 118.08C893.568 117.707 894.272 117.52 895.051 117.52C895.84 117.52 896.539 117.701 897.147 118.064C897.766 118.416 898.251 118.917 898.603 119.568C898.955 120.208 899.131 120.949 899.131 121.792C899.131 121.845 899.126 121.904 899.115 121.968C899.115 122.021 899.115 122.08 899.115 122.144H891.803V121.296H898.507L898.059 121.632C898.059 121.024 897.926 120.485 897.659 120.016C897.403 119.536 897.051 119.163 896.603 118.896C896.155 118.629 895.638 118.496 895.051 118.496C894.475 118.496 893.958 118.629 893.499 118.896C893.04 119.163 892.683 119.536 892.427 120.016C892.171 120.496 892.043 121.045 892.043 121.664V121.84C892.043 122.48 892.182 123.045 892.459 123.536C892.747 124.016 893.142 124.395 893.643 124.672C894.155 124.939 894.736 125.072 895.387 125.072C895.899 125.072 896.374 124.981 896.811 124.8C897.259 124.619 897.643 124.341 897.963 123.968L898.603 124.704C898.23 125.152 897.76 125.493 897.195 125.728C896.64 125.963 896.027 126.08 895.355 126.08ZM904.787 126.08C903.987 126.08 903.267 125.899 902.627 125.536C901.998 125.173 901.502 124.672 901.139 124.032C900.777 123.381 900.595 122.635 900.595 121.792C900.595 120.939 900.777 120.192 901.139 119.552C901.502 118.912 901.998 118.416 902.627 118.064C903.267 117.701 903.987 117.52 904.787 117.52C905.523 117.52 906.179 117.685 906.755 118.016C907.342 118.347 907.806 118.832 908.147 119.472C908.499 120.101 908.675 120.875 908.675 121.792C908.675 122.699 908.505 123.472 908.163 124.112C907.822 124.752 907.358 125.243 906.771 125.584C906.195 125.915 905.534 126.08 904.787 126.08ZM904.867 125.072C905.465 125.072 905.998 124.939 906.467 124.672C906.947 124.395 907.321 124.011 907.587 123.52C907.865 123.019 908.003 122.443 908.003 121.792C908.003 121.131 907.865 120.555 907.587 120.064C907.321 119.573 906.947 119.195 906.467 118.928C905.998 118.651 905.465 118.512 904.867 118.512C904.281 118.512 903.753 118.651 903.283 118.928C902.814 119.195 902.441 119.573 902.163 120.064C901.886 120.555 901.747 121.131 901.747 121.792C901.747 122.443 901.886 123.019 902.163 123.52C902.441 124.011 902.814 124.395 903.283 124.672C903.753 124.939 904.281 125.072 904.867 125.072ZM908.035 126V123.472L908.147 121.776L907.987 120.08V114.128H909.123V126H908.035ZM915.711 126.08C914.9 126.08 914.17 125.899 913.519 125.536C912.879 125.163 912.372 124.656 911.999 124.016C911.626 123.365 911.439 122.624 911.439 121.792C911.439 120.949 911.626 120.208 911.999 119.568C912.372 118.928 912.879 118.427 913.519 118.064C914.159 117.701 914.89 117.52 915.711 117.52C916.543 117.52 917.279 117.701 917.919 118.064C918.57 118.427 919.076 118.928 919.439 119.568C919.812 120.208 919.999 120.949 919.999 121.792C919.999 122.624 919.812 123.365 919.439 124.016C919.076 124.656 918.57 125.163 917.919 125.536C917.268 125.899 916.532 126.08 915.711 126.08ZM915.711 125.072C916.319 125.072 916.858 124.939 917.327 124.672C917.796 124.395 918.164 124.011 918.431 123.52C918.708 123.019 918.847 122.443 918.847 121.792C918.847 121.131 918.708 120.555 918.431 120.064C918.164 119.573 917.796 119.195 917.327 118.928C916.858 118.651 916.324 118.512 915.727 118.512C915.13 118.512 914.596 118.651 914.127 118.928C913.658 119.195 913.284 119.573 913.007 120.064C912.73 120.555 912.591 121.131 912.591 121.792C912.591 122.443 912.73 123.019 913.007 123.52C913.284 124.011 913.658 124.395 914.127 124.672C914.596 124.939 915.124 125.072 915.711 125.072ZM922.196 126.08C921.961 126.08 921.759 125.995 921.588 125.824C921.428 125.653 921.348 125.445 921.348 125.2C921.348 124.944 921.428 124.736 921.588 124.576C921.759 124.416 921.961 124.336 922.196 124.336C922.431 124.336 922.628 124.416 922.788 124.576C922.959 124.736 923.044 124.944 923.044 125.2C923.044 125.445 922.959 125.653 922.788 125.824C922.628 125.995 922.431 126.08 922.196 126.08ZM925.475 126V117.6H926.563V119.888L926.451 119.488C926.685 118.848 927.08 118.363 927.635 118.032C928.189 117.691 928.877 117.52 929.699 117.52V118.624C929.656 118.624 929.613 118.624 929.571 118.624C929.528 118.613 929.485 118.608 929.443 118.608C928.557 118.608 927.864 118.88 927.363 119.424C926.861 119.957 926.611 120.72 926.611 121.712V126H925.475ZM935.369 126.08C934.654 126.08 934.03 125.947 933.497 125.68C932.963 125.413 932.547 125.013 932.249 124.48C931.961 123.947 931.817 123.28 931.817 122.48V117.6H932.953V122.352C932.953 123.248 933.171 123.925 933.609 124.384C934.057 124.832 934.681 125.056 935.481 125.056C936.067 125.056 936.574 124.939 937.001 124.704C937.438 124.459 937.769 124.107 937.993 123.648C938.227 123.189 938.345 122.64 938.345 122V117.6H939.481V126H938.392V123.696L938.569 124.112C938.302 124.731 937.886 125.216 937.321 125.568C936.766 125.909 936.115 126.08 935.369 126.08Z" fill="white"/>
<path d="M523.888 98V86.8H524.864L529.984 95.536H529.472L534.544 86.8H535.52V98H534.384V88.576H534.656L529.984 96.576H529.424L524.72 88.576H525.024V98H523.888ZM542.478 98.08C541.668 98.08 540.937 97.8987 540.286 97.536C539.646 97.1627 539.14 96.656 538.766 96.016C538.393 95.3653 538.206 94.624 538.206 93.792C538.206 92.9493 538.393 92.208 538.766 91.568C539.14 90.928 539.646 90.4267 540.286 90.064C540.926 89.7013 541.657 89.52 542.478 89.52C543.31 89.52 544.046 89.7013 544.686 90.064C545.337 90.4267 545.844 90.928 546.206 91.568C546.58 92.208 546.766 92.9493 546.766 93.792C546.766 94.624 546.58 95.3653 546.206 96.016C545.844 96.656 545.337 97.1627 544.686 97.536C544.036 97.8987 543.3 98.08 542.478 98.08ZM542.478 97.072C543.086 97.072 543.625 96.9387 544.094 96.672C544.564 96.3947 544.932 96.0107 545.198 95.52C545.476 95.0187 545.614 94.4427 545.614 93.792C545.614 93.1307 545.476 92.5547 545.198 92.064C544.932 91.5733 544.564 91.1947 544.094 90.928C543.625 90.6507 543.092 90.512 542.494 90.512C541.897 90.512 541.364 90.6507 540.894 90.928C540.425 91.1947 540.052 91.5733 539.774 92.064C539.497 92.5547 539.358 93.1307 539.358 93.792C539.358 94.4427 539.497 95.0187 539.774 95.52C540.052 96.0107 540.425 96.3947 540.894 96.672C541.364 96.9387 541.892 97.072 542.478 97.072ZM552.714 98.08C551.882 98.08 551.135 97.8987 550.474 97.536C549.823 97.1627 549.311 96.656 548.938 96.016C548.565 95.3653 548.378 94.624 548.378 93.792C548.378 92.9493 548.565 92.208 548.938 91.568C549.311 90.928 549.823 90.4267 550.474 90.064C551.135 89.7013 551.882 89.52 552.714 89.52C553.429 89.52 554.074 89.6587 554.65 89.936C555.226 90.2133 555.679 90.6293 556.01 91.184L555.162 91.76C554.874 91.3333 554.517 91.0187 554.09 90.816C553.663 90.6133 553.199 90.512 552.698 90.512C552.101 90.512 551.562 90.6507 551.082 90.928C550.602 91.1947 550.223 91.5733 549.946 92.064C549.669 92.5547 549.53 93.1307 549.53 93.792C549.53 94.4533 549.669 95.0293 549.946 95.52C550.223 96.0107 550.602 96.3947 551.082 96.672C551.562 96.9387 552.101 97.072 552.698 97.072C553.199 97.072 553.663 96.9707 554.09 96.768C554.517 96.5653 554.874 96.256 555.162 95.84L556.01 96.416C555.679 96.96 555.226 97.376 554.65 97.664C554.074 97.9413 553.429 98.08 552.714 98.08ZM564.37 98L560.914 93.84L561.858 93.28L565.714 98H564.37ZM558.21 98V89.6H559.346V98H558.21ZM558.994 94.256V93.28H561.698V94.256H558.994ZM561.954 93.92L560.898 93.76L564.242 89.6H565.474L561.954 93.92ZM567.507 98V89.6H571.219C572.168 89.6 572.915 89.7813 573.459 90.144C574.013 90.5067 574.291 91.04 574.291 91.744C574.291 92.4267 574.029 92.9547 573.507 93.328C572.984 93.6907 572.296 93.872 571.443 93.872L571.667 93.536C572.669 93.536 573.405 93.7227 573.875 94.096C574.344 94.4693 574.579 95.008 574.579 95.712C574.579 96.4373 574.312 97.0027 573.779 97.408C573.256 97.8027 572.44 98 571.331 98H567.507ZM568.611 97.104H571.283C571.997 97.104 572.536 96.992 572.899 96.768C573.272 96.5333 573.459 96.16 573.459 95.648C573.459 95.136 573.293 94.7627 572.963 94.528C572.632 94.2933 572.109 94.176 571.395 94.176H568.611V97.104ZM568.611 93.328H571.139C571.789 93.328 572.285 93.2053 572.627 92.96C572.979 92.7147 573.155 92.3573 573.155 91.888C573.155 91.4187 572.979 91.0667 572.627 90.832C572.285 90.5973 571.789 90.48 571.139 90.48H568.611V93.328ZM582.457 98V96.144L582.409 95.84V92.736C582.409 92.0213 582.206 91.472 581.801 91.088C581.406 90.704 580.814 90.512 580.025 90.512C579.481 90.512 578.964 90.6027 578.473 90.784C577.982 90.9653 577.566 91.2053 577.225 91.504L576.713 90.656C577.14 90.2933 577.652 90.016 578.249 89.824C578.846 89.6213 579.476 89.52 580.137 89.52C581.225 89.52 582.062 89.792 582.649 90.336C583.246 90.8693 583.545 91.6853 583.545 92.784V98H582.457ZM579.561 98.08C578.932 98.08 578.382 97.9787 577.913 97.776C577.454 97.5627 577.102 97.2747 576.857 96.912C576.612 96.5387 576.489 96.112 576.489 95.632C576.489 95.1947 576.59 94.8 576.793 94.448C577.006 94.0853 577.348 93.7973 577.817 93.584C578.297 93.36 578.937 93.248 579.737 93.248H582.633V94.096H579.769C578.958 94.096 578.393 94.24 578.073 94.528C577.764 94.816 577.609 95.1733 577.609 95.6C577.609 96.08 577.796 96.464 578.169 96.752C578.542 97.04 579.065 97.184 579.737 97.184C580.377 97.184 580.926 97.04 581.385 96.752C581.854 96.4533 582.196 96.0267 582.409 95.472L582.665 96.256C582.452 96.8107 582.078 97.2533 581.545 97.584C581.022 97.9147 580.361 98.08 579.561 98.08ZM585.849 100.336L586.553 97.376L586.681 98.064C586.436 98.064 586.228 97.984 586.057 97.824C585.897 97.664 585.817 97.456 585.817 97.2C585.817 96.944 585.897 96.736 586.057 96.576C586.228 96.416 586.43 96.336 586.665 96.336C586.91 96.336 587.108 96.4213 587.257 96.592C587.417 96.7627 587.497 96.9653 587.497 97.2C587.497 97.2853 587.492 97.3707 587.481 97.456C587.47 97.5413 587.449 97.6373 587.417 97.744C587.385 97.8507 587.342 97.9787 587.289 98.128L586.617 100.336H585.849ZM523.072 118.096C522.923 118.096 522.779 118.085 522.64 118.064C522.501 118.053 522.347 118.027 522.176 117.984L522.272 116.928C522.453 116.971 522.629 116.992 522.8 116.992C523.28 116.992 523.664 116.805 523.952 116.432C524.251 116.048 524.475 115.461 524.624 114.672C524.773 113.872 524.869 112.848 524.912 111.6L525.072 106.8H532.672V118H531.504V107.504L531.808 107.824H525.824L526.112 107.488L525.968 111.568C525.925 112.688 525.845 113.659 525.728 114.48C525.611 115.291 525.44 115.968 525.216 116.512C524.992 117.045 524.704 117.445 524.352 117.712C524 117.968 523.573 118.096 523.072 118.096ZM539.779 118.08C538.904 118.08 538.136 117.899 537.475 117.536C536.813 117.163 536.296 116.656 535.923 116.016C535.549 115.365 535.363 114.624 535.363 113.792C535.363 112.96 535.539 112.224 535.891 111.584C536.253 110.944 536.744 110.443 537.363 110.08C537.992 109.707 538.696 109.52 539.475 109.52C540.264 109.52 540.963 109.701 541.571 110.064C542.189 110.416 542.675 110.917 543.027 111.568C543.379 112.208 543.555 112.949 543.555 113.792C543.555 113.845 543.549 113.904 543.539 113.968C543.539 114.021 543.539 114.08 543.539 114.144H536.227V113.296H542.931L542.483 113.632C542.483 113.024 542.349 112.485 542.083 112.016C541.827 111.536 541.475 111.163 541.027 110.896C540.579 110.629 540.061 110.496 539.475 110.496C538.899 110.496 538.381 110.629 537.923 110.896C537.464 111.163 537.107 111.536 536.851 112.016C536.595 112.496 536.467 113.045 536.467 113.664V113.84C536.467 114.48 536.605 115.045 536.883 115.536C537.171 116.016 537.565 116.395 538.067 116.672C538.579 116.939 539.16 117.072 539.811 117.072C540.323 117.072 540.797 116.981 541.235 116.8C541.683 116.619 542.067 116.341 542.387 115.968L543.027 116.704C542.653 117.152 542.184 117.493 541.619 117.728C541.064 117.963 540.451 118.08 539.779 118.08ZM546.069 118V109.6H547.205V113.312H552.501V109.6H553.637V118H552.501V114.288H547.205V118H546.069ZM556.866 118V109.6H558.002V116.272L563.618 109.6H564.626V118H563.49V111.312L557.89 118H556.866ZM567.882 118V109.6H569.018V113.312H574.314V109.6H575.45V118H574.314V114.288H569.018V118H567.882ZM578.679 118V109.6H584.631V110.592H579.527L579.815 110.304V118H578.679ZM590.608 118.08C589.883 118.08 589.227 117.915 588.64 117.584C588.054 117.243 587.584 116.757 587.232 116.128C586.891 115.488 586.72 114.709 586.72 113.792C586.72 112.875 586.891 112.101 587.232 111.472C587.574 110.832 588.038 110.347 588.624 110.016C589.211 109.685 589.872 109.52 590.608 109.52C591.408 109.52 592.123 109.701 592.752 110.064C593.392 110.416 593.894 110.917 594.256 111.568C594.619 112.208 594.8 112.949 594.8 113.792C594.8 114.645 594.619 115.392 594.256 116.032C593.894 116.672 593.392 117.173 592.752 117.536C592.123 117.899 591.408 118.08 590.608 118.08ZM586.272 121.104V109.6H587.36V112.128L587.248 113.808L587.408 115.504V121.104H586.272ZM590.528 117.072C591.126 117.072 591.659 116.939 592.128 116.672C592.598 116.395 592.971 116.011 593.248 115.52C593.526 115.019 593.664 114.443 593.664 113.792C593.664 113.141 593.526 112.571 593.248 112.08C592.971 111.589 592.598 111.205 592.128 110.928C591.659 110.651 591.126 110.512 590.528 110.512C589.931 110.512 589.392 110.651 588.912 110.928C588.443 111.205 588.07 111.589 587.792 112.08C587.526 112.571 587.392 113.141 587.392 113.792C587.392 114.443 587.526 115.019 587.792 115.52C588.07 116.011 588.443 116.395 588.912 116.672C589.392 116.939 589.931 117.072 590.528 117.072ZM602.41 118V116.144L602.362 115.84V112.736C602.362 112.021 602.159 111.472 601.754 111.088C601.359 110.704 600.767 110.512 599.978 110.512C599.434 110.512 598.917 110.603 598.426 110.784C597.935 110.965 597.519 111.205 597.178 111.504L596.666 110.656C597.093 110.293 597.605 110.016 598.202 109.824C598.799 109.621 599.429 109.52 600.09 109.52C601.178 109.52 602.015 109.792 602.602 110.336C603.199 110.869 603.498 111.685 603.498 112.784V118H602.41ZM599.514 118.08C598.885 118.08 598.335 117.979 597.866 117.776C597.407 117.563 597.055 117.275 596.81 116.912C596.565 116.539 596.442 116.112 596.442 115.632C596.442 115.195 596.543 114.8 596.746 114.448C596.959 114.085 597.301 113.797 597.77 113.584C598.25 113.36 598.89 113.248 599.69 113.248H602.586V114.096H599.722C598.911 114.096 598.346 114.24 598.026 114.528C597.717 114.816 597.562 115.173 597.562 115.6C597.562 116.08 597.749 116.464 598.122 116.752C598.495 117.04 599.018 117.184 599.69 117.184C600.33 117.184 600.879 117.04 601.338 116.752C601.807 116.453 602.149 116.027 602.362 115.472L602.618 116.256C602.405 116.811 602.031 117.253 601.498 117.584C600.975 117.915 600.314 118.08 599.514 118.08ZM612.282 117.456V110.592H608.234L608.138 112.464C608.117 113.029 608.08 113.584 608.026 114.128C607.984 114.672 607.904 115.173 607.786 115.632C607.68 116.08 607.525 116.448 607.322 116.736C607.12 117.013 606.858 117.173 606.538 117.216L605.402 117.008C605.733 117.019 606.005 116.901 606.218 116.656C606.432 116.4 606.597 116.053 606.714 115.616C606.832 115.179 606.917 114.683 606.97 114.128C607.024 113.563 607.066 112.987 607.098 112.4L607.21 109.6H613.418V117.456H612.282ZM605.05 120.032V117.008H614.73V120.032H613.658V118H606.122V120.032H605.05ZM620.464 118.08C619.632 118.08 618.885 117.899 618.224 117.536C617.573 117.163 617.061 116.656 616.688 116.016C616.315 115.365 616.128 114.624 616.128 113.792C616.128 112.949 616.315 112.208 616.688 111.568C617.061 110.928 617.573 110.427 618.224 110.064C618.885 109.701 619.632 109.52 620.464 109.52C621.179 109.52 621.824 109.659 622.4 109.936C622.976 110.213 623.429 110.629 623.76 111.184L622.912 111.76C622.624 111.333 622.267 111.019 621.84 110.816C621.413 110.613 620.949 110.512 620.448 110.512C619.851 110.512 619.312 110.651 618.832 110.928C618.352 111.195 617.973 111.573 617.696 112.064C617.419 112.555 617.28 113.131 617.28 113.792C617.28 114.453 617.419 115.029 617.696 115.52C617.973 116.011 618.352 116.395 618.832 116.672C619.312 116.939 619.851 117.072 620.448 117.072C620.949 117.072 621.413 116.971 621.84 116.768C622.267 116.565 622.624 116.256 622.912 115.84L623.76 116.416C623.429 116.96 622.976 117.376 622.4 117.664C621.824 117.941 621.179 118.08 620.464 118.08ZM632.12 118L628.664 113.84L629.608 113.28L633.464 118H632.12ZM625.96 118V109.6H627.096V118H625.96ZM626.744 114.256V113.28H629.448V114.256H626.744ZM629.704 113.92L628.648 113.76L631.992 109.6H633.224L629.704 113.92ZM635.257 118V109.6H636.393V116.272L642.009 109.6H643.017V118H641.881V111.312L636.281 118H635.257ZM646.272 118V109.6H647.408V116.272L653.024 109.6H654.032V118H652.896V111.312L647.296 118H646.272ZM650.08 108.384C649.376 108.384 648.806 108.208 648.368 107.856C647.942 107.493 647.718 106.976 647.696 106.304H648.512C648.523 106.731 648.672 107.067 648.96 107.312C649.248 107.557 649.622 107.68 650.08 107.68C650.539 107.68 650.912 107.557 651.2 107.312C651.499 107.067 651.654 106.731 651.664 106.304H652.48C652.47 106.976 652.246 107.493 651.808 107.856C651.371 108.208 650.795 108.384 650.08 108.384ZM661.475 118V109.6H669.027V118H667.891V110.288L668.179 110.592H662.323L662.611 110.288V118H661.475ZM676.593 118.08C675.867 118.08 675.211 117.915 674.625 117.584C674.038 117.243 673.569 116.757 673.217 116.128C672.875 115.488 672.705 114.709 672.705 113.792C672.705 112.875 672.875 112.101 673.217 111.472C673.558 110.832 674.022 110.347 674.609 110.016C675.195 109.685 675.857 109.52 676.593 109.52C677.393 109.52 678.107 109.701 678.737 110.064C679.377 110.416 679.878 110.917 680.241 111.568C680.603 112.208 680.785 112.949 680.785 113.792C680.785 114.645 680.603 115.392 680.241 116.032C679.878 116.672 679.377 117.173 678.737 117.536C678.107 117.899 677.393 118.08 676.593 118.08ZM672.257 121.104V109.6H673.345V112.128L673.233 113.808L673.393 115.504V121.104H672.257ZM676.513 117.072C677.11 117.072 677.643 116.939 678.113 116.672C678.582 116.395 678.955 116.011 679.233 115.52C679.51 115.019 679.649 114.443 679.649 113.792C679.649 113.141 679.51 112.571 679.233 112.08C678.955 111.589 678.582 111.205 678.113 110.928C677.643 110.651 677.11 110.512 676.513 110.512C675.915 110.512 675.377 110.651 674.897 110.928C674.427 111.205 674.054 111.589 673.777 112.08C673.51 112.571 673.377 113.141 673.377 113.792C673.377 114.443 673.51 115.019 673.777 115.52C674.054 116.011 674.427 116.395 674.897 116.672C675.377 116.939 675.915 117.072 676.513 117.072ZM686.681 118.08C685.871 118.08 685.14 117.899 684.489 117.536C683.849 117.163 683.343 116.656 682.969 116.016C682.596 115.365 682.409 114.624 682.409 113.792C682.409 112.949 682.596 112.208 682.969 111.568C683.343 110.928 683.849 110.427 684.489 110.064C685.129 109.701 685.86 109.52 686.681 109.52C687.513 109.52 688.249 109.701 688.889 110.064C689.54 110.427 690.047 110.928 690.409 111.568C690.783 112.208 690.969 112.949 690.969 113.792C690.969 114.624 690.783 115.365 690.409 116.016C690.047 116.656 689.54 117.163 688.889 117.536C688.239 117.899 687.503 118.08 686.681 118.08ZM686.681 117.072C687.289 117.072 687.828 116.939 688.297 116.672C688.767 116.395 689.135 116.011 689.401 115.52C689.679 115.019 689.817 114.443 689.817 113.792C689.817 113.131 689.679 112.555 689.401 112.064C689.135 111.573 688.767 111.195 688.297 110.928C687.828 110.651 687.295 110.512 686.697 110.512C686.1 110.512 685.567 110.651 685.097 110.928C684.628 111.195 684.255 111.573 683.977 112.064C683.7 112.555 683.561 113.131 683.561 113.792C683.561 114.443 683.7 115.019 683.977 115.52C684.255 116.011 684.628 116.395 685.097 116.672C685.567 116.939 686.095 117.072 686.681 117.072ZM696.917 118.08C696.085 118.08 695.339 117.899 694.677 117.536C694.027 117.163 693.515 116.656 693.141 116.016C692.768 115.365 692.581 114.624 692.581 113.792C692.581 112.949 692.768 112.208 693.141 111.568C693.515 110.928 694.027 110.427 694.677 110.064C695.339 109.701 696.085 109.52 696.917 109.52C697.632 109.52 698.277 109.659 698.853 109.936C699.429 110.213 699.883 110.629 700.213 111.184L699.365 111.76C699.077 111.333 698.72 111.019 698.293 110.816C697.867 110.613 697.403 110.512 696.901 110.512C696.304 110.512 695.765 110.651 695.285 110.928C694.805 111.195 694.427 111.573 694.149 112.064C693.872 112.555 693.733 113.131 693.733 113.792C693.733 114.453 693.872 115.029 694.149 115.52C694.427 116.011 694.805 116.395 695.285 116.672C695.765 116.939 696.304 117.072 696.901 117.072C697.403 117.072 697.867 116.971 698.293 116.768C698.72 116.565 699.077 116.256 699.365 115.84L700.213 116.416C699.883 116.96 699.429 117.376 698.853 117.664C698.277 117.941 697.632 118.08 696.917 118.08ZM702.413 118V109.6H709.965V118H708.829V110.288L709.117 110.592H703.261L703.549 110.288V118H702.413ZM716.794 118.08C715.919 118.08 715.151 117.899 714.49 117.536C713.829 117.163 713.311 116.656 712.938 116.016C712.565 115.365 712.378 114.624 712.378 113.792C712.378 112.96 712.554 112.224 712.906 111.584C713.269 110.944 713.759 110.443 714.378 110.08C715.007 109.707 715.711 109.52 716.49 109.52C717.279 109.52 717.978 109.701 718.586 110.064C719.205 110.416 719.69 110.917 720.042 111.568C720.394 112.208 720.57 112.949 720.57 113.792C720.57 113.845 720.565 113.904 720.554 113.968C720.554 114.021 720.554 114.08 720.554 114.144H713.242V113.296H719.946L719.498 113.632C719.498 113.024 719.365 112.485 719.098 112.016C718.842 111.536 718.49 111.163 718.042 110.896C717.594 110.629 717.077 110.496 716.49 110.496C715.914 110.496 715.397 110.629 714.938 110.896C714.479 111.163 714.122 111.536 713.866 112.016C713.61 112.496 713.482 113.045 713.482 113.664V113.84C713.482 114.48 713.621 115.045 713.898 115.536C714.186 116.016 714.581 116.395 715.082 116.672C715.594 116.939 716.175 117.072 716.826 117.072C717.338 117.072 717.813 116.981 718.25 116.8C718.698 116.619 719.082 116.341 719.402 115.968L720.042 116.704C719.669 117.152 719.199 117.493 718.634 117.728C718.079 117.963 717.466 118.08 716.794 118.08ZM729.245 118L725.789 113.84L726.733 113.28L730.589 118H729.245ZM723.085 118V109.6H724.221V118H723.085ZM723.869 114.256V113.28H726.573V114.256H723.869ZM726.829 113.92L725.773 113.76L729.117 109.6H730.349L726.829 113.92ZM733.81 118V110.288L734.098 110.592H730.626V109.6H738.13V110.592H734.658L734.946 110.288V118H733.81ZM738.334 120.336L739.038 117.376L739.166 118.064C738.92 118.064 738.712 117.984 738.542 117.824C738.382 117.664 738.302 117.456 738.302 117.2C738.302 116.944 738.382 116.736 738.542 116.576C738.712 116.416 738.915 116.336 739.15 116.336C739.395 116.336 739.592 116.421 739.742 116.592C739.902 116.763 739.982 116.965 739.982 117.2C739.982 117.285 739.976 117.371 739.966 117.456C739.955 117.541 739.934 117.637 739.902 117.744C739.87 117.851 739.827 117.979 739.774 118.128L739.102 120.336H738.334ZM749.192 118.096C748.381 118.096 747.613 117.968 746.888 117.712C746.173 117.445 745.597 117.093 745.16 116.656L745.72 115.744C746.082 116.117 746.568 116.427 747.176 116.672C747.794 116.917 748.466 117.04 749.192 117.04C750.12 117.04 750.829 116.837 751.32 116.432C751.821 116.027 752.072 115.483 752.072 114.8C752.072 114.117 751.826 113.573 751.336 113.168C750.856 112.763 750.093 112.56 749.048 112.56H748.248V111.712L751.704 107.376L751.864 107.824H745.624V106.8H752.824V107.616L749.368 111.952L748.808 111.584H749.24C750.584 111.584 751.586 111.883 752.248 112.48C752.92 113.077 753.256 113.845 753.256 114.784C753.256 115.413 753.106 115.979 752.808 116.48C752.509 116.981 752.056 117.376 751.448 117.664C750.85 117.952 750.098 118.096 749.192 118.096ZM759.471 118.096C758.479 118.096 757.642 117.877 756.959 117.44C756.276 116.992 755.759 116.352 755.407 115.52C755.055 114.677 754.879 113.669 754.879 112.496C754.879 111.227 755.092 110.165 755.519 109.312C755.956 108.448 756.559 107.797 757.327 107.36C758.095 106.923 758.986 106.704 759.999 106.704C760.5 106.704 760.98 106.752 761.439 106.848C761.898 106.944 762.303 107.099 762.655 107.312L762.191 108.24C761.903 108.048 761.572 107.915 761.199 107.84C760.826 107.755 760.431 107.712 760.015 107.712C758.81 107.712 757.844 108.096 757.119 108.864C756.404 109.632 756.047 110.779 756.047 112.304C756.047 112.539 756.058 112.832 756.079 113.184C756.111 113.525 756.175 113.867 756.271 114.208L755.871 113.904C755.988 113.349 756.218 112.88 756.559 112.496C756.9 112.101 757.327 111.803 757.839 111.6C758.351 111.397 758.911 111.296 759.519 111.296C760.266 111.296 760.922 111.435 761.487 111.712C762.052 111.989 762.495 112.379 762.815 112.88C763.135 113.381 763.295 113.973 763.295 114.656C763.295 115.349 763.13 115.957 762.799 116.48C762.468 116.992 762.01 117.392 761.423 117.68C760.847 117.957 760.196 118.096 759.471 118.096ZM759.423 117.12C759.956 117.12 760.426 117.024 760.831 116.832C761.247 116.629 761.572 116.347 761.807 115.984C762.042 115.611 762.159 115.179 762.159 114.688C762.159 113.952 761.903 113.365 761.391 112.928C760.89 112.491 760.207 112.272 759.343 112.272C758.767 112.272 758.266 112.379 757.839 112.592C757.412 112.805 757.076 113.099 756.831 113.472C756.586 113.835 756.463 114.251 756.463 114.72C756.463 115.125 756.575 115.515 756.799 115.888C757.023 116.251 757.354 116.549 757.791 116.784C758.239 117.008 758.783 117.12 759.423 117.12ZM769.074 118.08C768.242 118.08 767.495 117.899 766.834 117.536C766.183 117.163 765.671 116.656 765.298 116.016C764.924 115.365 764.738 114.624 764.738 113.792C764.738 112.949 764.924 112.208 765.298 111.568C765.671 110.928 766.183 110.427 766.834 110.064C767.495 109.701 768.242 109.52 769.074 109.52C769.788 109.52 770.434 109.659 771.01 109.936C771.586 110.213 772.039 110.629 772.37 111.184L771.522 111.76C771.234 111.333 770.876 111.019 770.45 110.816C770.023 110.613 769.559 110.512 769.058 110.512C768.46 110.512 767.922 110.651 767.442 110.928C766.962 111.195 766.583 111.573 766.306 112.064C766.028 112.555 765.89 113.131 765.89 113.792C765.89 114.453 766.028 115.029 766.306 115.52C766.583 116.011 766.962 116.395 767.442 116.672C767.922 116.939 768.46 117.072 769.058 117.072C769.559 117.072 770.023 116.971 770.45 116.768C770.876 116.565 771.234 116.256 771.522 115.84L772.37 116.416C772.039 116.96 771.586 117.376 771.01 117.664C770.434 117.941 769.788 118.08 769.074 118.08ZM773.234 115.056V114.224L779.17 106.8H780.45L774.562 114.224L773.938 114.032H782.946V115.056H773.234ZM779.554 118V115.056L779.586 114.032V111.44H780.706V118H779.554ZM785.55 118V107.28L786.062 107.824H782.91V106.8H786.702V118H785.55ZM789.443 120.336L790.147 117.376L790.275 118.064C790.03 118.064 789.822 117.984 789.651 117.824C789.491 117.664 789.411 117.456 789.411 117.2C789.411 116.944 789.491 116.736 789.651 116.576C789.822 116.416 790.024 116.336 790.259 116.336C790.504 116.336 790.702 116.421 790.851 116.592C791.011 116.763 791.091 116.965 791.091 117.2C791.091 117.285 791.086 117.371 791.075 117.456C791.064 117.541 791.043 117.637 791.011 117.744C790.979 117.851 790.936 117.979 790.883 118.128L790.211 120.336H789.443ZM524.784 138V127.28L525.296 127.824H522.144V126.8H525.936V138H524.784ZM528.405 138V137.184L533.061 132.624C533.488 132.208 533.808 131.845 534.021 131.536C534.235 131.216 534.379 130.917 534.453 130.64C534.528 130.363 534.565 130.101 534.565 129.856C534.565 129.205 534.341 128.693 533.893 128.32C533.456 127.947 532.805 127.76 531.941 127.76C531.28 127.76 530.693 127.861 530.181 128.064C529.68 128.267 529.248 128.581 528.885 129.008L528.069 128.304C528.507 127.792 529.067 127.397 529.749 127.12C530.432 126.843 531.195 126.704 532.037 126.704C532.795 126.704 533.451 126.827 534.005 127.072C534.56 127.307 534.987 127.653 535.285 128.112C535.595 128.571 535.749 129.109 535.749 129.728C535.749 130.091 535.696 130.448 535.589 130.8C535.493 131.152 535.312 131.525 535.045 131.92C534.789 132.304 534.411 132.741 533.909 133.232L529.637 137.424L529.317 136.976H536.261V138H528.405ZM541.243 138.096C540.443 138.096 539.68 137.968 538.955 137.712C538.23 137.445 537.654 137.093 537.227 136.656L537.787 135.744C538.139 136.117 538.619 136.427 539.227 136.672C539.846 136.917 540.512 137.04 541.227 137.04C542.176 137.04 542.896 136.832 543.387 136.416C543.888 135.989 544.139 135.435 544.139 134.752C544.139 134.272 544.022 133.861 543.787 133.52C543.563 133.168 543.179 132.896 542.635 132.704C542.091 132.512 541.344 132.416 540.395 132.416H538.011L538.587 126.8H544.715V127.824H539.051L539.643 127.264L539.147 131.968L538.555 131.392H540.651C541.782 131.392 542.688 131.531 543.371 131.808C544.054 132.085 544.544 132.475 544.843 132.976C545.152 133.467 545.307 134.043 545.307 134.704C545.307 135.333 545.158 135.909 544.859 136.432C544.56 136.944 544.112 137.349 543.515 137.648C542.918 137.947 542.16 138.096 541.243 138.096ZM548.722 138V127.28L549.234 127.824H546.082V126.8H549.874V138H548.722ZM557.143 138.096C556.151 138.096 555.313 137.877 554.631 137.44C553.948 136.992 553.431 136.352 553.079 135.52C552.727 134.677 552.551 133.669 552.551 132.496C552.551 131.227 552.764 130.165 553.191 129.312C553.628 128.448 554.231 127.797 554.999 127.36C555.767 126.923 556.657 126.704 557.671 126.704C558.172 126.704 558.652 126.752 559.111 126.848C559.569 126.944 559.975 127.099 560.327 127.312L559.863 128.24C559.575 128.048 559.244 127.915 558.871 127.84C558.497 127.755 558.103 127.712 557.687 127.712C556.481 127.712 555.516 128.096 554.791 128.864C554.076 129.632 553.719 130.779 553.719 132.304C553.719 132.539 553.729 132.832 553.751 133.184C553.783 133.525 553.847 133.867 553.943 134.208L553.543 133.904C553.66 133.349 553.889 132.88 554.231 132.496C554.572 132.101 554.999 131.803 555.511 131.6C556.023 131.397 556.583 131.296 557.191 131.296C557.937 131.296 558.593 131.435 559.159 131.712C559.724 131.989 560.167 132.379 560.487 132.88C560.807 133.381 560.967 133.973 560.967 134.656C560.967 135.349 560.801 135.957 560.471 136.48C560.14 136.992 559.681 137.392 559.095 137.68C558.519 137.957 557.868 138.096 557.143 138.096ZM557.095 137.12C557.628 137.12 558.097 137.024 558.503 136.832C558.919 136.629 559.244 136.347 559.479 135.984C559.713 135.611 559.831 135.179 559.831 134.688C559.831 133.952 559.575 133.365 559.063 132.928C558.561 132.491 557.879 132.272 557.015 132.272C556.439 132.272 555.937 132.379 555.511 132.592C555.084 132.805 554.748 133.099 554.503 133.472C554.257 133.835 554.135 134.251 554.135 134.72C554.135 135.125 554.247 135.515 554.471 135.888C554.695 136.251 555.025 136.549 555.463 136.784C555.911 137.008 556.455 137.12 557.095 137.12ZM564.144 138L568.976 127.312L569.328 127.824H562.4L562.992 127.264V129.92H561.856V126.8H570.08V127.616L565.392 138H564.144Z" fill="white"/>
<path d="M117.112 252V241.504L117.432 241.824H113.176V240.8H122.216V241.824H117.976L118.28 241.504V252H117.112ZM126.747 252.08C125.873 252.08 125.105 251.899 124.443 251.536C123.782 251.163 123.265 250.656 122.891 250.016C122.518 249.365 122.331 248.624 122.331 247.792C122.331 246.96 122.507 246.224 122.859 245.584C123.222 244.944 123.713 244.443 124.331 244.08C124.961 243.707 125.665 243.52 126.443 243.52C127.233 243.52 127.931 243.701 128.539 244.064C129.158 244.416 129.643 244.917 129.995 245.568C130.347 246.208 130.523 246.949 130.523 247.792C130.523 247.845 130.518 247.904 130.507 247.968C130.507 248.021 130.507 248.08 130.507 248.144H123.195V247.296H129.899L129.451 247.632C129.451 247.024 129.318 246.485 129.051 246.016C128.795 245.536 128.443 245.163 127.995 244.896C127.547 244.629 127.03 244.496 126.443 244.496C125.867 244.496 125.35 244.629 124.891 244.896C124.433 245.163 124.075 245.536 123.819 246.016C123.563 246.496 123.435 247.045 123.435 247.664V247.84C123.435 248.48 123.574 249.045 123.851 249.536C124.139 250.016 124.534 250.395 125.035 250.672C125.547 250.939 126.129 251.072 126.779 251.072C127.291 251.072 127.766 250.981 128.203 250.8C128.651 250.619 129.035 250.341 129.355 249.968L129.995 250.704C129.622 251.152 129.153 251.493 128.587 251.728C128.033 251.963 127.419 252.08 126.747 252.08ZM131.428 252L134.98 247.392L134.964 247.952L131.588 243.6H132.868L135.636 247.2L135.156 247.184L137.924 243.6H139.172L135.764 248L135.78 247.392L139.364 252H138.068L135.14 248.16L135.588 248.224L132.708 252H131.428ZM141.225 252V243.6H142.361V247.312H147.657V243.6H148.793V252H147.657V248.288H142.361V252H141.225ZM155.478 252.08C154.668 252.08 153.937 251.899 153.286 251.536C152.646 251.163 152.14 250.656 151.766 250.016C151.393 249.365 151.206 248.624 151.206 247.792C151.206 246.949 151.393 246.208 151.766 245.568C152.14 244.928 152.646 244.427 153.286 244.064C153.926 243.701 154.657 243.52 155.478 243.52C156.31 243.52 157.046 243.701 157.686 244.064C158.337 244.427 158.844 244.928 159.206 245.568C159.58 246.208 159.766 246.949 159.766 247.792C159.766 248.624 159.58 249.365 159.206 250.016C158.844 250.656 158.337 251.163 157.686 251.536C157.036 251.899 156.3 252.08 155.478 252.08ZM155.478 251.072C156.086 251.072 156.625 250.939 157.094 250.672C157.564 250.395 157.932 250.011 158.198 249.52C158.476 249.019 158.614 248.443 158.614 247.792C158.614 247.131 158.476 246.555 158.198 246.064C157.932 245.573 157.564 245.195 157.094 244.928C156.625 244.651 156.092 244.512 155.494 244.512C154.897 244.512 154.364 244.651 153.894 244.928C153.425 245.195 153.052 245.573 152.774 246.064C152.497 246.555 152.358 247.131 152.358 247.792C152.358 248.443 152.497 249.019 152.774 249.52C153.052 250.011 153.425 250.395 153.894 250.672C154.364 250.939 154.892 251.072 155.478 251.072ZM160.611 251.984L160.691 251.008C160.766 251.019 160.835 251.035 160.899 251.056C160.974 251.067 161.038 251.072 161.091 251.072C161.433 251.072 161.705 250.944 161.907 250.688C162.121 250.432 162.281 250.091 162.387 249.664C162.494 249.237 162.569 248.757 162.611 248.224C162.654 247.68 162.691 247.136 162.723 246.592L162.867 243.6H169.027V252H167.891V244.256L168.179 244.592H163.603L163.875 244.24L163.747 246.672C163.715 247.397 163.657 248.091 163.571 248.752C163.497 249.413 163.374 249.995 163.203 250.496C163.043 250.997 162.819 251.392 162.531 251.68C162.243 251.957 161.875 252.096 161.427 252.096C161.299 252.096 161.166 252.085 161.027 252.064C160.899 252.043 160.761 252.016 160.611 251.984ZM175.713 252.08C174.902 252.08 174.171 251.899 173.521 251.536C172.881 251.163 172.374 250.656 172.001 250.016C171.627 249.365 171.441 248.624 171.441 247.792C171.441 246.949 171.627 246.208 172.001 245.568C172.374 244.928 172.881 244.427 173.521 244.064C174.161 243.701 174.891 243.52 175.713 243.52C176.545 243.52 177.281 243.701 177.921 244.064C178.571 244.427 179.078 244.928 179.441 245.568C179.814 246.208 180.001 246.949 180.001 247.792C180.001 248.624 179.814 249.365 179.441 250.016C179.078 250.656 178.571 251.163 177.921 251.536C177.27 251.899 176.534 252.08 175.713 252.08ZM175.713 251.072C176.321 251.072 176.859 250.939 177.329 250.672C177.798 250.395 178.166 250.011 178.433 249.52C178.71 249.019 178.849 248.443 178.849 247.792C178.849 247.131 178.71 246.555 178.433 246.064C178.166 245.573 177.798 245.195 177.329 244.928C176.859 244.651 176.326 244.512 175.729 244.512C175.131 244.512 174.598 244.651 174.129 244.928C173.659 245.195 173.286 245.573 173.009 246.064C172.731 246.555 172.593 247.131 172.593 247.792C172.593 248.443 172.731 249.019 173.009 249.52C173.286 250.011 173.659 250.395 174.129 250.672C174.598 250.939 175.126 251.072 175.713 251.072ZM182.429 252V243.6H188.381V244.592H183.277L183.565 244.304V252H182.429ZM190.022 252V243.6H191.158V250.272L196.774 243.6H197.782V252H196.646V245.312L191.046 252H190.022ZM201.038 252V243.6H202.174V250.272L207.79 243.6H208.798V252H207.662V245.312L202.062 252H201.038ZM223.953 251.44V241.824H218.593L218.497 244.544C218.465 245.387 218.412 246.197 218.337 246.976C218.273 247.744 218.166 248.437 218.017 249.056C217.878 249.664 217.686 250.16 217.441 250.544C217.206 250.928 216.897 251.152 216.513 251.216L215.217 250.976C215.644 250.997 215.996 250.843 216.273 250.512C216.561 250.181 216.78 249.717 216.929 249.12C217.089 248.523 217.206 247.824 217.281 247.024C217.356 246.224 217.409 245.36 217.441 244.432L217.569 240.8H225.121V251.44H223.953ZM214.801 254.512L214.817 250.976H226.801V254.512H225.697V252H215.921L215.905 254.512H214.801ZM232.166 252.08C231.355 252.08 230.624 251.899 229.974 251.536C229.334 251.163 228.827 250.656 228.454 250.016C228.08 249.365 227.894 248.624 227.894 247.792C227.894 246.949 228.08 246.208 228.454 245.568C228.827 244.928 229.334 244.427 229.974 244.064C230.614 243.701 231.344 243.52 232.166 243.52C232.998 243.52 233.734 243.701 234.374 244.064C235.024 244.427 235.531 244.928 235.894 245.568C236.267 246.208 236.454 246.949 236.454 247.792C236.454 248.624 236.267 249.365 235.894 250.016C235.531 250.656 235.024 251.163 234.374 251.536C233.723 251.899 232.987 252.08 232.166 252.08ZM232.166 251.072C232.774 251.072 233.312 250.939 233.782 250.672C234.251 250.395 234.619 250.011 234.886 249.52C235.163 249.019 235.302 248.443 235.302 247.792C235.302 247.131 235.163 246.555 234.886 246.064C234.619 245.573 234.251 245.195 233.782 244.928C233.312 244.651 232.779 244.512 232.182 244.512C231.584 244.512 231.051 244.651 230.582 244.928C230.112 245.195 229.739 245.573 229.462 246.064C229.184 246.555 229.046 247.131 229.046 247.792C229.046 248.443 229.184 249.019 229.462 249.52C229.739 250.011 230.112 250.395 230.582 250.672C231.051 250.939 231.579 251.072 232.166 251.072ZM238.882 252V243.6H242.594C243.543 243.6 244.29 243.781 244.834 244.144C245.388 244.507 245.666 245.04 245.666 245.744C245.666 246.427 245.404 246.955 244.882 247.328C244.359 247.691 243.671 247.872 242.818 247.872L243.042 247.536C244.044 247.536 244.78 247.723 245.25 248.096C245.719 248.469 245.954 249.008 245.954 249.712C245.954 250.437 245.687 251.003 245.154 251.408C244.631 251.803 243.815 252 242.706 252H238.882ZM239.986 251.104H242.658C243.372 251.104 243.911 250.992 244.274 250.768C244.647 250.533 244.834 250.16 244.834 249.648C244.834 249.136 244.668 248.763 244.338 248.528C244.007 248.293 243.484 248.176 242.77 248.176H239.986V251.104ZM239.986 247.328H242.514C243.164 247.328 243.66 247.205 244.002 246.96C244.354 246.715 244.53 246.357 244.53 245.888C244.53 245.419 244.354 245.067 244.002 244.832C243.66 244.597 243.164 244.48 242.514 244.48H239.986V247.328ZM252.216 252.08C251.341 252.08 250.573 251.899 249.912 251.536C249.251 251.163 248.733 250.656 248.36 250.016C247.987 249.365 247.8 248.624 247.8 247.792C247.8 246.96 247.976 246.224 248.328 245.584C248.691 244.944 249.181 244.443 249.8 244.08C250.429 243.707 251.133 243.52 251.912 243.52C252.701 243.52 253.4 243.701 254.008 244.064C254.627 244.416 255.112 244.917 255.464 245.568C255.816 246.208 255.992 246.949 255.992 247.792C255.992 247.845 255.987 247.904 255.976 247.968C255.976 248.021 255.976 248.08 255.976 248.144H248.664V247.296H255.368L254.92 247.632C254.92 247.024 254.787 246.485 254.52 246.016C254.264 245.536 253.912 245.163 253.464 244.896C253.016 244.629 252.499 244.496 251.912 244.496C251.336 244.496 250.819 244.629 250.36 244.896C249.901 245.163 249.544 245.536 249.288 246.016C249.032 246.496 248.904 247.045 248.904 247.664V247.84C248.904 248.48 249.043 249.045 249.32 249.536C249.608 250.016 250.003 250.395 250.504 250.672C251.016 250.939 251.597 251.072 252.248 251.072C252.76 251.072 253.235 250.981 253.672 250.8C254.12 250.619 254.504 250.341 254.824 249.968L255.464 250.704C255.091 251.152 254.621 251.493 254.056 251.728C253.501 251.963 252.888 252.08 252.216 252.08ZM262.843 252.08C262.117 252.08 261.461 251.915 260.875 251.584C260.288 251.243 259.819 250.757 259.467 250.128C259.125 249.488 258.955 248.709 258.955 247.792C258.955 246.875 259.125 246.101 259.467 245.472C259.808 244.832 260.272 244.347 260.859 244.016C261.445 243.685 262.107 243.52 262.843 243.52C263.643 243.52 264.357 243.701 264.987 244.064C265.627 244.416 266.128 244.917 266.491 245.568C266.853 246.208 267.035 246.949 267.035 247.792C267.035 248.645 266.853 249.392 266.491 250.032C266.128 250.672 265.627 251.173 264.987 251.536C264.357 251.899 263.643 252.08 262.843 252.08ZM258.507 255.104V243.6H259.595V246.128L259.483 247.808L259.643 249.504V255.104H258.507ZM262.763 251.072C263.36 251.072 263.893 250.939 264.363 250.672C264.832 250.395 265.205 250.011 265.483 249.52C265.76 249.019 265.899 248.443 265.899 247.792C265.899 247.141 265.76 246.571 265.483 246.08C265.205 245.589 264.832 245.205 264.363 244.928C263.893 244.651 263.36 244.512 262.763 244.512C262.165 244.512 261.627 244.651 261.147 244.928C260.677 245.205 260.304 245.589 260.027 246.08C259.76 246.571 259.627 247.141 259.627 247.792C259.627 248.443 259.76 249.019 260.027 249.52C260.304 250.011 260.677 250.395 261.147 250.672C261.627 250.939 262.165 251.072 262.763 251.072ZM269.475 252V243.6H270.611V250.272L276.227 243.6H277.235V252H276.099V245.312L270.499 252H269.475ZM285.915 252V248.976L286.123 249.216H283.275C282.198 249.216 281.355 248.981 280.747 248.512C280.139 248.043 279.835 247.36 279.835 246.464C279.835 245.504 280.16 244.789 280.811 244.32C281.462 243.84 282.331 243.6 283.419 243.6H286.955V252H285.915ZM279.771 252L282.075 248.768H283.259L281.003 252H279.771ZM285.915 248.64V244.256L286.123 244.592H283.451C282.672 244.592 282.064 244.741 281.627 245.04C281.2 245.339 280.987 245.824 280.987 246.496C280.987 247.744 281.782 248.368 283.371 248.368H286.123L285.915 248.64Z" fill="white"/>
<path d="M122.552 158L118.248 152.416L119.208 151.84L123.912 158H122.552ZM114.888 158V146.8H116.04V158H114.888ZM115.688 152.864V151.824H119.192V152.864H115.688ZM119.304 152.528L118.216 152.336L122.392 146.8H123.672L119.304 152.528ZM128.822 158.08C128.011 158.08 127.281 157.899 126.63 157.536C125.99 157.163 125.483 156.656 125.11 156.016C124.737 155.365 124.55 154.624 124.55 153.792C124.55 152.949 124.737 152.208 125.11 151.568C125.483 150.928 125.99 150.427 126.63 150.064C127.27 149.701 128.001 149.52 128.822 149.52C129.654 149.52 130.39 149.701 131.03 150.064C131.681 150.427 132.187 150.928 132.55 151.568C132.923 152.208 133.11 152.949 133.11 153.792C133.11 154.624 132.923 155.365 132.55 156.016C132.187 156.656 131.681 157.163 131.03 157.536C130.379 157.899 129.643 158.08 128.822 158.08ZM128.822 157.072C129.43 157.072 129.969 156.939 130.438 156.672C130.907 156.395 131.275 156.011 131.542 155.52C131.819 155.019 131.958 154.443 131.958 153.792C131.958 153.131 131.819 152.555 131.542 152.064C131.275 151.573 130.907 151.195 130.438 150.928C129.969 150.651 129.435 150.512 128.838 150.512C128.241 150.512 127.707 150.651 127.238 150.928C126.769 151.195 126.395 151.573 126.118 152.064C125.841 152.555 125.702 153.131 125.702 153.792C125.702 154.443 125.841 155.019 126.118 155.52C126.395 156.011 126.769 156.395 127.238 156.672C127.707 156.939 128.235 157.072 128.822 157.072ZM135.538 158V149.6H136.69L140.498 156.048H140.018L143.89 149.6H144.946V158H143.906V150.896L144.114 150.992L140.498 156.976H139.986L136.338 150.928L136.578 150.88V158H135.538ZM153.395 158V156.144L153.347 155.84V152.736C153.347 152.021 153.144 151.472 152.739 151.088C152.344 150.704 151.752 150.512 150.963 150.512C150.419 150.512 149.901 150.603 149.411 150.784C148.92 150.965 148.504 151.205 148.163 151.504L147.651 150.656C148.077 150.293 148.589 150.016 149.187 149.824C149.784 149.621 150.413 149.52 151.075 149.52C152.163 149.52 153 149.792 153.587 150.336C154.184 150.869 154.483 151.685 154.483 152.784V158H153.395ZM150.499 158.08C149.869 158.08 149.32 157.979 148.851 157.776C148.392 157.563 148.04 157.275 147.795 156.912C147.549 156.539 147.427 156.112 147.427 155.632C147.427 155.195 147.528 154.8 147.731 154.448C147.944 154.085 148.285 153.797 148.755 153.584C149.235 153.36 149.875 153.248 150.674 153.248H153.571V154.096H150.707C149.896 154.096 149.331 154.24 149.011 154.528C148.701 154.816 148.547 155.173 148.547 155.6C148.547 156.08 148.733 156.464 149.107 156.752C149.48 157.04 150.003 157.184 150.674 157.184C151.315 157.184 151.864 157.04 152.323 156.752C152.792 156.453 153.133 156.027 153.347 155.472L153.603 156.256C153.389 156.811 153.016 157.253 152.483 157.584C151.96 157.915 151.299 158.08 150.499 158.08ZM157.507 158V149.6H158.643V153.312H163.939V149.6H165.075V158H163.939V154.288H158.643V158H157.507ZM174.064 157.456V150.592H170.016L169.92 152.464C169.898 153.029 169.861 153.584 169.808 154.128C169.765 154.672 169.685 155.173 169.568 155.632C169.461 156.08 169.306 156.448 169.104 156.736C168.901 157.013 168.64 157.173 168.32 157.216L167.184 157.008C167.514 157.019 167.786 156.901 168 156.656C168.213 156.4 168.378 156.053 168.496 155.616C168.613 155.179 168.698 154.683 168.752 154.128C168.805 153.563 168.848 152.987 168.88 152.4L168.992 149.6H175.2V157.456H174.064ZM166.832 160.032V157.008H176.512V160.032H175.44V158H167.904V160.032H166.832ZM183.941 158V156.144L183.893 155.84V152.736C183.893 152.021 183.691 151.472 183.285 151.088C182.891 150.704 182.299 150.512 181.509 150.512C180.965 150.512 180.448 150.603 179.957 150.784C179.467 150.965 179.051 151.205 178.709 151.504L178.197 150.656C178.624 150.293 179.136 150.016 179.733 149.824C180.331 149.621 180.96 149.52 181.621 149.52C182.709 149.52 183.547 149.792 184.133 150.336C184.731 150.869 185.029 151.685 185.029 152.784V158H183.941ZM181.045 158.08C180.416 158.08 179.867 157.979 179.397 157.776C178.939 157.563 178.587 157.275 178.341 156.912C178.096 156.539 177.973 156.112 177.973 155.632C177.973 155.195 178.075 154.8 178.277 154.448C178.491 154.085 178.832 153.797 179.301 153.584C179.781 153.36 180.421 153.248 181.221 153.248H184.117V154.096H181.253C180.443 154.096 179.877 154.24 179.557 154.528C179.248 154.816 179.093 155.173 179.093 155.6C179.093 156.08 179.28 156.464 179.653 156.752C180.027 157.04 180.549 157.184 181.221 157.184C181.861 157.184 182.411 157.04 182.869 156.752C183.339 156.453 183.68 156.027 183.893 155.472L184.149 156.256C183.936 156.811 183.563 157.253 183.029 157.584C182.507 157.915 181.845 158.08 181.045 158.08ZM114.888 178V166.8H116.056V176.976H122.824V166.8H123.992V178H114.888ZM124.664 180.624V177.68L124.968 178H122.824V176.976H125.768V180.624H124.664ZM127.85 178V169.6H128.986V176.272L134.602 169.6H135.61V178H134.474V171.312L128.874 178H127.85ZM143.586 178.096C143.586 178.096 143.565 178.096 143.522 178.096C143.479 178.096 143.437 178.096 143.394 178.096C143.362 178.096 143.335 178.096 143.314 178.096C141.65 178.085 140.354 177.707 139.426 176.96C138.498 176.213 138.034 175.152 138.034 173.776C138.034 172.421 138.498 171.376 139.426 170.64C140.365 169.893 141.682 169.515 143.378 169.504C143.389 169.504 143.41 169.504 143.442 169.504C143.485 169.504 143.522 169.504 143.554 169.504C143.586 169.504 143.607 169.504 143.618 169.504C145.325 169.515 146.653 169.893 147.602 170.64C148.551 171.376 149.026 172.421 149.026 173.776C149.026 175.163 148.546 176.229 147.586 176.976C146.637 177.723 145.303 178.096 143.586 178.096ZM143.57 177.104C144.519 177.104 145.314 176.976 145.954 176.72C146.594 176.453 147.079 176.075 147.41 175.584C147.741 175.093 147.906 174.491 147.906 173.776C147.906 173.083 147.741 172.496 147.41 172.016C147.079 171.525 146.594 171.152 145.954 170.896C145.314 170.64 144.519 170.512 143.57 170.512C143.559 170.512 143.527 170.512 143.474 170.512C143.431 170.512 143.405 170.512 143.394 170.512C142.466 170.512 141.687 170.645 141.058 170.912C140.429 171.168 139.954 171.536 139.634 172.016C139.314 172.496 139.154 173.083 139.154 173.776C139.154 174.48 139.314 175.077 139.634 175.568C139.965 176.059 140.445 176.437 141.074 176.704C141.703 176.96 142.477 177.093 143.394 177.104C143.415 177.104 143.447 177.104 143.49 177.104C143.533 177.104 143.559 177.104 143.57 177.104ZM142.962 181.104V166.128H144.066V181.104H142.962ZM155.765 178.08C155.039 178.08 154.383 177.915 153.797 177.584C153.21 177.243 152.741 176.757 152.389 176.128C152.047 175.488 151.877 174.709 151.877 173.792C151.877 172.875 152.047 172.101 152.389 171.472C152.73 170.832 153.194 170.347 153.781 170.016C154.367 169.685 155.029 169.52 155.765 169.52C156.565 169.52 157.279 169.701 157.909 170.064C158.549 170.416 159.05 170.917 159.413 171.568C159.775 172.208 159.957 172.949 159.957 173.792C159.957 174.645 159.775 175.392 159.413 176.032C159.05 176.672 158.549 177.173 157.909 177.536C157.279 177.899 156.565 178.08 155.765 178.08ZM151.429 181.104V169.6H152.517V172.128L152.405 173.808L152.565 175.504V181.104H151.429ZM155.685 177.072C156.282 177.072 156.815 176.939 157.285 176.672C157.754 176.395 158.127 176.011 158.405 175.52C158.682 175.019 158.821 174.443 158.821 173.792C158.821 173.141 158.682 172.571 158.405 172.08C158.127 171.589 157.754 171.205 157.285 170.928C156.815 170.651 156.282 170.512 155.685 170.512C155.087 170.512 154.549 170.651 154.069 170.928C153.599 171.205 153.226 171.589 152.949 172.08C152.682 172.571 152.549 173.141 152.549 173.792C152.549 174.443 152.682 175.019 152.949 175.52C153.226 176.011 153.599 176.395 154.069 176.672C154.549 176.939 155.087 177.072 155.685 177.072ZM165.853 178.08C165.043 178.08 164.312 177.899 163.661 177.536C163.021 177.163 162.515 176.656 162.141 176.016C161.768 175.365 161.581 174.624 161.581 173.792C161.581 172.949 161.768 172.208 162.141 171.568C162.515 170.928 163.021 170.427 163.661 170.064C164.301 169.701 165.032 169.52 165.853 169.52C166.685 169.52 167.421 169.701 168.061 170.064C168.712 170.427 169.219 170.928 169.581 171.568C169.955 172.208 170.141 172.949 170.141 173.792C170.141 174.624 169.955 175.365 169.581 176.016C169.219 176.656 168.712 177.163 168.061 177.536C167.411 177.899 166.675 178.08 165.853 178.08ZM165.853 177.072C166.461 177.072 167 176.939 167.469 176.672C167.939 176.395 168.307 176.011 168.573 175.52C168.851 175.019 168.989 174.443 168.989 173.792C168.989 173.131 168.851 172.555 168.573 172.064C168.307 171.573 167.939 171.195 167.469 170.928C167 170.651 166.467 170.512 165.869 170.512C165.272 170.512 164.739 170.651 164.269 170.928C163.8 171.195 163.427 171.573 163.149 172.064C162.872 172.555 162.733 173.131 162.733 173.792C162.733 174.443 162.872 175.019 163.149 175.52C163.427 176.011 163.8 176.395 164.269 176.672C164.739 176.939 165.267 177.072 165.853 177.072ZM172.569 178V169.6H176.281C177.23 169.6 177.977 169.781 178.521 170.144C179.076 170.507 179.353 171.04 179.353 171.744C179.353 172.427 179.092 172.955 178.569 173.328C178.046 173.691 177.358 173.872 176.505 173.872L176.729 173.536C177.732 173.536 178.468 173.723 178.937 174.096C179.406 174.469 179.641 175.008 179.641 175.712C179.641 176.437 179.374 177.003 178.841 177.408C178.318 177.803 177.502 178 176.393 178H172.569ZM173.673 177.104H176.345C177.06 177.104 177.598 176.992 177.961 176.768C178.334 176.533 178.521 176.16 178.521 175.648C178.521 175.136 178.356 174.763 178.025 174.528C177.694 174.293 177.172 174.176 176.457 174.176H173.673V177.104ZM173.673 173.328H176.201C176.852 173.328 177.348 173.205 177.689 172.96C178.041 172.715 178.217 172.357 178.217 171.888C178.217 171.419 178.041 171.067 177.689 170.832C177.348 170.597 176.852 170.48 176.201 170.48H173.673V173.328ZM185.76 178.08C184.949 178.08 184.218 177.899 183.568 177.536C182.928 177.163 182.421 176.656 182.048 176.016C181.674 175.365 181.488 174.624 181.488 173.792C181.488 172.949 181.674 172.208 182.048 171.568C182.421 170.928 182.928 170.427 183.568 170.064C184.208 169.701 184.938 169.52 185.76 169.52C186.592 169.52 187.328 169.701 187.968 170.064C188.618 170.427 189.125 170.928 189.488 171.568C189.861 172.208 190.048 172.949 190.048 173.792C190.048 174.624 189.861 175.365 189.488 176.016C189.125 176.656 188.618 177.163 187.968 177.536C187.317 177.899 186.581 178.08 185.76 178.08ZM185.76 177.072C186.368 177.072 186.906 176.939 187.376 176.672C187.845 176.395 188.213 176.011 188.48 175.52C188.757 175.019 188.896 174.443 188.896 173.792C188.896 173.131 188.757 172.555 188.48 172.064C188.213 171.573 187.845 171.195 187.376 170.928C186.906 170.651 186.373 170.512 185.776 170.512C185.178 170.512 184.645 170.651 184.176 170.928C183.706 171.195 183.333 171.573 183.056 172.064C182.778 172.555 182.64 173.131 182.64 173.792C182.64 174.443 182.778 175.019 183.056 175.52C183.333 176.011 183.706 176.395 184.176 176.672C184.645 176.939 185.173 177.072 185.76 177.072ZM192.475 178V169.6H193.611V176.272L199.227 169.6H200.235V178H199.099V171.312L193.499 178H192.475ZM196.283 168.384C195.579 168.384 195.009 168.208 194.571 167.856C194.145 167.493 193.921 166.976 193.899 166.304H194.715C194.726 166.731 194.875 167.067 195.163 167.312C195.451 167.557 195.825 167.68 196.283 167.68C196.742 167.68 197.115 167.557 197.403 167.312C197.702 167.067 197.857 166.731 197.867 166.304H198.683C198.673 166.976 198.449 167.493 198.011 167.856C197.574 168.208 196.998 168.384 196.283 168.384ZM209.279 178V170.288L209.567 170.592H206.095V169.6H213.599V170.592H210.127L210.415 170.288V178H209.279ZM219.577 178.08C218.852 178.08 218.196 177.915 217.609 177.584C217.022 177.243 216.553 176.757 216.201 176.128C215.86 175.488 215.689 174.709 215.689 173.792C215.689 172.875 215.86 172.101 216.201 171.472C216.542 170.832 217.006 170.347 217.593 170.016C218.18 169.685 218.841 169.52 219.577 169.52C220.377 169.52 221.092 169.701 221.721 170.064C222.361 170.416 222.862 170.917 223.225 171.568C223.588 172.208 223.769 172.949 223.769 173.792C223.769 174.645 223.588 175.392 223.225 176.032C222.862 176.672 222.361 177.173 221.721 177.536C221.092 177.899 220.377 178.08 219.577 178.08ZM215.241 181.104V169.6H216.329V172.128L216.217 173.808L216.377 175.504V181.104H215.241ZM219.497 177.072C220.094 177.072 220.628 176.939 221.097 176.672C221.566 176.395 221.94 176.011 222.217 175.52C222.494 175.019 222.633 174.443 222.633 173.792C222.633 173.141 222.494 172.571 222.217 172.08C221.94 171.589 221.566 171.205 221.097 170.928C220.628 170.651 220.094 170.512 219.497 170.512C218.9 170.512 218.361 170.651 217.881 170.928C217.412 171.205 217.038 171.589 216.761 172.08C216.494 172.571 216.361 173.141 216.361 173.792C216.361 174.443 216.494 175.019 216.761 175.52C217.038 176.011 217.412 176.395 217.881 176.672C218.361 176.939 218.9 177.072 219.497 177.072ZM231.379 178V176.144L231.331 175.84V172.736C231.331 172.021 231.128 171.472 230.723 171.088C230.328 170.704 229.736 170.512 228.947 170.512C228.403 170.512 227.886 170.603 227.395 170.784C226.904 170.965 226.488 171.205 226.147 171.504L225.635 170.656C226.062 170.293 226.574 170.016 227.171 169.824C227.768 169.621 228.398 169.52 229.059 169.52C230.147 169.52 230.984 169.792 231.571 170.336C232.168 170.869 232.467 171.685 232.467 172.784V178H231.379ZM228.483 178.08C227.854 178.08 227.304 177.979 226.835 177.776C226.376 177.563 226.024 177.275 225.779 176.912C225.534 176.539 225.411 176.112 225.411 175.632C225.411 175.195 225.512 174.8 225.715 174.448C225.928 174.085 226.27 173.797 226.739 173.584C227.219 173.36 227.859 173.248 228.659 173.248H231.555V174.096H228.691C227.88 174.096 227.315 174.24 226.995 174.528C226.686 174.816 226.531 175.173 226.531 175.6C226.531 176.08 226.718 176.464 227.091 176.752C227.464 177.04 227.987 177.184 228.659 177.184C229.299 177.184 229.848 177.04 230.307 176.752C230.776 176.453 231.118 176.027 231.331 175.472L231.587 176.256C231.374 176.811 231 177.253 230.467 177.584C229.944 177.915 229.283 178.08 228.483 178.08ZM235.491 178V169.6H236.627V173.312H241.923V169.6H243.059V178H241.923V174.288H236.627V178H235.491ZM249.808 178.08C248.976 178.08 248.229 177.899 247.568 177.536C246.917 177.163 246.405 176.656 246.032 176.016C245.659 175.365 245.472 174.624 245.472 173.792C245.472 172.949 245.659 172.208 246.032 171.568C246.405 170.928 246.917 170.427 247.568 170.064C248.229 169.701 248.976 169.52 249.808 169.52C250.523 169.52 251.168 169.659 251.744 169.936C252.32 170.213 252.773 170.629 253.104 171.184L252.256 171.76C251.968 171.333 251.611 171.019 251.184 170.816C250.757 170.613 250.293 170.512 249.792 170.512C249.195 170.512 248.656 170.651 248.176 170.928C247.696 171.195 247.317 171.573 247.04 172.064C246.763 172.555 246.624 173.131 246.624 173.792C246.624 174.453 246.763 175.029 247.04 175.52C247.317 176.011 247.696 176.395 248.176 176.672C248.656 176.939 249.195 177.072 249.792 177.072C250.293 177.072 250.757 176.971 251.184 176.768C251.611 176.565 251.968 176.256 252.256 175.84L253.104 176.416C252.773 176.96 252.32 177.376 251.744 177.664C251.168 177.941 250.523 178.08 249.808 178.08ZM259.883 178.096C259.883 178.096 259.862 178.096 259.819 178.096C259.776 178.096 259.734 178.096 259.691 178.096C259.659 178.096 259.632 178.096 259.611 178.096C257.947 178.085 256.651 177.707 255.723 176.96C254.795 176.213 254.331 175.152 254.331 173.776C254.331 172.421 254.795 171.376 255.723 170.64C256.662 169.893 257.979 169.515 259.675 169.504C259.686 169.504 259.707 169.504 259.739 169.504C259.782 169.504 259.819 169.504 259.851 169.504C259.883 169.504 259.904 169.504 259.915 169.504C261.622 169.515 262.95 169.893 263.899 170.64C264.848 171.376 265.323 172.421 265.323 173.776C265.323 175.163 264.843 176.229 263.883 176.976C262.934 177.723 261.6 178.096 259.883 178.096ZM259.867 177.104C260.816 177.104 261.611 176.976 262.251 176.72C262.891 176.453 263.376 176.075 263.707 175.584C264.038 175.093 264.203 174.491 264.203 173.776C264.203 173.083 264.038 172.496 263.707 172.016C263.376 171.525 262.891 171.152 262.251 170.896C261.611 170.64 260.816 170.512 259.867 170.512C259.856 170.512 259.824 170.512 259.771 170.512C259.728 170.512 259.702 170.512 259.691 170.512C258.763 170.512 257.984 170.645 257.355 170.912C256.726 171.168 256.251 171.536 255.931 172.016C255.611 172.496 255.451 173.083 255.451 173.776C255.451 174.48 255.611 175.077 255.931 175.568C256.262 176.059 256.742 176.437 257.371 176.704C258 176.96 258.774 177.093 259.691 177.104C259.712 177.104 259.744 177.104 259.787 177.104C259.83 177.104 259.856 177.104 259.867 177.104ZM259.259 181.104V166.128H260.363V181.104H259.259ZM271.181 178.08C270.371 178.08 269.64 177.899 268.989 177.536C268.349 177.163 267.843 176.656 267.469 176.016C267.096 175.365 266.909 174.624 266.909 173.792C266.909 172.949 267.096 172.208 267.469 171.568C267.843 170.928 268.349 170.427 268.989 170.064C269.629 169.701 270.36 169.52 271.181 169.52C272.013 169.52 272.749 169.701 273.389 170.064C274.04 170.427 274.547 170.928 274.909 171.568C275.283 172.208 275.469 172.949 275.469 173.792C275.469 174.624 275.283 175.365 274.909 176.016C274.547 176.656 274.04 177.163 273.389 177.536C272.739 177.899 272.003 178.08 271.181 178.08ZM271.181 177.072C271.789 177.072 272.328 176.939 272.797 176.672C273.267 176.395 273.635 176.011 273.901 175.52C274.179 175.019 274.317 174.443 274.317 173.792C274.317 173.131 274.179 172.555 273.901 172.064C273.635 171.573 273.267 171.195 272.797 170.928C272.328 170.651 271.795 170.512 271.197 170.512C270.6 170.512 270.067 170.651 269.597 170.928C269.128 171.195 268.755 171.573 268.477 172.064C268.2 172.555 268.061 173.131 268.061 173.792C268.061 174.443 268.2 175.019 268.477 175.52C268.755 176.011 269.128 176.395 269.597 176.672C270.067 176.939 270.595 177.072 271.181 177.072ZM282.233 178.08C281.508 178.08 280.852 177.915 280.265 177.584C279.679 177.243 279.209 176.757 278.857 176.128C278.516 175.488 278.345 174.709 278.345 173.792C278.345 172.875 278.516 172.101 278.857 171.472C279.199 170.832 279.663 170.347 280.249 170.016C280.836 169.685 281.497 169.52 282.233 169.52C283.033 169.52 283.748 169.701 284.377 170.064C285.017 170.416 285.519 170.917 285.881 171.568C286.244 172.208 286.425 172.949 286.425 173.792C286.425 174.645 286.244 175.392 285.881 176.032C285.519 176.672 285.017 177.173 284.377 177.536C283.748 177.899 283.033 178.08 282.233 178.08ZM277.897 181.104V169.6H278.985V172.128L278.873 173.808L279.033 175.504V181.104H277.897ZM282.153 177.072C282.751 177.072 283.284 176.939 283.753 176.672C284.223 176.395 284.596 176.011 284.873 175.52C285.151 175.019 285.289 174.443 285.289 173.792C285.289 173.141 285.151 172.571 284.873 172.08C284.596 171.589 284.223 171.205 283.753 170.928C283.284 170.651 282.751 170.512 282.153 170.512C281.556 170.512 281.017 170.651 280.537 170.928C280.068 171.205 279.695 171.589 279.417 172.08C279.151 172.571 279.017 173.141 279.017 173.792C279.017 174.443 279.151 175.019 279.417 175.52C279.695 176.011 280.068 176.395 280.537 176.672C281.017 176.939 281.556 177.072 282.153 177.072ZM288.866 178V169.6H290.018L293.826 176.048H293.346L297.218 169.6H298.274V178H297.234V170.896L297.442 170.992L293.826 176.976H293.314L289.666 170.928L289.906 170.88V178H288.866ZM306.723 178V176.144L306.675 175.84V172.736C306.675 172.021 306.472 171.472 306.067 171.088C305.672 170.704 305.08 170.512 304.291 170.512C303.747 170.512 303.229 170.603 302.739 170.784C302.248 170.965 301.832 171.205 301.491 171.504L300.979 170.656C301.405 170.293 301.917 170.016 302.515 169.824C303.112 169.621 303.741 169.52 304.403 169.52C305.491 169.52 306.328 169.792 306.915 170.336C307.512 170.869 307.811 171.685 307.811 172.784V178H306.723ZM303.827 178.08C303.197 178.08 302.648 177.979 302.179 177.776C301.72 177.563 301.368 177.275 301.123 176.912C300.877 176.539 300.755 176.112 300.755 175.632C300.755 175.195 300.856 174.8 301.059 174.448C301.272 174.085 301.613 173.797 302.083 173.584C302.563 173.36 303.203 173.248 304.003 173.248H306.899V174.096H304.035C303.224 174.096 302.659 174.24 302.339 174.528C302.029 174.816 301.875 175.173 301.875 175.6C301.875 176.08 302.061 176.464 302.435 176.752C302.808 177.04 303.331 177.184 304.003 177.184C304.643 177.184 305.192 177.04 305.651 176.752C306.12 176.453 306.461 176.027 306.675 175.472L306.931 176.256C306.717 176.811 306.344 177.253 305.811 177.584C305.288 177.915 304.627 178.08 303.827 178.08ZM310.835 178V169.6H311.971V177.008H317.107V169.6H318.243V178H310.835ZM318.531 180.032V177.904L318.819 178H317.107V177.008H319.603V180.032H318.531ZM321.772 178V169.6H322.908V176.272L328.524 169.6H329.532V178H328.396V171.312L322.796 178H321.772ZM332.788 178V169.6H333.924V176.272L339.54 169.6H340.548V178H339.412V171.312L333.812 178H332.788ZM114.616 198V189.6H115.752V196.272L121.368 189.6H122.376V198H121.24V191.312L115.64 198H114.616ZM130.987 194.16V193.296H135.867V194.16H130.987ZM132.107 189.52C132.96 189.52 133.723 189.707 134.395 190.08C135.067 190.443 135.595 190.949 135.979 191.6C136.374 192.24 136.571 192.971 136.571 193.792C136.571 194.613 136.374 195.349 135.979 196C135.595 196.651 135.067 197.163 134.395 197.536C133.723 197.909 132.96 198.096 132.107 198.096C131.414 198.096 130.768 197.989 130.171 197.776C129.584 197.552 129.088 197.232 128.683 196.816L129.355 196.144C129.718 196.485 130.128 196.741 130.587 196.912C131.046 197.072 131.536 197.152 132.059 197.152C132.72 197.152 133.307 197.008 133.819 196.72C134.342 196.421 134.752 196.021 135.051 195.52C135.35 195.008 135.499 194.432 135.499 193.792C135.499 193.152 135.35 192.581 135.051 192.08C134.752 191.568 134.342 191.168 133.819 190.88C133.307 190.592 132.72 190.448 132.059 190.448C131.536 190.448 131.046 190.533 130.587 190.704C130.128 190.864 129.718 191.115 129.355 191.456L128.683 190.8C129.088 190.373 129.584 190.053 130.171 189.84C130.768 189.627 131.414 189.52 132.107 189.52ZM145.12 198L141.664 193.84L142.608 193.28L146.464 198H145.12ZM138.96 198V189.6H140.096V198H138.96ZM139.744 194.256V193.28H142.448V194.256H139.744ZM142.704 193.92L141.648 193.76L144.992 189.6H146.224L142.704 193.92ZM151.416 198.08C150.605 198.08 149.874 197.899 149.224 197.536C148.584 197.163 148.077 196.656 147.704 196.016C147.33 195.365 147.144 194.624 147.144 193.792C147.144 192.949 147.33 192.208 147.704 191.568C148.077 190.928 148.584 190.427 149.224 190.064C149.864 189.701 150.594 189.52 151.416 189.52C152.248 189.52 152.984 189.701 153.624 190.064C154.274 190.427 154.781 190.928 155.144 191.568C155.517 192.208 155.704 192.949 155.704 193.792C155.704 194.624 155.517 195.365 155.144 196.016C154.781 196.656 154.274 197.163 153.624 197.536C152.973 197.899 152.237 198.08 151.416 198.08ZM151.416 197.072C152.024 197.072 152.562 196.939 153.032 196.672C153.501 196.395 153.869 196.011 154.136 195.52C154.413 195.019 154.552 194.443 154.552 193.792C154.552 193.131 154.413 192.555 154.136 192.064C153.869 191.573 153.501 191.195 153.032 190.928C152.562 190.651 152.029 190.512 151.432 190.512C150.834 190.512 150.301 190.651 149.832 190.928C149.362 191.195 148.989 191.573 148.712 192.064C148.434 192.555 148.296 193.131 148.296 193.792C148.296 194.443 148.434 195.019 148.712 195.52C148.989 196.011 149.362 196.395 149.832 196.672C150.301 196.939 150.829 197.072 151.416 197.072ZM161.652 198.08C160.82 198.08 160.073 197.899 159.412 197.536C158.761 197.163 158.249 196.656 157.876 196.016C157.502 195.365 157.316 194.624 157.316 193.792C157.316 192.949 157.502 192.208 157.876 191.568C158.249 190.928 158.761 190.427 159.412 190.064C160.073 189.701 160.82 189.52 161.652 189.52C162.366 189.52 163.012 189.659 163.588 189.936C164.164 190.213 164.617 190.629 164.948 191.184L164.1 191.76C163.812 191.333 163.454 191.019 163.028 190.816C162.601 190.613 162.137 190.512 161.636 190.512C161.038 190.512 160.5 190.651 160.02 190.928C159.54 191.195 159.161 191.573 158.884 192.064C158.606 192.555 158.468 193.131 158.468 193.792C158.468 194.453 158.606 195.029 158.884 195.52C159.161 196.011 159.54 196.395 160.02 196.672C160.5 196.939 161.038 197.072 161.636 197.072C162.137 197.072 162.601 196.971 163.028 196.768C163.454 196.565 163.812 196.256 164.1 195.84L164.948 196.416C164.617 196.96 164.164 197.376 163.588 197.664C163.012 197.941 162.366 198.08 161.652 198.08ZM167.147 198V189.6H168.283V196.272L173.899 189.6H174.907V198H173.771V191.312L168.171 198H167.147ZM181.683 198.08C180.851 198.08 180.104 197.899 179.443 197.536C178.792 197.163 178.28 196.656 177.907 196.016C177.534 195.365 177.347 194.624 177.347 193.792C177.347 192.949 177.534 192.208 177.907 191.568C178.28 190.928 178.792 190.427 179.443 190.064C180.104 189.701 180.851 189.52 181.683 189.52C182.398 189.52 183.043 189.659 183.619 189.936C184.195 190.213 184.648 190.629 184.979 191.184L184.131 191.76C183.843 191.333 183.486 191.019 183.059 190.816C182.632 190.613 182.168 190.512 181.667 190.512C181.07 190.512 180.531 190.651 180.051 190.928C179.571 191.195 179.192 191.573 178.915 192.064C178.638 192.555 178.499 193.131 178.499 193.792C178.499 194.453 178.638 195.029 178.915 195.52C179.192 196.011 179.571 196.395 180.051 196.672C180.531 196.939 181.07 197.072 181.667 197.072C182.168 197.072 182.632 196.971 183.059 196.768C183.486 196.565 183.843 196.256 184.131 195.84L184.979 196.416C184.648 196.96 184.195 197.376 183.619 197.664C183.043 197.941 182.398 198.08 181.683 198.08ZM188.622 198V190.288L188.91 190.592H185.438V189.6H192.942V190.592H189.47L189.758 190.288V198H188.622ZM197.794 198.08C196.919 198.08 196.151 197.899 195.49 197.536C194.829 197.163 194.311 196.656 193.938 196.016C193.565 195.365 193.378 194.624 193.378 193.792C193.378 192.96 193.554 192.224 193.906 191.584C194.269 190.944 194.759 190.443 195.378 190.08C196.007 189.707 196.711 189.52 197.49 189.52C198.279 189.52 198.978 189.701 199.586 190.064C200.205 190.416 200.69 190.917 201.042 191.568C201.394 192.208 201.57 192.949 201.57 193.792C201.57 193.845 201.565 193.904 201.554 193.968C201.554 194.021 201.554 194.08 201.554 194.144H194.242V193.296H200.946L200.498 193.632C200.498 193.024 200.365 192.485 200.098 192.016C199.842 191.536 199.49 191.163 199.042 190.896C198.594 190.629 198.077 190.496 197.49 190.496C196.914 190.496 196.397 190.629 195.938 190.896C195.479 191.163 195.122 191.536 194.866 192.016C194.61 192.496 194.482 193.045 194.482 193.664V193.84C194.482 194.48 194.621 195.045 194.898 195.536C195.186 196.016 195.581 196.395 196.082 196.672C196.594 196.939 197.175 197.072 197.826 197.072C198.338 197.072 198.813 196.981 199.25 196.8C199.698 196.619 200.082 196.341 200.402 195.968L201.042 196.704C200.669 197.152 200.199 197.493 199.634 197.728C199.079 197.963 198.466 198.08 197.794 198.08ZM204.085 198V189.6H205.237L209.045 196.048H208.565L212.437 189.6H213.493V198H212.453V190.896L212.661 190.992L209.045 196.976H208.533L204.885 190.928L205.125 190.88V198H204.085Z" fill="white"/>
<path d="M152.044 117.938L134.258 122.244C134.258 122.244 138.74 124.069 143.508 123.042C148.847 122.244 152.044 117.938 152.044 117.938Z" fill="white"/>
<path d="M132.745 121.417L131.717 120.704L155.213 111.607L154.442 114.231L132.745 121.417Z" fill="#9F9F9F"/>
<path d="M130.488 119.791L129.46 118.908L155.212 105.192L155.497 107.53L130.488 119.791Z" fill="#9F9F9F"/>
<path d="M128.405 117.709L127.891 116.825L152.929 99.5737L154.099 101.541L128.405 117.709Z" fill="#9F9F9F"/>
<path d="M131.573 111.921L127.033 115.856C127.033 115.856 123.522 110.41 125.891 102.967C127.804 106.018 131.573 111.921 131.573 111.921Z" fill="#9F9F9F"/>
<path d="M132.544 111.237C132.411 111.322 132.127 111.516 132.059 111.607L126.72 101.171L127.348 100.201L132.544 111.237Z" fill="#9F9F9F"/>
<path d="M133.571 110.524L133 110.866L128.689 98.2055L129.66 97.179L133.571 110.524Z" fill="#9F9F9F"/>
<path d="M134.772 109.412L134.029 110.011L131.717 95.4392L133.144 94.6123L134.772 109.412Z" fill="#9F9F9F"/>
<path d="M150.215 96.637L135.283 108.956C135.283 108.956 135.455 98.5191 135.455 93.6715C145.047 90.934 150.215 96.637 150.215 96.637Z" fill="#9F9F9F"/>
<path d="M134.685 117.012C134.685 117.012 132.23 117.12 131.453 117.623C130.875 117.996 128.989 118.188 129.151 119.081C129.565 119.472 129.935 119.798 130.262 120.08C132.264 121.643 133.94 122.17 134.549 122.381C135.159 122.591 139.839 123.944 140.796 122.164C141.754 120.384 141.68 122.71 142.08 122.706L142.087 122.705C142.895 122.509 144.513 122.116 146.695 120.666C147.217 120.319 148.197 119.494 148.48 119.211C148.763 118.929 145.716 119.025 145.716 119.025C145.716 119.025 144.608 118.211 144.382 117.962C144.156 117.713 143.625 117.623 143.625 117.623C143.625 117.623 143.456 117.08 143.241 117.012C143.026 116.945 141.805 116.899 141.805 116.899C141.805 116.899 140.664 111.404 141.229 110.794C141.794 110.183 142.857 110.036 142.857 110.036H144.382L144.608 109.46L146.677 108.951V108.454L144.382 109.121C144.382 109.121 139.556 104.361 139.602 103.841C139.647 103.32 140.144 103.49 140.144 103.49V102.393L142.099 103.49C142.099 103.49 141.06 100.076 140.37 99.6459C139.681 99.2163 135.747 99.8721 135.747 99.8721C135.747 99.8721 138.177 100.89 138.042 101.206C137.906 101.523 136.301 104.078 136.267 104.756C136.233 105.435 137.375 107.979 137.375 107.979L136.527 111.371L133.125 112.366V112.852L136.414 111.891L134.685 117.012Z" fill="white"/>
<path d="M127.27 92.5341C126.877 92.0223 126.141 91.9236 125.652 92.3446C122.709 94.8784 120.524 98.1885 119.354 101.908C118.066 106 118.07 110.388 119.363 114.478C120.657 118.568 123.178 122.16 126.584 124.767C129.99 127.375 134.116 128.87 138.402 129.051C142.687 129.232 146.925 128.089 150.539 125.779C154.152 123.468 156.967 120.1 158.601 116.134C160.234 112.168 160.607 107.795 159.669 103.61C158.817 99.8048 156.919 96.3223 154.199 93.5495C153.748 93.0888 153.006 93.1251 152.571 93.602V93.602C152.136 94.0789 152.174 94.8154 152.622 95.2793C154.988 97.7266 156.642 100.784 157.389 104.12C158.222 107.838 157.891 111.722 156.44 115.244C154.989 118.767 152.489 121.757 149.28 123.81C146.07 125.862 142.307 126.877 138.5 126.716C134.694 126.556 131.03 125.227 128.004 122.912C124.979 120.596 122.74 117.406 121.591 113.773C120.442 110.141 120.439 106.243 121.583 102.609C122.609 99.3475 124.514 96.4403 127.078 94.2012C127.564 93.7767 127.663 93.0459 127.27 92.5341V92.5341Z" fill="white"/>
<path d="M155.916 126.177L152.9 123.583C152.451 123.196 152.439 122.504 152.874 122.102C153.277 121.73 153.905 121.755 154.277 122.158L155.282 123.249C155.889 123.892 157.956 125.689 158.103 125.82C158.343 126.033 159.938 127.276 161.251 128.233C161.628 128.509 161.455 129.01 160.99 129.058C160.828 129.074 159.292 128.645 158.921 128.501C158.624 128.386 157.812 127.802 157.443 127.524L155.916 126.177Z" fill="white" stroke="white"/>
<path d="M116.439 82.2257C116.49 82.2182 116.541 82.2474 116.56 82.2629L117.948 83.7075L120.488 86.7218L123.482 90.0689L123.701 90.2315L124.033 90.1121C124.105 90.0866 124.4 90.0878 124.536 90.0927C124.671 90.0976 124.648 90.146 124.795 90.2942C124.942 90.4425 124.77 90.5981 124.781 90.7414C124.793 90.8848 124.731 90.974 124.654 91.0955C124.592 91.1927 124.463 91.3472 124.405 91.4124L125.198 92.2402L126.105 92.9282L124.819 93.9639L123.248 92.4443C123.19 92.4829 123.062 92.5619 123.011 92.5694C122.948 92.5789 122.503 92.6449 122.406 92.5992C122.309 92.5536 122.177 92.3332 122.136 92.2942C122.095 92.2552 122.189 91.8062 122.204 91.7739C122.216 91.7481 122.363 91.4936 122.434 91.3696L120.163 88.5806C119.428 87.7143 117.956 85.9801 117.943 85.974C117.927 85.9664 115.772 83.43 115.748 83.3987C115.723 83.3673 115.631 83.1859 115.614 83.1384C115.597 83.0909 115.57 82.9399 115.6 82.8753C115.631 82.8108 115.678 82.7938 115.71 82.7691C115.741 82.7444 115.874 82.6297 115.928 82.5566C115.983 82.4836 116.179 82.3594 116.218 82.3186C116.257 82.2778 116.376 82.2352 116.439 82.2257Z" fill="white"/>
<path d="M150.881 118.94C148.769 121.202 146.04 122.795 143.031 123.521C140.023 124.248 136.867 124.076 133.955 123.027C131.044 121.978 128.504 120.098 126.65 117.62C124.796 115.141 123.709 112.174 123.525 109.084C123.341 105.995 124.067 102.919 125.613 100.238C127.159 97.5573 129.458 95.3887 132.224 94.001C134.991 92.6133 138.103 92.0675 141.177 92.4312C144.25 92.7948 148.533 94.8213 150.212 96.6426L148.283 98.2497C146.287 96.567 143.478 95.1966 140.886 94.8898C138.293 94.5831 135.668 95.0435 133.334 96.214C131.001 97.3845 129.062 99.2138 127.758 101.475C126.453 103.737 125.841 106.331 125.996 108.937C126.152 111.543 127.068 114.046 128.632 116.137C130.196 118.227 132.338 119.813 134.795 120.698C137.251 121.583 139.912 121.728 142.45 121.115C144.988 120.502 148.859 120.371 150.64 118.463L150.881 118.94Z" fill="white"/>
<path d="M121.64 53L118.152 47.608L120.248 46.344L124.584 53H121.64ZM114.36 53V41.8H116.936V53H114.36ZM116.184 48.488V46.328H120.088V48.488H116.184ZM120.488 47.688L118.104 47.4L121.736 41.8H124.472L120.488 47.688ZM131.111 53.192C130.226 53.192 129.405 53.048 128.647 52.76C127.901 52.472 127.25 52.0667 126.695 51.544C126.151 51.0213 125.725 50.408 125.415 49.704C125.117 49 124.967 48.232 124.967 47.4C124.967 46.568 125.117 45.8 125.415 45.096C125.725 44.392 126.157 43.7787 126.711 43.256C127.266 42.7333 127.917 42.328 128.663 42.04C129.41 41.752 130.221 41.608 131.095 41.608C131.981 41.608 132.791 41.752 133.527 42.04C134.274 42.328 134.919 42.7333 135.463 43.256C136.018 43.7787 136.45 44.392 136.759 45.096C137.069 45.7893 137.223 46.5573 137.223 47.4C137.223 48.232 137.069 49.0053 136.759 49.72C136.45 50.424 136.018 51.0373 135.463 51.56C134.919 52.072 134.274 52.472 133.527 52.76C132.791 53.048 131.986 53.192 131.111 53.192ZM131.095 50.984C131.597 50.984 132.055 50.8987 132.471 50.728C132.898 50.5573 133.271 50.312 133.591 49.992C133.911 49.672 134.157 49.2933 134.327 48.856C134.509 48.4187 134.599 47.9333 134.599 47.4C134.599 46.8667 134.509 46.3813 134.327 45.944C134.157 45.5067 133.911 45.128 133.591 44.808C133.282 44.488 132.914 44.2427 132.487 44.072C132.061 43.9013 131.597 43.816 131.095 43.816C130.594 43.816 130.13 43.9013 129.703 44.072C129.287 44.2427 128.919 44.488 128.599 44.808C128.279 45.128 128.029 45.5067 127.847 45.944C127.677 46.3813 127.591 46.8667 127.591 47.4C127.591 47.9227 127.677 48.408 127.847 48.856C128.029 49.2933 128.274 49.672 128.583 49.992C128.903 50.312 129.277 50.5573 129.703 50.728C130.13 50.8987 130.594 50.984 131.095 50.984ZM146.9 41.8H149.492V53H146.9V41.8ZM141.812 53H139.22V41.8H141.812V53ZM147.092 48.408H141.62V46.216H147.092V48.408ZM154.714 53V43.32L155.306 43.912H151.146V41.8H160.858V43.912H156.698L157.274 43.32V53H154.714ZM160.659 53L165.651 41.8H168.211L173.219 53H170.499L166.403 43.112H167.427L163.315 53H160.659ZM163.155 50.6L163.843 48.632H169.603L170.307 50.6H163.155ZM181.953 53L178.465 47.608L180.561 46.344L184.897 53H181.953ZM174.673 53V41.8H177.249V53H174.673ZM176.497 48.488V46.328H180.401V48.488H176.497ZM180.801 47.688L178.417 47.4L182.049 41.8H184.785L180.801 47.688ZM188.402 53V43.32L188.994 43.912H184.834V41.8H194.546V43.912H190.386L190.962 43.32V53H188.402ZM201.597 45.48C202.952 45.48 203.997 45.784 204.733 46.392C205.469 46.9893 205.837 47.8907 205.837 49.096C205.837 50.376 205.427 51.3467 204.605 52.008C203.795 52.6693 202.669 53 201.229 53H196.173V41.8H198.749V45.48H201.597ZM201.085 51.08C201.747 51.08 202.269 50.9147 202.653 50.584C203.037 50.2533 203.229 49.7733 203.229 49.144C203.229 48.5253 203.037 48.0827 202.653 47.816C202.28 47.5387 201.757 47.4 201.085 47.4H198.749V51.08H201.085ZM207.261 53V41.8H209.837V53H207.261Z" fill="white"/>
</g>
<defs>
<clipPath id="clip0_886_21">
<rect width="1200" height="309" fill="white"/>
</clipPath>
</defs>
</svg>
