<svg width="218" height="53" viewBox="0 0 218 53" fill="none" xmlns="http://www.w3.org/2000/svg">
<rect width="218" height="52.9298" rx="6.12872" fill="#8AC7FF"/>
<path d="M45.2465 21.1717V32.3717H44.0785V22.1957H36.9905V32.3717H35.8225V21.1717H45.2465ZM52.6256 23.8917C53.447 23.8917 54.1776 24.073 54.8176 24.4357C55.4576 24.7984 55.9536 25.305 56.3056 25.9557C56.6683 26.6064 56.8496 27.3477 56.8496 28.1797C56.8496 29.0117 56.6736 29.753 56.3216 30.4037C55.9696 31.0437 55.479 31.545 54.8496 31.9077C54.231 32.2704 53.5216 32.4517 52.7216 32.4517C52.0176 32.4517 51.3883 32.313 50.8336 32.0357C50.2896 31.7477 49.847 31.337 49.5056 30.8037V35.4757H48.3696V28.1957C48.3696 27.353 48.5456 26.6064 48.8976 25.9557C49.2603 25.305 49.7616 24.7984 50.4016 24.4357C51.0523 24.073 51.7936 23.8917 52.6256 23.8917ZM52.5936 31.4597C53.191 31.4597 53.7296 31.321 54.2096 31.0437C54.6896 30.7664 55.063 30.377 55.3296 29.8757C55.5963 29.3744 55.7296 28.809 55.7296 28.1797C55.7296 27.5504 55.5963 26.985 55.3296 26.4837C55.063 25.9824 54.6896 25.593 54.2096 25.3157C53.7296 25.0277 53.191 24.8837 52.5936 24.8837C51.9963 24.8837 51.4576 25.0224 50.9776 25.2997C50.5083 25.577 50.1403 25.9664 49.8736 26.4677C49.6176 26.9584 49.4896 27.5237 49.4896 28.1637C49.4896 28.8037 49.6176 29.3744 49.8736 29.8757C50.1403 30.377 50.5083 30.7664 50.9776 31.0437C51.4576 31.321 51.9963 31.4597 52.5936 31.4597ZM66.7085 23.9557V32.3717H65.6205V30.8357C65.3219 31.3477 64.9112 31.7477 64.3885 32.0357C63.8659 32.313 63.2685 32.4517 62.5965 32.4517C61.4872 32.4517 60.6125 32.1477 59.9725 31.5397C59.3432 30.921 59.0285 30.0197 59.0285 28.8357V23.9557H60.1645V28.7237C60.1645 29.609 60.3832 30.281 60.8205 30.7397C61.2579 31.1984 61.8872 31.4277 62.7085 31.4277C63.5939 31.4277 64.2925 31.161 64.8045 30.6277C65.3165 30.0837 65.5725 29.3317 65.5725 28.3717V23.9557H66.7085ZM73.4611 32.4517C72.6291 32.4517 71.8825 32.2704 71.2211 31.9077C70.5705 31.545 70.0585 31.0384 69.6851 30.3877C69.3118 29.7264 69.1251 28.985 69.1251 28.1637C69.1251 27.3424 69.3118 26.6064 69.6851 25.9557C70.0585 25.305 70.5705 24.7984 71.2211 24.4357C71.8825 24.073 72.6291 23.8917 73.4611 23.8917C74.1865 23.8917 74.8318 24.0357 75.3971 24.3237C75.9731 24.601 76.4265 25.0117 76.7571 25.5557L75.9091 26.1317C75.6318 25.7157 75.2798 25.4064 74.8531 25.2037C74.4265 24.9904 73.9625 24.8837 73.4611 24.8837C72.8531 24.8837 72.3038 25.0224 71.8131 25.2997C71.3331 25.5664 70.9545 25.9504 70.6771 26.4517C70.4105 26.953 70.2771 27.5237 70.2771 28.1637C70.2771 28.8144 70.4105 29.3904 70.6771 29.8917C70.9545 30.3824 71.3331 30.7664 71.8131 31.0437C72.3038 31.3104 72.8531 31.4437 73.4611 31.4437C73.9625 31.4437 74.4265 31.3424 74.8531 31.1397C75.2798 30.937 75.6318 30.6277 75.9091 30.2117L76.7571 30.7877C76.4265 31.3317 75.9731 31.7477 75.3971 32.0357C74.8211 32.313 74.1758 32.4517 73.4611 32.4517ZM82.2881 32.4517C81.4775 32.4517 80.7468 32.2704 80.0961 31.9077C79.4455 31.5344 78.9335 31.0224 78.5601 30.3717C78.1868 29.721 78.0001 28.985 78.0001 28.1637C78.0001 27.3424 78.1868 26.6064 78.5601 25.9557C78.9335 25.305 79.4455 24.7984 80.0961 24.4357C80.7468 24.073 81.4775 23.8917 82.2881 23.8917C83.0988 23.8917 83.8295 24.073 84.4801 24.4357C85.1308 24.7984 85.6375 25.305 86.0001 25.9557C86.3735 26.6064 86.5601 27.3424 86.5601 28.1637C86.5601 28.985 86.3735 29.721 86.0001 30.3717C85.6375 31.0224 85.1308 31.5344 84.4801 31.9077C83.8295 32.2704 83.0988 32.4517 82.2881 32.4517ZM82.2881 31.4437C82.8855 31.4437 83.4188 31.3104 83.8881 31.0437C84.3681 30.7664 84.7415 30.377 85.0081 29.8757C85.2748 29.3744 85.4081 28.8037 85.4081 28.1637C85.4081 27.5237 85.2748 26.953 85.0081 26.4517C84.7415 25.9504 84.3681 25.5664 83.8881 25.2997C83.4188 25.0224 82.8855 24.8837 82.2881 24.8837C81.6908 24.8837 81.1521 25.0224 80.6721 25.2997C80.2028 25.5664 79.8295 25.9504 79.5521 26.4517C79.2855 26.953 79.1521 27.5237 79.1521 28.1637C79.1521 28.8037 79.2855 29.3744 79.5521 29.8757C79.8295 30.377 80.2028 30.7664 80.6721 31.0437C81.1521 31.3104 81.6908 31.4437 82.2881 31.4437ZM92.556 31.4437C93.0787 31.4437 93.5587 31.353 93.996 31.1717C94.444 30.9797 94.8227 30.7024 95.132 30.3397L95.772 31.0757C95.3987 31.5237 94.9347 31.865 94.38 32.0997C93.8254 32.3344 93.212 32.4517 92.54 32.4517C91.676 32.4517 90.908 32.2704 90.236 31.9077C89.564 31.5344 89.0414 31.0224 88.668 30.3717C88.2947 29.721 88.108 28.985 88.108 28.1637C88.108 27.3424 88.284 26.6064 88.636 25.9557C88.9987 25.305 89.4947 24.7984 90.124 24.4357C90.7534 24.073 91.468 23.8917 92.268 23.8917C93.0147 23.8917 93.6867 24.0624 94.284 24.4037C94.892 24.745 95.372 25.2197 95.724 25.8277C96.0867 26.4357 96.2787 27.129 96.3 27.9077L89.388 29.2517C89.6014 29.9344 89.9854 30.473 90.54 30.8677C91.1054 31.2517 91.7774 31.4437 92.556 31.4437ZM92.268 24.8677C91.6814 24.8677 91.1534 25.0064 90.684 25.2837C90.2254 25.5504 89.8627 25.929 89.596 26.4197C89.34 26.8997 89.212 27.4544 89.212 28.0837C89.212 28.2437 89.2174 28.361 89.228 28.4357L95.164 27.2837C95.036 26.5797 94.7107 26.0037 94.188 25.5557C93.6654 25.097 93.0254 24.8677 92.268 24.8677ZM106.42 23.9557V31.3477C106.42 32.777 106.068 33.833 105.364 34.5157C104.671 35.209 103.62 35.5557 102.212 35.5557C101.434 35.5557 100.692 35.4384 99.9883 35.2037C99.2949 34.9797 98.7296 34.665 98.2923 34.2597L98.8683 33.3957C99.2736 33.7584 99.7643 34.041 100.34 34.2437C100.927 34.4464 101.54 34.5477 102.18 34.5477C103.247 34.5477 104.031 34.297 104.532 33.7957C105.034 33.305 105.284 32.537 105.284 31.4917V30.4197C104.932 30.953 104.468 31.3584 103.892 31.6357C103.327 31.913 102.698 32.0517 102.004 32.0517C101.215 32.0517 100.495 31.881 99.8443 31.5397C99.2043 31.1877 98.6976 30.7024 98.3243 30.0837C97.9616 29.4544 97.7803 28.745 97.7803 27.9557C97.7803 27.1664 97.9616 26.4624 98.3243 25.8437C98.6976 25.225 99.2043 24.745 99.8443 24.4037C100.484 24.0624 101.204 23.8917 102.004 23.8917C102.719 23.8917 103.364 24.0357 103.94 24.3237C104.516 24.6117 104.98 25.0277 105.332 25.5717V23.9557H106.42ZM102.116 31.0437C102.724 31.0437 103.274 30.9157 103.764 30.6597C104.255 30.393 104.634 30.025 104.9 29.5557C105.178 29.0864 105.316 28.553 105.316 27.9557C105.316 27.3584 105.178 26.8304 104.9 26.3717C104.634 25.9024 104.255 25.5397 103.764 25.2837C103.284 25.017 102.735 24.8837 102.116 24.8837C101.508 24.8837 100.959 25.0117 100.468 25.2677C99.9883 25.5237 99.6096 25.8864 99.3323 26.3557C99.0656 26.825 98.9323 27.3584 98.9323 27.9557C98.9323 28.553 99.0656 29.0864 99.3323 29.5557C99.6096 30.025 99.9883 30.393 100.468 30.6597C100.959 30.9157 101.508 31.0437 102.116 31.0437ZM117.068 23.9557V32.3717H115.98V30.8357C115.681 31.3477 115.271 31.7477 114.748 32.0357C114.225 32.313 113.628 32.4517 112.956 32.4517C111.847 32.4517 110.972 32.1477 110.332 31.5397C109.703 30.921 109.388 30.0197 109.388 28.8357V23.9557H110.524V28.7237C110.524 29.609 110.743 30.281 111.18 30.7397C111.617 31.1984 112.247 31.4277 113.068 31.4277C113.953 31.4277 114.652 31.161 115.164 30.6277C115.676 30.0837 115.932 29.3317 115.932 28.3717V23.9557H117.068ZM120.301 23.9557H121.437V27.6837H126.733V23.9557H127.869V32.3717H126.733V28.6597H121.437V32.3717H120.301V23.9557ZM138.505 23.9557V32.3717H137.417V30.8357C137.119 31.3477 136.708 31.7477 136.185 32.0357C135.663 32.313 135.065 32.4517 134.393 32.4517C133.284 32.4517 132.409 32.1477 131.769 31.5397C131.14 30.921 130.825 30.0197 130.825 28.8357V23.9557H131.961V28.7237C131.961 29.609 132.18 30.281 132.617 30.7397C133.055 31.1984 133.684 31.4277 134.505 31.4277C135.391 31.4277 136.089 31.161 136.601 30.6277C137.113 30.0837 137.369 29.3317 137.369 28.3717V23.9557H138.505ZM152.234 23.8917C153.29 23.8917 154.117 24.1957 154.714 24.8037C155.322 25.4117 155.626 26.3077 155.626 27.4917V32.3717H154.49V27.6037C154.49 26.729 154.277 26.0624 153.85 25.6037C153.434 25.145 152.842 24.9157 152.074 24.9157C151.199 24.9157 150.511 25.1877 150.01 25.7317C149.509 26.265 149.258 27.0064 149.258 27.9557V32.3717H148.122V27.6037C148.122 26.729 147.909 26.0624 147.482 25.6037C147.066 25.145 146.469 24.9157 145.69 24.9157C144.826 24.9157 144.138 25.1877 143.626 25.7317C143.125 26.265 142.874 27.0064 142.874 27.9557V32.3717H141.738V23.9557H142.826V25.4917C143.125 24.9797 143.541 24.585 144.074 24.3077C144.607 24.0304 145.221 23.8917 145.914 23.8917C146.618 23.8917 147.226 24.041 147.738 24.3397C148.261 24.6384 148.65 25.081 148.906 25.6677C149.215 25.113 149.658 24.681 150.234 24.3717C150.821 24.0517 151.487 23.8917 152.234 23.8917ZM161.989 32.5477C160.837 32.5477 159.947 32.2597 159.317 31.6837C158.688 31.1077 158.373 30.3024 158.373 29.2677V23.9557H159.509V27.4597C159.787 27.129 160.165 26.8677 160.645 26.6757C161.136 26.4837 161.68 26.3877 162.277 26.3877C163.323 26.3877 164.133 26.6544 164.709 27.1877C165.296 27.721 165.589 28.4357 165.589 29.3317C165.589 30.3024 165.269 31.081 164.629 31.6677C163.989 32.2544 163.109 32.5477 161.989 32.5477ZM162.005 31.6677C162.763 31.6677 163.355 31.4544 163.781 31.0277C164.219 30.601 164.437 30.0464 164.437 29.3637C164.437 28.7237 164.224 28.2117 163.797 27.8277C163.371 27.4437 162.768 27.2517 161.989 27.2517C161.413 27.2517 160.907 27.369 160.469 27.6037C160.043 27.8384 159.723 28.1637 159.509 28.5797V29.3477C159.509 30.073 159.728 30.6437 160.165 31.0597C160.613 31.465 161.227 31.6677 162.005 31.6677ZM171.321 32.4517C170.489 32.4517 169.742 32.2704 169.081 31.9077C168.43 31.545 167.918 31.0384 167.545 30.3877C167.171 29.7264 166.985 28.985 166.985 28.1637C166.985 27.3424 167.171 26.6064 167.545 25.9557C167.918 25.305 168.43 24.7984 169.081 24.4357C169.742 24.073 170.489 23.8917 171.321 23.8917C172.046 23.8917 172.691 24.0357 173.257 24.3237C173.833 24.601 174.286 25.0117 174.617 25.5557L173.769 26.1317C173.491 25.7157 173.139 25.4064 172.713 25.2037C172.286 24.9904 171.822 24.8837 171.321 24.8837C170.713 24.8837 170.163 25.0224 169.673 25.2997C169.193 25.5664 168.814 25.9504 168.537 26.4517C168.27 26.953 168.137 27.5237 168.137 28.1637C168.137 28.8144 168.27 29.3904 168.537 29.8917C168.814 30.3824 169.193 30.7664 169.673 31.0437C170.163 31.3104 170.713 31.4437 171.321 31.4437C171.822 31.4437 172.286 31.3424 172.713 31.1397C173.139 30.937 173.491 30.6277 173.769 30.2117L174.617 30.7877C174.286 31.3317 173.833 31.7477 173.257 32.0357C172.681 32.313 172.035 32.4517 171.321 32.4517ZM182.999 23.9557V32.3717H181.959V29.5877H179.319H178.999L177.047 32.3717H175.815L177.911 29.4277C177.26 29.2464 176.759 28.937 176.407 28.4997C176.055 28.0624 175.879 27.5077 175.879 26.8357C175.879 25.897 176.199 25.1824 176.839 24.6917C177.479 24.201 178.354 23.9557 179.463 23.9557H182.999ZM177.031 26.8677C177.031 28.1157 177.826 28.7397 179.415 28.7397H181.959V24.9637H179.495C177.852 24.9637 177.031 25.5984 177.031 26.8677Z" fill="black"/>
</svg>
